<svg width="133" height="43" viewBox="0 0 133 43" fill="#b49d6d" xmlns="http://www.w3.org/2000/svg">
<path d="M20.0339 41.96L18.6714 41.9493C18.4391 41.9573 18.2066 41.9468 17.976 41.9179C17.7393 41.8677 17.5188 41.758 17.3345 41.5989C17.0567 41.3583 16.8786 41.0198 16.8358 40.6514C16.8253 40.527 16.8253 40.4113 16.8253 40.297L16.8174 38.9121C16.799 37.0658 16.7595 35.2202 16.7121 33.3732C16.6089 29.6813 16.495 25.9881 16.4411 22.2955L16.2996 11.2212L16.2292 5.68235L16.1944 2.9126L16.1904 2.56621V2.39301C16.1904 2.3335 16.1904 2.29004 16.1904 2.18773C16.2016 1.82928 16.3048 1.48003 16.4898 1.17465C16.6735 0.867225 16.9314 0.612565 17.239 0.434807C17.5466 0.257049 17.8938 0.162083 18.2477 0.158893L19.6102 0.138159L19.9503 0.132812H20.0378L20.1694 0.137496C20.5766 0.161859 20.9683 0.304558 21.298 0.548638C21.6277 0.792718 21.8815 1.12791 22.0293 1.51434C22.095 1.68637 22.1392 1.86609 22.1608 2.04931L22.1707 2.18773L22.1753 2.30876V2.48128L22.1957 3.86616L22.2924 9.40501C22.3525 13.098 22.3558 16.7906 22.3023 20.4827C22.2483 24.1746 22.0766 27.8678 21.8674 31.5604C21.7661 33.4067 21.67 35.2523 21.599 37.0992L21.5102 39.869C21.5036 40.1017 21.5029 40.3244 21.4911 40.5664C21.4673 40.9442 21.3026 41.2984 21.0305 41.5569C20.7585 41.8154 20.3997 41.9586 20.0273 41.9573M20.0273 41.7668C20.2378 41.7624 20.4438 41.7038 20.626 41.5965C20.8081 41.4891 20.9605 41.3365 21.0687 41.1529C21.1766 40.9723 21.2348 40.7656 21.2372 40.5544C21.2372 40.3357 21.2279 40.0963 21.224 39.8683L21.1352 37.0986C21.0635 35.2516 20.9681 33.406 20.8668 31.5597C20.6575 27.8671 20.4858 24.1739 20.4325 20.482C20.3793 16.7901 20.3819 13.0969 20.4411 9.40433L20.5385 3.8655L20.5589 2.48062V2.30809V2.22116C20.5548 2.17565 20.5455 2.13077 20.5312 2.08743C20.5011 1.99712 20.4488 1.91612 20.3793 1.85204C20.309 1.78762 20.2243 1.7417 20.1325 1.7183C20.1093 1.71315 20.0858 1.70958 20.0621 1.7076L20.026 1.70425H19.9424L19.6023 1.69958L18.2398 1.67884C18.1374 1.67722 18.0362 1.702 17.9458 1.75088C17.8554 1.79976 17.7786 1.87115 17.7227 1.95836C17.6643 2.0456 17.6302 2.14726 17.624 2.25259C17.6201 2.29929 17.6186 2.34615 17.6194 2.39301V2.56621L17.6154 2.9126L17.5806 5.68235L17.5102 11.2212L17.37 22.2982C17.3161 25.9908 17.2023 29.684 17.099 33.3759C17.0516 35.2229 17.0135 37.0685 16.9937 38.9147L16.9858 40.2996C16.9858 40.4153 16.9858 40.5317 16.9904 40.634C17.002 40.7419 17.0267 40.8479 17.0641 40.9496C17.1379 41.1547 17.2639 41.3363 17.4292 41.4759C17.594 41.6154 17.7906 41.7106 18.001 41.7527C18.2212 41.777 18.4429 41.784 18.6641 41.7734L20.0273 41.7668Z" fill="#977845"/>
<path d="M20.0565 42.0953H20.0329L18.6717 42.0873C18.6059 42.0873 18.5362 42.0873 18.4704 42.0873C18.2974 42.0937 18.1242 42.083 17.9533 42.0552C17.6931 42.0018 17.4508 41.8817 17.2493 41.7062C17.0496 41.5313 16.8953 41.3092 16.8 41.0595C16.7529 40.9361 16.7213 40.8071 16.7059 40.6757C16.6954 40.552 16.6954 40.4443 16.6947 40.338L16.6861 38.9184C16.6704 37.2927 16.6368 35.5327 16.5809 33.3815L16.5335 31.6964C16.4467 28.6204 16.3552 25.4347 16.3105 22.3038L16.0579 2.35917C16.0579 2.3137 16.0579 2.2669 16.0579 2.18398C16.0693 1.80284 16.1793 1.4315 16.3769 1.10737C16.5722 0.7804 16.8464 0.509523 17.1735 0.320412C17.5005 0.131301 17.8697 0.0302228 18.246 0.0267537L20.0362 0L20.1763 0.00468343C20.2513 0.0074014 20.3261 0.0154526 20.4 0.0287638L20.4579 0.0381205C20.9328 0.13027 21.3667 0.373371 21.697 0.73236C22.0272 1.09135 22.2368 1.54767 22.2954 2.03553L22.3131 2.48356L22.4302 9.40661C22.4901 13.1166 22.496 16.8452 22.4401 20.4883C22.3796 24.5607 22.1769 28.5502 22.0052 31.5713C21.9158 33.201 21.8145 35.1335 21.7362 37.1075L21.6421 40.1267C21.6421 40.2738 21.6362 40.4216 21.6289 40.5761C21.6032 40.9844 21.4268 41.3678 21.1349 41.6495C20.8429 41.9312 20.4571 42.0904 20.0546 42.0953M18.2335 1.81486C18.1552 1.81525 18.0782 1.8353 18.0093 1.87321C17.9405 1.91112 17.8819 1.96573 17.8388 2.03218C17.7925 2.10041 17.7655 2.18018 17.7605 2.26288C17.7572 2.29431 17.7572 2.33377 17.7565 2.37121L17.5039 22.3018C17.4592 25.4334 17.3684 28.6164 17.2809 31.6951L17.2335 33.3815C17.1776 35.5133 17.1454 37.272 17.1283 38.9177L17.1204 40.3012C17.1204 40.4142 17.1204 40.5259 17.125 40.6282C17.1356 40.7223 17.1577 40.8146 17.1908 40.9031C17.257 41.0882 17.3705 41.2521 17.5197 41.3778C17.667 41.5021 17.8425 41.5869 18.0302 41.6246C18.1742 41.6451 18.3199 41.6516 18.4651 41.644C18.5309 41.644 18.6019 41.644 18.671 41.644L20.0302 41.636C20.2178 41.632 20.4013 41.5799 20.5636 41.4843C20.726 41.3888 20.8618 41.253 20.9585 41.0896C21.0553 40.9284 21.1073 40.7435 21.1092 40.5547C21.1092 40.4136 21.1052 40.2624 21.1013 40.112L21.0967 39.8726L21.0072 37.1048C20.9296 35.1322 20.8276 33.199 20.7388 31.5693C20.5677 28.5488 20.3638 24.5587 20.3039 20.487C20.2506 16.8439 20.2526 13.1145 20.3138 9.40527L20.4335 2.30902V2.22611C20.4309 2.19748 20.4251 2.16922 20.4164 2.14185C20.3938 2.07078 20.3535 2.00684 20.2995 1.95624C20.2454 1.90563 20.1794 1.87007 20.1079 1.85298L20.0888 1.71254L20.0697 1.84628L19.9487 1.84161L18.2467 1.81619H18.2342M20.0908 1.57813C20.1079 1.5796 20.1249 1.58274 20.1414 1.5875C20.2657 1.61362 20.3811 1.67215 20.4763 1.75735C20.5638 1.83785 20.6291 1.9402 20.6658 2.05425C20.6803 2.09524 20.6899 2.13793 20.6941 2.18131C20.6941 2.18599 20.6987 2.21942 20.6987 2.22544V2.31237L20.5789 9.4133C20.5197 13.1199 20.5131 16.8459 20.5697 20.4856C20.6289 24.552 20.8329 28.5395 21.0039 31.558C21.0934 33.1896 21.1954 35.1228 21.273 37.1002L21.3671 40.1093C21.3671 40.1902 21.371 40.2718 21.3723 40.3527C21.3723 40.2758 21.3756 40.2003 21.3769 40.1247L21.3829 39.8719L21.4717 37.1022C21.5493 35.1241 21.6513 33.1909 21.7408 31.5593C21.9118 28.5408 22.1151 24.554 22.175 20.487C22.2283 16.8472 22.2256 13.1212 22.1658 9.41396L22.0342 2.06562C22.0142 1.89579 21.9728 1.72926 21.9112 1.57011C21.7885 1.24749 21.587 0.961989 21.3255 0.740605C21.0641 0.519221 20.7514 0.369268 20.4171 0.304933L20.3618 0.296903C20.2993 0.284934 20.2359 0.277783 20.1723 0.275506L20.0348 0.270833L18.2519 0.297576C17.9208 0.301087 17.5961 0.390297 17.3083 0.556788C17.0205 0.723278 16.7792 0.961561 16.6072 1.24914C16.4332 1.53432 16.3365 1.86123 16.3269 2.19668C16.323 2.27358 16.3269 2.31505 16.3269 2.35584L16.5796 22.3012C16.6243 25.4313 16.7151 28.613 16.8026 31.6904L16.8506 33.3768C16.8763 34.3919 16.8973 35.3207 16.9164 36.1854C16.9335 35.3127 16.9546 34.3859 16.9822 33.3768L17.0296 31.6904C17.1164 28.6144 17.2079 25.4313 17.2526 22.3012L17.5046 2.39596C17.5018 2.33737 17.5051 2.27865 17.5144 2.22076C17.5225 2.10049 17.563 1.98479 17.6315 1.88641C17.7018 1.78238 17.7958 1.69728 17.9056 1.63845C18.0154 1.57961 18.1377 1.54882 18.2618 1.54872L20.0941 1.58014H20.1" fill="#977845"/>
<path d="M10.1908 8.55319L11.9671 8.56924C12.2837 8.56819 12.5918 8.67312 12.8439 8.86783C13.096 9.06253 13.278 9.33618 13.3618 9.64651C13.4004 9.79938 13.4188 9.95679 13.4164 10.1146L13.4276 10.5653L13.45 11.4674L13.5158 13.2729C13.6191 15.6802 13.7329 18.0815 13.7868 20.4861L13.9408 27.6994L14.0066 31.3057L14.0224 32.2078L14.0303 32.6585V32.7715L14.0243 32.9413C14.017 33.0568 13.9996 33.1714 13.9724 33.2837C13.8638 33.7395 13.6089 34.1455 13.2481 34.4377C12.8872 34.7299 12.4409 34.8916 11.9796 34.8973L10.2033 34.9388C9.72657 34.9447 9.26139 34.7899 8.88047 34.4986C8.49954 34.2072 8.22437 33.7957 8.09799 33.3285C8.06588 33.2108 8.04386 33.0904 8.03219 32.9688L8.02036 32.7862L8.01706 32.6685L8.00588 32.2185L7.98154 31.3164L7.9322 29.5109C7.87211 27.1067 7.86882 24.7023 7.92233 22.2977C7.97233 19.8903 8.14864 17.489 8.3572 15.0844C8.45917 13.8807 8.55457 12.6771 8.62694 11.4774L8.67563 10.576L8.69668 10.1253C8.69843 9.96219 8.72053 9.79996 8.76246 9.6425C8.85222 9.32629 9.04117 9.04854 9.30055 8.85154C9.55992 8.65454 9.87553 8.54907 10.1993 8.55118M10.1993 8.74176C9.92417 8.74981 9.65945 8.85047 9.44668 9.02796C9.23827 9.20306 9.09466 9.44501 9.03944 9.71405C9.01309 9.84964 9.00667 9.98845 9.02036 10.126L9.04075 10.5767L9.08944 11.4781C9.16444 12.6817 9.25786 13.8854 9.35983 15.085C9.56773 17.4924 9.74471 19.8937 9.79405 22.2983C9.84339 24.703 9.84404 27.1069 9.78483 29.5116L9.73549 31.3171L9.71115 32.2191L9.69865 32.6692V32.8203C9.69979 32.8484 9.70331 32.8764 9.70918 32.9039C9.73386 33.0227 9.79683 33.1297 9.88812 33.2079C9.97941 33.2862 10.0938 33.3312 10.2131 33.3359L11.9895 33.3773C12.1246 33.3802 12.257 33.3378 12.366 33.2566C12.4751 33.1753 12.5547 33.0599 12.5927 32.928C12.6033 32.8949 12.6106 32.8609 12.6145 32.8263L12.6184 32.7722V32.6592L12.6263 32.2085L12.6421 31.3064L12.7079 27.7001L12.8618 20.4868C12.9158 18.0795 13.0296 15.6782 13.1329 13.2735L13.1987 11.468L13.221 10.566L13.2322 10.1153C13.2428 9.97319 13.231 9.83031 13.1974 9.69199C13.1287 9.41662 12.9718 9.17231 12.7514 8.99759C12.5311 8.82288 12.2597 8.7277 11.9802 8.72705L10.1993 8.74176Z" fill="#977845"/>
<path d="M10.1651 35.0725C9.66492 35.071 9.17905 34.903 8.78176 34.5942C8.38446 34.2854 8.0976 33.8529 7.96506 33.3627C7.93092 33.239 7.90714 33.1126 7.894 32.9849L7.87821 32.6726L7.79268 29.5163C7.73216 27.105 7.72689 24.6756 7.78281 22.2944C7.83545 19.7453 8.03216 17.2122 8.21834 15.0724C8.33348 13.7022 8.41966 12.5574 8.48742 11.4694L8.55716 10.1193C8.55823 9.94508 8.5819 9.77173 8.62755 9.60377C8.72677 9.26038 8.93304 8.95903 9.21531 8.74509C9.49758 8.53114 9.84059 8.41618 10.1927 8.41749L11.969 8.43287C12.3158 8.42843 12.654 8.54211 12.9298 8.75577C13.2055 8.96943 13.403 9.27078 13.4907 9.61179C13.5324 9.77551 13.5521 9.94422 13.5493 10.1133L13.5828 11.4641L13.6953 14.3796C13.7828 16.3797 13.873 18.4467 13.9184 20.4808L14.1605 32.7669L14.1559 32.9441C14.1476 33.0695 14.1284 33.1939 14.0986 33.3159C13.9848 33.7975 13.7157 34.2267 13.3341 34.5349C12.9491 34.8475 12.4729 35.0216 11.9802 35.0297L10.2039 35.0705H10.1651M8.99861 9.3871C8.94786 9.47837 8.90831 9.57561 8.88085 9.67665C8.8425 9.82399 8.82239 9.97562 8.82098 10.128L8.75518 11.4841C8.68939 12.5755 8.60124 13.7223 8.48479 15.0951C8.29992 17.2316 8.10321 19.758 8.05124 22.3004C7.99729 24.6749 8.00058 27.1003 8.06044 29.507L8.16045 32.9568C8.17248 33.0682 8.19338 33.1785 8.22295 33.2864C8.34159 33.7291 8.60289 34.1186 8.96505 34.3925C9.31988 34.6676 9.75642 34.8115 10.2026 34.8004L11.9789 34.7589C12.4128 34.7525 12.8323 34.5999 13.1716 34.3249C13.508 34.053 13.7452 33.6745 13.8453 33.2497C13.8715 33.1438 13.888 33.0357 13.8947 32.9267L13.8999 32.7635L13.6578 20.4855C13.6124 18.4547 13.5216 16.3884 13.4348 14.3897L13.3223 11.4721L13.2091 14.4144C13.1223 16.4051 13.0328 18.464 12.9874 20.4882L12.7387 32.8377C12.7337 32.8832 12.724 32.928 12.7098 32.9715C12.6621 33.1305 12.5643 33.269 12.4313 33.3657C12.2983 33.4624 12.1377 33.5119 11.9743 33.5064L10.2052 33.4657C10.0551 33.4606 9.91113 33.4042 9.7966 33.3055C9.68206 33.2068 9.60372 33.0717 9.57427 32.922C9.56796 32.8987 9.56464 32.8746 9.5644 32.8505C9.5644 32.8471 9.5644 32.8164 9.5644 32.8123L9.65322 29.505C9.71308 27.0976 9.71571 24.6756 9.66308 22.2984C9.61045 19.7573 9.4144 17.2316 9.22887 15.0938C9.11505 13.745 9.02624 12.5641 8.95914 11.4828L8.89335 10.1287C8.87842 9.97953 8.88574 9.82894 8.91506 9.682C8.93579 9.57923 8.96847 9.47934 9.01242 9.38443M10.2072 8.87288C9.96225 8.87912 9.72646 8.96857 9.53743 9.12698C9.35155 9.28238 9.22324 9.49746 9.17361 9.73683C9.14898 9.86047 9.14321 9.98723 9.1565 10.1126L9.22229 11.4674C9.28808 12.5447 9.37822 13.723 9.49203 15.0697C9.67822 17.2096 9.87493 19.7439 9.92756 22.2917C9.98151 24.6729 9.97821 27.1016 9.91768 29.5136L9.82887 32.8197C9.82887 32.8244 9.83677 32.8719 9.83743 32.8772C9.85732 32.9654 9.90507 33.0445 9.97339 33.1024C10.0417 33.1604 10.1268 33.194 10.2157 33.1982L11.992 33.2396C12.0975 33.2413 12.2007 33.2081 12.286 33.145C12.3713 33.082 12.4341 32.9924 12.4651 32.8899C12.4717 32.8692 12.4766 32.8479 12.4795 32.8264L12.4887 32.6539L12.5749 27.6941L12.7295 20.4808C12.7743 18.4533 12.8644 16.3937 12.9512 14.401L13.098 10.1113C13.1078 9.98165 13.0976 9.85124 13.0677 9.7248C13.0058 9.47903 12.8656 9.26099 12.669 9.1047C12.4724 8.94841 12.2304 8.86266 11.9808 8.86084L10.2072 8.87288Z" fill="#977845"/>
<path d="M26.3077 15.0544C26.6367 15.0631 26.9597 15.0704 27.286 15.0704H27.7748C27.9387 15.0704 28.0966 15.057 28.2749 15.0704C28.6295 15.1073 28.9593 15.2722 29.2045 15.5352C29.4609 15.8062 29.6119 16.1626 29.6295 16.5382C29.7327 17.8636 29.8472 19.1889 29.9005 20.5143L30.0545 24.4904L30.086 25.4841L30.1018 25.9809L30.1104 26.2297C30.1104 26.2765 30.1143 26.2966 30.1104 26.3668C30.1064 26.437 30.1104 26.4918 30.1025 26.554C30.0567 27.0618 29.8283 27.5346 29.461 27.882C29.0882 28.2358 28.6005 28.4381 28.0906 28.4504L27.1123 28.4865L26.6235 28.5086L26.3795 28.52H26.3183C26.3005 28.52 26.2564 28.52 26.2268 28.52C26.1609 28.5201 26.095 28.5165 26.0295 28.5093C25.4927 28.4551 24.9946 28.2012 24.6308 27.7964C24.4469 27.5932 24.3011 27.3575 24.2005 27.101C24.1487 26.9715 24.1097 26.8371 24.084 26.6998C24.0699 26.6311 24.0595 26.5617 24.0531 26.4918L24.0393 26.2992C23.9808 24.9739 23.9735 23.6485 24.0294 22.3231C24.096 20.9901 24.2413 19.6624 24.4643 18.3471L24.611 17.3527L24.7426 16.3336C24.8148 15.9684 25.0103 15.6404 25.2953 15.4062C25.5802 15.172 25.9367 15.0464 26.3031 15.051M26.3031 15.2416C26.0016 15.2536 25.7163 15.3837 25.5071 15.6047C25.3075 15.8134 25.1975 16.0941 25.2012 16.3851C25.2051 16.5088 25.2334 16.6954 25.2518 16.8532L25.3176 17.35L25.4643 18.3444C25.6872 19.6597 25.8322 20.9875 25.8985 22.3205C25.9551 23.6458 25.9485 24.9712 25.8893 26.2966V26.3327V26.3521C25.8878 26.3649 25.8878 26.378 25.8893 26.3908C25.8886 26.4174 25.8913 26.4439 25.8972 26.4698C25.9084 26.5252 25.9296 26.578 25.9597 26.6256C26.0247 26.7301 26.1267 26.8053 26.2446 26.8355C26.3711 26.8546 26.4989 26.8642 26.6268 26.8643L27.1156 26.8863L28.0939 26.9225C28.247 26.9292 28.3972 26.8794 28.5169 26.7823C28.6366 26.6852 28.7177 26.5473 28.7452 26.3942L28.7518 26.3333C28.7551 26.318 28.7551 26.2578 28.7571 26.2223L28.765 25.9736L28.7808 25.4767L28.8124 24.483L28.967 20.5069C29.0203 19.1816 29.1341 17.8562 29.2374 16.5309C29.2649 16.2295 29.1781 15.9288 28.9946 15.6903C28.8111 15.4519 28.5449 15.2937 28.2505 15.2483C28.0923 15.2311 27.9333 15.2239 27.7742 15.2269H27.2854C26.9564 15.2269 26.6341 15.2342 26.3071 15.2423" fill="#977845"/>
<path d="M26.2904 28.6562H26.2496H26.1792C26.1233 28.6563 26.0675 28.6527 26.0121 28.6455C25.4452 28.5869 24.9194 28.3181 24.5351 27.8905C24.3405 27.6756 24.1862 27.4263 24.0799 27.1549C24.0246 27.018 23.9831 26.8758 23.9562 26.7303L23.9489 26.6882C23.9367 26.6277 23.9284 26.5665 23.9239 26.505L23.9101 26.3137C23.8496 24.9456 23.8443 23.6042 23.9002 22.3223C23.9672 20.9844 24.1126 19.6517 24.3358 18.3315L24.4825 17.3384L24.6141 16.322C24.6895 15.9348 24.8924 15.5852 25.1893 15.3307C25.4861 15.0762 25.8594 14.932 26.2476 14.9218H26.3101C26.6351 14.9298 26.9601 14.9378 27.2838 14.9378H27.7726H27.9391C28.0544 14.932 28.17 14.934 28.2851 14.9438C28.6714 14.9846 29.0306 15.1641 29.2983 15.45C29.5761 15.7434 29.7398 16.1293 29.7588 16.536L29.8075 17.1565C29.8943 18.2559 29.9851 19.3927 30.0299 20.5128L30.2411 26.2683C30.2411 26.297 30.2411 26.3244 30.2411 26.3746V26.408C30.2411 26.4622 30.2411 26.5157 30.2338 26.5698C30.1851 27.1113 29.9417 27.6155 29.5503 27.9861C29.1535 28.3615 28.6349 28.5756 28.093 28.588L26.3239 28.6609H26.2877M25.5358 15.4039C25.3666 15.51 25.2205 15.6503 25.1067 15.816C24.9929 15.9818 24.9137 16.1694 24.8739 16.3675L24.7423 17.3786L24.595 18.3742C24.3733 19.6848 24.2288 21.0076 24.1621 22.3356C24.1081 23.6102 24.1108 24.9436 24.1719 26.301L24.1851 26.4896C24.1892 26.541 24.1965 26.5922 24.2068 26.6427L24.2141 26.6835C24.2378 26.8111 24.2742 26.9359 24.3226 27.056C24.417 27.2979 24.5543 27.52 24.7279 27.7113C25.0705 28.0913 25.539 28.3294 26.0437 28.38C26.0902 28.3859 26.137 28.3891 26.1838 28.3894H26.2318C26.2739 28.3894 26.2976 28.3894 26.3088 28.3894L28.0851 28.3165C28.5629 28.3062 29.0201 28.1171 29.3693 27.7855C29.7129 27.4604 29.9269 27.0182 29.9706 26.5431C29.9746 26.4949 29.9753 26.4468 29.9759 26.3987V26.3639C29.9759 26.3231 29.9759 26.297 29.9759 26.2763L29.7654 20.5201C29.7207 19.4061 29.6305 18.2713 29.5437 17.1766L29.4943 16.552C29.479 16.2114 29.3433 15.8878 29.1121 15.6406C29.3039 15.9024 29.3941 16.2269 29.3654 16.552L29.318 17.1539C29.2305 18.2572 29.1404 19.398 29.095 20.5194L28.8838 26.2803C28.8841 26.311 28.8817 26.3417 28.8766 26.3719L28.8726 26.4174C28.8421 26.6059 28.7438 26.7763 28.597 26.8956C28.4501 27.0149 28.2649 27.0746 28.0772 27.0633L26.5378 27.0025C26.4222 27.0061 26.3066 26.9951 26.1937 26.9697C26.0491 26.929 25.9247 26.8348 25.845 26.7056C25.8056 26.6447 25.7784 26.5765 25.7647 26.505C25.7564 26.4707 25.7528 26.4353 25.7542 26.4C25.7519 26.3732 25.7546 26.3462 25.7621 26.3204V26.2997C25.8226 24.9429 25.8279 23.6088 25.772 22.3356C25.705 21.0078 25.5602 19.6852 25.3384 18.3749L25.1075 16.7306C25.0923 16.6082 25.0772 16.4858 25.0746 16.3962C25.072 16.2341 25.1009 16.0731 25.1597 15.9224C25.2185 15.7718 25.3061 15.6344 25.4174 15.5182C25.4556 15.4769 25.4967 15.4385 25.5404 15.4032M26.2917 26.7196C26.3325 26.7256 26.4641 26.7317 26.5549 26.7357L28.1003 26.7979C28.2214 26.8052 28.3409 26.767 28.4359 26.6903C28.531 26.6137 28.5949 26.5041 28.6154 26.3826L28.622 26.3264C28.6229 26.3093 28.6229 26.2921 28.622 26.2749L28.6785 24.4882L28.8325 20.5114C28.8786 19.3847 28.9693 18.2378 29.0568 17.1345L29.1042 16.5326C29.1287 16.2658 29.0521 15.9996 28.89 15.7883C28.7278 15.577 28.4924 15.4366 28.2318 15.3959C28.1041 15.381 27.9755 15.3747 27.847 15.3771L27.2845 15.3738C26.9608 15.3738 26.6364 15.3811 26.3114 15.3892C26.0448 15.3998 25.7926 15.5148 25.6075 15.7102C25.4326 15.8933 25.3355 16.139 25.3371 16.3942C25.3371 16.4771 25.3542 16.5902 25.3687 16.7032L25.4522 17.3485L25.5989 18.3401C25.8217 19.6603 25.9673 20.9927 26.0351 22.3303C26.0891 23.6115 26.0864 24.9536 26.0259 26.3177V26.3538C26.0246 26.3719 26.0217 26.3898 26.0174 26.4073C26.0207 26.4208 26.0234 26.4344 26.0253 26.4481C26.0328 26.4909 26.0484 26.5318 26.0713 26.5685C26.1179 26.6435 26.1908 26.6975 26.2753 26.7196L26.2917 26.725" fill="#977845"/>
<path d="M36.1506 24.2342C35.7902 24.2139 35.4289 24.2128 35.0684 24.2309C34.8886 24.2402 34.7081 24.254 34.5269 24.2723C34.3309 24.3052 34.1309 24.3052 33.9348 24.2723C33.7184 24.2354 33.5118 24.1536 33.3279 24.032C33.144 23.9104 32.9867 23.7516 32.8657 23.5655C32.7371 23.3664 32.6512 23.142 32.6138 22.9068C32.5967 22.7731 32.5888 22.6922 32.5809 22.5999L32.5572 22.3251L32.4032 20.1244L32.3999 20.0522V19.9519C32.3994 19.8848 32.4036 19.8177 32.4125 19.7512C32.4271 19.6146 32.4564 19.4801 32.5 19.35C32.5858 19.0884 32.7227 18.8471 32.9026 18.6405C33.0871 18.429 33.3122 18.2579 33.564 18.1377C33.8158 18.0176 34.089 17.9509 34.3671 17.9417C34.7282 17.9183 35.0908 17.8943 35.45 17.8602L35.9914 17.8107L36.1269 17.798C36.1587 17.7963 36.1905 17.7963 36.2223 17.798H36.3355C36.4882 17.8029 36.64 17.823 36.7888 17.8582C37.0895 17.9334 37.3711 18.0726 37.6151 18.2666C37.859 18.4606 38.0597 18.705 38.2039 18.9836C38.3496 19.2656 38.4336 19.5763 38.45 19.8943V20.0127V20.0709V20.105L38.4427 20.2427L38.4256 20.5169C38.3579 21.2641 38.2121 22.0018 37.9908 22.7176L37.95 22.8808C37.9357 22.9416 37.917 23.0013 37.8941 23.0593C37.8525 23.1729 37.7992 23.2816 37.7348 23.3836C37.6161 23.5761 37.4636 23.7448 37.2848 23.8811C36.9594 24.1317 36.5577 24.2581 36.15 24.2382M36.15 24.0476C36.3128 24.0391 36.471 23.99 36.6108 23.9046C36.7505 23.8193 36.8674 23.7003 36.9513 23.5581C37.0265 23.4283 37.0683 23.2814 37.073 23.1309C37.0752 23.0617 37.0679 22.9926 37.0513 22.9256C37.0454 22.8931 37.0363 22.8613 37.0243 22.8306L37.0085 22.7851L36.9901 22.7183C36.7693 22.0024 36.6237 21.2647 36.5559 20.5176L36.5381 20.2434L36.5315 20.1057V20.0716V20.0602L36.5276 20.0415C36.5175 19.993 36.5013 19.946 36.4796 19.9017C36.4346 19.8031 36.3612 19.7208 36.269 19.6656C36.2446 19.6498 36.2185 19.6366 36.1914 19.6262L36.1684 19.6188C36.1564 19.6126 36.143 19.6098 36.1296 19.6108L35.994 19.5981L35.4526 19.5486C35.0921 19.5145 34.7289 19.4898 34.3697 19.4677C34.2855 19.4571 34.2002 19.4644 34.1189 19.4891C34.0377 19.5139 33.9625 19.5555 33.898 19.6115C33.8275 19.6707 33.7697 19.744 33.7282 19.8268C33.7058 19.869 33.6888 19.914 33.6776 19.9606C33.6696 19.9834 33.6645 20.0072 33.6625 20.0314L33.6559 20.0682L33.6513 20.1351L33.4973 22.3358L33.4513 22.8547C33.4396 22.9868 33.4537 23.12 33.4927 23.2465C33.5364 23.3886 33.6085 23.52 33.7045 23.6324C33.8005 23.7448 33.9184 23.8359 34.0506 23.8999C34.2028 23.9672 34.3657 24.0059 34.5315 24.0142C34.7124 24.0316 34.8927 24.047 35.073 24.0557C35.4335 24.0731 35.7948 24.072 36.1552 24.0523" fill="#977845"/>
<path d="M34.1927 24.4329C34.0978 24.4338 34.0031 24.4251 33.9099 24.4068C33.6765 24.3658 33.4539 24.2768 33.2555 24.1453C33.0572 24.0137 32.8874 23.8424 32.7565 23.6418C32.618 23.4263 32.5254 23.1837 32.4848 22.9297C32.4671 22.7959 32.4585 22.709 32.4506 22.6147L32.4276 22.3385L32.269 20.0649V19.9566C32.269 19.8835 32.2736 19.8105 32.2829 19.738C32.2989 19.5934 32.3305 19.451 32.3769 19.3133C32.468 19.0351 32.6134 18.7786 32.8046 18.559C33.0008 18.3337 33.24 18.1511 33.5077 18.0225C33.7753 17.8939 34.0659 17.8218 34.3618 17.8108C34.7171 17.788 35.0776 17.7639 35.4362 17.7298L36.1131 17.6683C36.1243 17.6683 36.1723 17.665 36.2164 17.6643H36.3342C36.4968 17.6692 36.6586 17.6904 36.8171 17.7278C37.1365 17.808 37.4356 17.9559 37.6948 18.1618C37.954 18.3678 38.1674 18.6271 38.321 18.9228C38.4752 19.2219 38.5638 19.5513 38.5809 19.8884L38.5842 20.0696L38.5579 20.527C38.4892 21.2838 38.3419 22.0312 38.1184 22.7565L38.0783 22.9156C38.0625 22.9817 38.0421 23.0465 38.0171 23.1095C37.9732 23.2312 37.9163 23.3476 37.8474 23.4566C37.7204 23.6638 37.5566 23.8452 37.3645 23.9916C37.0148 24.2616 36.5826 24.3975 36.1441 24.3754C35.7737 24.3567 35.4144 24.3553 35.0756 24.3754C34.8973 24.3841 34.719 24.3988 34.5401 24.4168C34.4248 24.4332 34.3085 24.4419 34.1921 24.4429M36.3302 17.9391H36.223C36.1976 17.9377 36.1721 17.9377 36.1467 17.9391L35.4625 18.0013C35.1013 18.0354 34.7388 18.0602 34.3763 18.0829C34.116 18.0923 33.8603 18.1554 33.6248 18.2682C33.3892 18.3811 33.1786 18.5415 33.0059 18.7396C32.8374 18.9325 32.7092 19.1582 32.6289 19.4029C32.5881 19.5229 32.5609 19.6472 32.548 19.7734C32.5389 19.8349 32.5347 19.8971 32.5355 19.9593V20.0636L32.5388 20.1305L32.7151 22.6013C32.7237 22.6909 32.7315 22.7718 32.7487 22.9016C32.783 23.1166 32.862 23.3217 32.9802 23.5034C33.0911 23.6736 33.2351 23.8189 33.4034 23.9304C33.5716 24.0418 33.7605 24.117 33.9585 24.1514C34.1417 24.182 34.3286 24.182 34.5118 24.1514H34.5125C34.3325 24.1418 34.1558 24.0992 33.9908 24.0257C33.8418 23.9536 33.7092 23.8511 33.6011 23.7245C33.4929 23.598 33.4117 23.4501 33.3625 23.2901C33.318 23.1476 33.3021 22.9976 33.3158 22.8487L33.3612 22.3292L33.5283 20.0135C33.5309 19.9838 33.5371 19.9546 33.5467 19.9265C33.5607 19.8728 33.5808 19.821 33.6065 19.7721C33.6565 19.6743 33.7249 19.5875 33.8079 19.5166C33.8864 19.4481 33.9782 19.3971 34.0774 19.3672C34.1766 19.3372 34.2809 19.3289 34.3835 19.3428C34.7355 19.3648 35.098 19.3896 35.4598 19.4237L36.1362 19.4852C36.1633 19.4857 36.1902 19.4916 36.2151 19.5026C36.2573 19.5165 36.2975 19.5359 36.3348 19.5601C36.4467 19.6287 36.5364 19.7291 36.5927 19.849C36.6192 19.9038 36.6391 19.9618 36.652 20.0215C36.6558 20.0371 36.6586 20.053 36.6605 20.069L36.6868 20.5177C36.7543 21.2553 36.8985 21.9836 37.1171 22.6903L37.1487 22.7939C37.1624 22.831 37.1728 22.8693 37.1796 22.9083C37.1992 22.9862 37.2071 23.0667 37.2033 23.147C37.1985 23.3194 37.1503 23.4877 37.0632 23.6358C36.954 23.8257 36.7916 23.9782 36.5967 24.0738C36.8166 24.0205 37.0233 23.9217 37.2039 23.7836C37.3698 23.6574 37.5115 23.5012 37.6217 23.3229C37.6812 23.2292 37.7304 23.1292 37.7684 23.0246C37.7892 22.9715 37.8064 22.917 37.8197 22.8614L37.8618 22.6949C38.0804 21.9868 38.2249 21.2573 38.2928 20.5183L38.3184 20.075L38.3151 19.9078C38.2998 19.6106 38.2209 19.3204 38.0842 19.0572C37.9486 18.7954 37.7599 18.5658 37.5306 18.3836C37.3013 18.2013 37.0366 18.0706 36.7539 18C36.6145 17.967 36.4721 17.9482 36.3289 17.9438M34.2895 19.6062C34.1747 19.6068 34.0638 19.6484 33.9763 19.7239C33.9196 19.7716 33.873 19.8305 33.8394 19.8971C33.8219 19.9298 33.8084 19.9646 33.7993 20.0007C33.7938 20.017 33.7901 20.0338 33.7881 20.0509L33.7776 20.1505L33.5802 22.8728C33.5694 22.9867 33.5815 23.1016 33.6158 23.2105C33.6537 23.3354 33.7167 23.451 33.8009 23.5499C33.885 23.6487 33.9884 23.7288 34.1046 23.7849C34.2421 23.845 34.3892 23.8792 34.5388 23.8859C34.7197 23.9033 34.8974 23.918 35.075 23.9274C35.4158 23.9447 35.775 23.9434 36.1447 23.9274C36.2854 23.9203 36.4222 23.878 36.5429 23.8043C36.6637 23.7306 36.7646 23.6277 36.8368 23.5047C36.9015 23.3945 36.9378 23.2693 36.9421 23.141C36.9444 23.0838 36.9386 23.0266 36.925 22.9711C36.92 22.9449 36.9127 22.9191 36.9033 22.8942L36.8645 22.7672C36.6418 22.0426 36.4947 21.2962 36.4256 20.5404L36.3987 20.0897C36.3887 20.0489 36.3746 20.0092 36.3566 19.9713C36.3231 19.8988 36.2696 19.8377 36.2026 19.7955C36.1836 19.7829 36.1633 19.7723 36.1421 19.764L36.1085 19.7527L35.4375 19.6952C35.0783 19.661 34.7177 19.6363 34.3579 19.6136C34.3361 19.6107 34.3141 19.6094 34.2921 19.6096" fill="#977845"/>
<path d="M3.91758 25.872C3.42284 25.8533 2.93073 25.8499 2.43204 25.872C2.30573 25.872 2.18994 25.8874 2.05507 25.8854C1.91991 25.8856 1.78534 25.8672 1.65507 25.8305C1.38439 25.7567 1.13856 25.6095 0.943886 25.4046C0.738522 25.1904 0.596107 24.9222 0.5327 24.6302C0.51704 24.5561 0.505616 24.481 0.498488 24.4055L0.479415 24.217L0.44191 23.8392C0.39191 23.3356 0.35704 22.8321 0.325461 22.3292L0.171517 19.3094L0.139935 18.5544C0.129015 18.3872 0.135405 18.2194 0.159009 18.0536C0.187987 17.8654 0.24315 17.6823 0.322831 17.5099C0.485843 17.1589 0.741292 16.8607 1.06087 16.6482C1.38044 16.4357 1.75166 16.3174 2.13336 16.3062C2.62876 16.2835 3.12415 16.2588 3.61889 16.2247L3.80508 16.2133L3.89785 16.2073C3.92153 16.2073 3.99126 16.2073 4.036 16.2073C4.24072 16.2092 4.44411 16.2409 4.63995 16.3016C5.04345 16.424 5.40425 16.6609 5.68006 16.9843C5.95587 17.3078 6.13525 17.7044 6.19719 18.1278C6.21131 18.2322 6.21965 18.3374 6.22219 18.4427L6.22613 18.6313C6.22613 18.7577 6.23337 18.8834 6.23206 19.0091C6.23206 19.5127 6.21956 20.0162 6.19325 20.5191C6.12603 21.5357 5.98062 22.5454 5.75837 23.5389L5.61167 24.2939C5.58976 24.4389 5.55833 24.5824 5.51758 24.7232C5.46992 24.8672 5.40354 25.0042 5.32021 25.1304C5.1684 25.3664 4.9597 25.559 4.71395 25.6899C4.46821 25.8208 4.1936 25.8855 3.91627 25.878M3.91627 25.6874C4.13894 25.6783 4.35349 25.6 4.53092 25.4629C4.70835 25.3259 4.84011 25.1367 4.90837 24.9211C4.93889 24.8223 4.9529 24.719 4.94982 24.6155C4.94249 24.507 4.92688 24.3993 4.90311 24.2932L4.7564 23.5382C4.53435 22.5447 4.38916 21.535 4.32218 20.5184C4.29587 20.0155 4.28074 19.5153 4.28271 19.0085C4.28271 18.8828 4.28665 18.757 4.28929 18.6307L4.29324 18.4421C4.29324 18.4073 4.29324 18.4013 4.29324 18.3806C4.29389 18.3052 4.27457 18.2311 4.23732 18.1659C4.19744 18.0908 4.13775 18.0285 4.06495 17.986C4.02745 17.9626 3.98629 17.9459 3.94324 17.9365C3.92809 17.9317 3.91239 17.9287 3.89652 17.9278L3.80376 17.9218L3.61758 17.9098C3.12284 17.8757 2.63073 17.8509 2.13205 17.8282C2.01591 17.8198 1.89974 17.8442 1.79639 17.8987C1.69305 17.9532 1.60657 18.0357 1.54652 18.1371C1.51427 18.1898 1.48988 18.2471 1.47415 18.307C1.45326 18.3891 1.44374 18.4737 1.44586 18.5584L1.41428 19.3134L1.26034 22.3332C1.22876 22.8361 1.19454 23.3363 1.14389 23.8432L1.10638 24.221L1.08665 24.4096C1.08665 24.4637 1.07612 24.5099 1.07809 24.5614C1.07843 24.7717 1.13752 24.9776 1.24849 25.1552C1.3698 25.3418 1.54066 25.4897 1.74126 25.5818C1.96194 25.666 2.19727 25.7034 2.43271 25.6915C2.9281 25.7095 3.4235 25.7075 3.91824 25.6915" fill="#977845"/>
<path d="M2.07936 26.0175C2.0693 26.0165 2.05916 26.0165 2.04909 26.0175C1.90343 26.018 1.75841 25.998 1.61817 25.958C1.32497 25.8784 1.05877 25.7189 0.848433 25.4966C0.625233 25.265 0.47085 24.9741 0.403035 24.6573C0.390214 24.5998 0.380768 24.5415 0.374746 24.4828L0.308952 23.8515C0.257636 23.3366 0.222114 22.8191 0.191851 22.3369L0.00501004 18.5588C-0.00605667 18.3817 0.00122332 18.204 0.0267238 18.0285C0.0574821 17.828 0.116186 17.6331 0.201066 17.4494C0.374654 17.0759 0.64655 16.7585 0.986656 16.5324C1.32676 16.3063 1.72181 16.1802 2.12805 16.1682C2.61884 16.1455 3.11489 16.1214 3.60765 16.0873L3.8866 16.0692C3.90305 16.0692 3.96029 16.0692 4.00897 16.0692C4.23517 16.0688 4.46018 16.1024 4.67674 16.1689C5.09836 16.2983 5.47625 16.5445 5.76818 16.8797C6.06354 17.2263 6.25708 17.6503 6.32674 18.1034C6.34 18.1963 6.34791 18.2898 6.35043 18.3836L6.35964 18.7454C6.35964 18.8323 6.36359 18.9192 6.36293 19.0055C6.36293 19.4896 6.35175 19.9865 6.32346 20.5214C6.25504 21.5447 6.10876 22.561 5.88595 23.5613L5.72608 24.3912C5.70674 24.5169 5.67815 24.641 5.64055 24.7623C5.5896 24.9174 5.51858 25.0649 5.42937 25.201C5.26599 25.4571 5.04031 25.666 4.77416 25.8074C4.50802 25.9488 4.21045 26.018 3.91029 26.0081C3.40371 25.988 2.90699 25.9867 2.43528 26.0048C2.37804 26.0048 2.32673 26.0081 2.27475 26.0115C2.20896 26.0148 2.14317 26.0188 2.07738 26.0188M3.94976 16.3367H3.90963L3.62476 16.3554C3.12936 16.3889 2.63265 16.4143 2.1366 16.4363C1.77909 16.4466 1.43136 16.5573 1.13199 16.7562C0.832608 16.9551 0.593278 17.2344 0.44054 17.5631C0.365566 17.7248 0.313937 17.8966 0.287248 18.0733C0.266086 18.2284 0.26013 18.3852 0.26948 18.5414L0.301062 19.299L0.455005 22.3182C0.485927 22.7963 0.520802 23.3106 0.570802 23.8215L0.636586 24.4474C0.64087 24.4961 0.648794 24.5443 0.660277 24.5918C0.716767 24.8615 0.847762 25.1093 1.0379 25.306C1.21412 25.4926 1.43702 25.6269 1.68265 25.6945C1.46086 25.5928 1.27213 25.4291 1.13856 25.2224C1.01271 25.0227 0.945389 24.7908 0.944483 24.5537C0.944031 24.5177 0.945796 24.4818 0.949753 24.446L1.01159 23.8235C1.06225 23.3126 1.09712 22.7983 1.12804 22.3182L1.31357 18.5461C1.31219 18.4519 1.32281 18.358 1.34515 18.2666C1.36566 18.192 1.39668 18.1208 1.43725 18.0553C1.50973 17.9329 1.6146 17.8337 1.73989 17.769C1.86518 17.7044 2.00584 17.6768 2.14581 17.6895C2.63397 17.7122 3.13265 17.7363 3.62607 17.7704L3.90502 17.7884C3.93046 17.7882 3.95571 17.793 3.97937 17.8025C4.03263 17.8139 4.08358 17.8345 4.13003 17.8633C4.22366 17.9182 4.3006 17.9983 4.35239 18.0947C4.40088 18.1802 4.42566 18.2775 4.4241 18.3762C4.4241 18.3762 4.4241 18.4077 4.4241 18.411L4.41753 18.7454C4.41753 18.8316 4.41424 18.9172 4.41753 19.0028C4.41753 19.4849 4.42805 19.9771 4.45568 20.5074C4.52341 21.517 4.66814 22.5197 4.88858 23.5065L5.03529 24.2635C5.04318 24.3136 5.05042 24.3517 5.057 24.3865C5.0737 24.4605 5.08296 24.536 5.08463 24.6119C5.08765 24.7306 5.0712 24.849 5.03595 24.9623C4.95206 25.2427 4.7681 25.4812 4.52015 25.631C4.80307 25.5131 5.04449 25.3113 5.21292 25.0519C5.28921 24.9347 5.35003 24.8079 5.39384 24.6747C5.4267 24.5652 5.45177 24.4535 5.46884 24.3404L5.62937 23.5052C5.84993 22.5179 5.99467 21.5148 6.06227 20.5047C6.09056 19.9738 6.10305 19.4823 6.10108 19.0015C6.10108 18.9165 6.10109 18.8323 6.0978 18.7494L6.08924 18.3923C6.07642 17.8985 5.89313 17.4251 5.57148 17.0549C5.3123 16.758 4.97736 16.5397 4.60371 16.4243C4.42011 16.3669 4.22933 16.3368 4.03726 16.3347H3.95304M2.08199 17.9543C1.99713 17.9561 1.91409 17.9796 1.84051 18.0226C1.76693 18.0656 1.70518 18.1267 1.66094 18.2004C1.6343 18.2442 1.61413 18.2917 1.60107 18.3415C1.58443 18.4119 1.57691 18.4843 1.5787 18.5568L1.54712 19.3131L1.39383 22.3343C1.3629 22.8177 1.32804 23.3373 1.27606 23.8502L1.21489 24.4721C1.21175 24.4976 1.21043 24.5233 1.21093 24.549C1.21074 24.7364 1.26325 24.9199 1.36225 25.0779C1.46864 25.2419 1.61881 25.3715 1.79514 25.4518C1.97906 25.5241 2.17576 25.5569 2.37278 25.548H2.43857C2.907 25.5661 3.4037 25.5648 3.91489 25.548C4.10962 25.5399 4.29726 25.4715 4.45269 25.352C4.60813 25.2325 4.72394 25.0676 4.78463 24.8793C4.82807 24.7357 4.83261 24.5827 4.79779 24.4367C4.79121 24.3985 4.78265 24.3578 4.77542 24.3083L4.62936 23.5587C4.40636 22.5586 4.26031 21.5425 4.19253 20.5194C4.16424 19.9845 4.15107 19.4883 4.15305 19.0021C4.15305 18.9152 4.15305 18.8256 4.15634 18.7347L4.16291 18.4317C4.16138 18.4168 4.16138 18.4018 4.16291 18.3869C4.16509 18.3302 4.15165 18.2739 4.1241 18.2244C4.09622 18.1705 4.05406 18.1256 4.0024 18.0947C3.97696 18.0789 3.94919 18.0674 3.92016 18.0606C3.9077 18.0577 3.89541 18.0541 3.88332 18.0499L3.61095 18.0359C3.11686 18.0018 2.6241 17.977 2.12738 17.9543C2.11227 17.9534 2.09711 17.9534 2.08199 17.9543Z" fill="#977845"/>
<path d="M45.6653 16.5109L45.7153 16.0273L46.6295 15.8619C46.6295 15.4931 46.6166 9.08 46.6166 8.67303L45.7028 8.50842L45.6671 8.02515H48.7809L48.6804 8.50842L47.7792 8.67412L47.7917 15.863H50.8336L51.1718 14.4379L51.7081 14.3361L51.7957 16.5116L45.6653 16.5109Z" fill="#977845"/>
<path d="M51.7995 16.5937H45.6656C45.6541 16.5937 45.6428 16.5912 45.6324 16.5865C45.622 16.5817 45.6127 16.5748 45.605 16.5662C45.5974 16.5576 45.5916 16.5474 45.588 16.5364C45.5845 16.5253 45.5833 16.5137 45.5844 16.5021L45.6344 16.0185C45.6363 16.0006 45.6439 15.9839 45.6559 15.9708C45.668 15.9577 45.6839 15.9489 45.7013 15.9458L46.5482 15.7928C46.5482 15.4251 46.545 13.9327 46.5421 12.4066C46.5389 10.7922 46.5364 9.13993 46.5357 8.74276L45.6888 8.58978C45.671 8.58646 45.6548 8.57725 45.6427 8.56357C45.6306 8.5499 45.6233 8.53254 45.6219 8.5142L45.5862 8.03092C45.5852 8.01952 45.5866 8.00805 45.5903 7.99723C45.594 7.98641 45.5998 7.97648 45.6074 7.96808C45.615 7.95967 45.6243 7.95297 45.6346 7.9484C45.6449 7.94383 45.6561 7.94149 45.6673 7.94153H48.7844C48.7965 7.94156 48.8085 7.94432 48.8195 7.94959C48.8305 7.95487 48.8402 7.96254 48.848 7.97206C48.8555 7.98173 48.8609 7.99295 48.8637 8.00493C48.8665 8.01691 48.8668 8.02936 48.8644 8.04145L48.7647 8.52474C48.7613 8.54091 48.7532 8.5557 48.7416 8.56727C48.73 8.57883 48.7153 8.58665 48.6993 8.58978L47.8649 8.74276L47.8774 15.7794H50.7731L51.0949 14.4178C51.0987 14.4023 51.1068 14.3882 51.1181 14.3771C51.1295 14.3661 51.1438 14.3585 51.1592 14.3554L51.6976 14.2536C51.7092 14.2514 51.7211 14.2518 51.7325 14.2546C51.7439 14.2575 51.7545 14.2629 51.7637 14.2703C51.7729 14.2778 51.7804 14.2871 51.7857 14.2978C51.791 14.3085 51.794 14.3202 51.7945 14.3321L51.8817 16.5076C51.8822 16.5187 51.8804 16.5299 51.8765 16.5403C51.8726 16.5507 51.8666 16.5603 51.859 16.5683C51.8514 16.5763 51.8423 16.5827 51.8322 16.5871C51.8221 16.5915 51.8112 16.5937 51.8002 16.5937M45.7567 16.428H51.7141L51.634 14.4342L51.2407 14.5069L50.9154 15.8801C50.9111 15.8981 50.9009 15.9142 50.8865 15.9256C50.8721 15.9371 50.8543 15.9433 50.836 15.9433H47.7937C47.783 15.9433 47.7723 15.9412 47.7624 15.937C47.7524 15.9329 47.7434 15.9267 47.7357 15.919C47.7281 15.9113 47.7221 15.9021 47.718 15.892C47.7139 15.8818 47.7118 15.871 47.7119 15.8601L47.6994 8.67117C47.6993 8.65173 47.7061 8.6329 47.7183 8.61801C47.7306 8.60312 47.7477 8.59312 47.7666 8.58978L48.6138 8.4339L48.6821 8.10687H45.7535L45.7796 8.4368L46.6312 8.59123C46.65 8.59464 46.667 8.60466 46.6793 8.61954C46.6916 8.63442 46.6983 8.6532 46.6984 8.67262C46.6984 8.8812 46.7012 10.665 46.7048 12.4059C46.7077 14.0632 46.7109 15.6813 46.7109 15.8615C46.7109 15.881 46.7042 15.8999 46.6919 15.9148C46.6796 15.9298 46.6625 15.9399 46.6437 15.9433L45.7896 16.0973L45.7567 16.428Z" fill="#977845"/>
<path d="M55.243 16.5112C53.3526 16.5112 52.5017 15.1112 52.5017 13.3045C52.5017 11.6377 53.4902 10.0981 55.3935 10.0981C57.284 10.0981 58.1348 11.4978 58.1348 13.2664C58.1348 14.9713 57.146 16.5112 55.243 16.5112ZM55.356 15.9131C56.5715 15.9131 56.9704 14.5516 56.9704 13.4956C56.9704 12.4139 56.7202 10.6977 55.2809 10.6977C54.0654 10.6977 53.6657 12.0592 53.6657 13.1156C53.6657 14.1966 53.916 15.9135 55.356 15.9135" fill="#977845"/>
<path d="M55.2437 16.5942C53.4755 16.5942 52.4194 15.3642 52.4194 13.3046C52.4194 11.7207 53.3489 10.015 55.3931 10.015C57.1609 10.015 58.2173 11.2305 58.2173 13.2664C58.2173 14.8693 57.2875 16.5942 55.2437 16.5942ZM55.3942 10.1811C53.4637 10.1811 52.5839 11.8002 52.5839 13.306C52.5839 15.2621 53.5781 16.431 55.2437 16.431C56.6426 16.431 58.054 15.4536 58.054 13.2697C58.054 11.338 57.0594 10.1843 55.3942 10.1843M55.3563 15.9982C53.7572 15.9982 53.5849 13.9826 53.5849 13.1164C53.5849 11.9623 54.0292 10.6157 55.2812 10.6157C56.8803 10.6157 57.053 12.6316 57.053 13.4979C57.053 14.6516 56.6082 15.9982 55.3563 15.9982ZM55.2794 10.7788C54.1472 10.7788 53.7465 12.0364 53.7465 13.1138C53.7465 14.128 53.9552 15.8296 55.3552 15.8296C56.4874 15.8296 56.8885 14.572 56.8885 13.4954C56.8885 12.4808 56.679 10.7788 55.2794 10.7788Z" fill="#977845"/>
<path d="M63.2556 16.0658L63.9063 15.8877V12.274C63.9063 11.4597 63.5062 11.0651 62.6171 11.0651C62.0725 11.0861 61.5422 11.2488 61.077 11.5375V15.887L61.7405 16.065L61.816 16.5105H59.3135L59.3635 16.065L60.027 15.887V11.1417L59.2134 10.9891V10.5433L60.8904 10.2889L61.0034 10.9252C61.7144 10.5367 62.5005 10.311 63.3064 10.2639C63.5316 10.2573 63.7556 10.2988 63.9641 10.3858C64.1725 10.4727 64.3607 10.6031 64.5164 10.7686C64.6722 10.9341 64.7921 11.1309 64.8683 11.3464C64.9446 11.5619 64.9755 11.7913 64.9591 12.0197V15.887L65.6351 16.065L65.7227 16.5105H63.2202L63.2556 16.0658Z" fill="#977845"/>
<path d="M65.7218 16.5941H63.2193C63.2081 16.5942 63.1969 16.5918 63.1865 16.5872C63.1762 16.5826 63.1669 16.5759 63.1593 16.5675C63.1516 16.559 63.1458 16.549 63.1422 16.5382C63.1386 16.5273 63.1372 16.5158 63.1382 16.5044L63.1739 16.0589C63.1754 16.042 63.1819 16.0259 63.1927 16.0129C63.2034 15.9999 63.2178 15.9906 63.234 15.9862L63.8249 15.8245V12.2744C63.8249 11.4957 63.4524 11.148 62.6173 11.148C62.103 11.1678 61.6017 11.3177 61.1587 11.584V15.8223L61.7615 15.984C61.7765 15.9882 61.7901 15.9966 61.8006 16.0083C61.8111 16.02 61.8181 16.0345 61.8208 16.0502L61.8962 16.4956C61.8982 16.5075 61.8976 16.5197 61.8945 16.5313C61.8914 16.5429 61.8858 16.5536 61.8782 16.5628C61.8706 16.572 61.8611 16.5794 61.8504 16.5845C61.8397 16.5896 61.828 16.5923 61.8162 16.5923H59.3137C59.3022 16.5924 59.2908 16.5899 59.2803 16.5851C59.2698 16.5802 59.2605 16.5732 59.2529 16.5643C59.2451 16.5558 59.2392 16.5456 59.2357 16.5345C59.2321 16.5234 59.2311 16.5116 59.2325 16.5L59.2826 16.0545C59.2841 16.0376 59.2907 16.0215 59.3015 16.0085C59.3123 15.9955 59.3268 15.9862 59.343 15.9818L59.9454 15.8201V11.2054L59.1986 11.0655C59.1797 11.0619 59.1627 11.0518 59.1505 11.0369C59.1382 11.022 59.1314 11.0032 59.1313 10.9837V10.5379C59.1314 10.5181 59.1384 10.4989 59.1511 10.4839C59.1639 10.4689 59.1814 10.4591 59.2007 10.4561L60.8781 10.2017C60.8885 10.1999 60.8991 10.2002 60.9094 10.2026C60.9197 10.205 60.9294 10.2095 60.938 10.2158C60.9466 10.222 60.9539 10.2299 60.9594 10.2391C60.965 10.2482 60.9687 10.2584 60.9703 10.269L61.0647 10.8006C61.7579 10.4284 62.5229 10.215 63.3059 10.1752C63.5416 10.1693 63.776 10.2134 63.994 10.3047C64.2121 10.396 64.409 10.5325 64.5722 10.7056C64.7354 10.8786 64.8613 11.0843 64.9418 11.3096C65.0224 11.5348 65.0559 11.7747 65.0401 12.0139V15.8223L65.6546 15.9844C65.6694 15.9883 65.6829 15.9964 65.6934 16.0077C65.704 16.019 65.7112 16.0331 65.7143 16.0483L65.8019 16.4938C65.8044 16.5058 65.8041 16.5183 65.8013 16.5302C65.7984 16.5421 65.7929 16.5532 65.7853 16.5627C65.7776 16.5722 65.768 16.5799 65.7571 16.5851C65.7462 16.5904 65.7343 16.5931 65.7222 16.593M63.3073 16.4273H65.6224L65.5642 16.1323L64.9375 15.9677C64.92 15.9631 64.9045 15.9527 64.8934 15.9382C64.8823 15.9236 64.8763 15.9057 64.8763 15.8874V12.0193C64.8936 11.8017 64.8653 11.5829 64.7935 11.3772C64.7216 11.1715 64.6078 10.9836 64.4595 10.8257C64.3111 10.6679 64.1316 10.5437 63.9328 10.4614C63.7339 10.379 63.5201 10.3403 63.3055 10.3478C62.5362 10.3903 61.7853 10.6029 61.1051 10.9706L61.0357 11.0022C61.0244 11.0073 61.0121 11.0098 60.9997 11.0093C60.9873 11.0089 60.9752 11.0056 60.9642 10.9997C60.9533 10.9939 60.9438 10.9856 60.9366 10.9754C60.9293 10.9653 60.9245 10.9536 60.9224 10.9412L60.8237 10.3849L59.2944 10.6167V10.9216L60.0412 11.0615C60.06 11.065 60.077 11.0751 60.0893 11.0901C60.1015 11.105 60.1083 11.1238 60.1084 11.1432V15.8877C60.1083 15.9061 60.1023 15.9239 60.0913 15.9385C60.0802 15.953 60.0647 15.9634 60.0473 15.968L59.4377 16.1315L59.4045 16.4284H61.7196L61.6699 16.1323L61.0565 15.9677C61.039 15.9631 61.0235 15.9527 61.0124 15.9382C61.0013 15.9236 60.9953 15.9057 60.9953 15.8874V11.5346C60.9952 11.5209 60.9984 11.5074 61.0046 11.4953C61.0109 11.4832 61.02 11.4729 61.0311 11.4652C61.5091 11.1672 62.0551 11.0005 62.6155 10.9812C63.5379 10.9812 63.9865 11.4041 63.9865 12.2733V15.887C63.9867 15.9053 63.981 15.9231 63.9702 15.9376C63.9594 15.9522 63.9441 15.9628 63.9268 15.9677L63.3312 16.1312L63.3073 16.4273Z" fill="#977845"/>
<path d="M71.7314 15.6315L72.4464 15.8859L72.509 16.331L70.8566 16.5094L70.6936 15.8859V15.8986C70.1438 16.2211 69.5344 16.4246 68.9036 16.4963C67.4518 16.4963 66.6514 15.3895 66.6514 13.71C66.6514 11.7758 67.5773 10.084 69.7555 10.084C70.0701 10.0809 70.3843 10.1064 70.6943 10.1603V8.13705L69.8685 7.98444V7.53968L71.721 7.25952C71.7339 11.6744 71.7339 15.3263 71.7339 15.6319M70.6943 15.3775V10.951C70.3378 10.8001 69.9543 10.7259 69.5682 10.733C68.3659 10.733 67.7278 11.7504 67.7278 13.1759C67.7278 14.3209 67.9423 15.67 69.3301 15.67C69.7955 15.6332 70.2539 15.5349 70.6943 15.3775Z" fill="#977845"/>
<path d="M70.8549 16.5938C70.8369 16.5937 70.8194 16.5876 70.8052 16.5765C70.791 16.5653 70.7808 16.5497 70.7762 16.532L70.6425 16.0233C70.105 16.3262 69.513 16.5164 68.9018 16.5825C67.4397 16.5825 66.5674 15.5098 66.5674 13.7119C66.5674 11.9139 67.4039 10.003 69.7531 10.003C70.0402 10.0009 70.327 10.0215 70.611 10.0644V8.20867L69.8521 8.0684C69.8332 8.06497 69.8162 8.0549 69.804 8.03994C69.7917 8.02497 69.7851 8.0061 69.7852 7.98665V7.54152C69.7852 7.52166 69.7922 7.50243 69.8049 7.48735C69.8176 7.47228 69.8353 7.46236 69.8546 7.4594L71.7071 7.17961C71.7187 7.17773 71.7306 7.17845 71.7419 7.18171C71.7532 7.18498 71.7637 7.19071 71.7726 7.1985C71.7814 7.20633 71.7885 7.21598 71.7934 7.22682C71.7982 7.23767 71.8008 7.24945 71.8008 7.26137C71.8126 11.4841 71.8133 15.0087 71.8133 15.5749L72.4725 15.81C72.4866 15.815 72.4991 15.8238 72.5085 15.8356C72.518 15.8473 72.5241 15.8614 72.5262 15.8765L72.5887 16.3216C72.5902 16.3326 72.5896 16.3438 72.5868 16.3546C72.584 16.3653 72.5791 16.3754 72.5725 16.3842C72.5658 16.393 72.5575 16.4004 72.548 16.406C72.5385 16.4115 72.5281 16.415 72.5172 16.4164L70.8645 16.5945H70.8559M70.6954 15.8111C70.7124 15.8101 70.7292 15.815 70.743 15.8251C70.7569 15.8351 70.767 15.8497 70.7716 15.8663L70.9167 16.4215L72.4153 16.2598L72.3721 15.9495L71.7053 15.7119C71.6894 15.7061 71.6755 15.6955 71.6657 15.6815C71.6559 15.6674 71.6507 15.6506 71.6507 15.6334C71.6507 15.33 71.6507 11.729 71.6385 7.35765L69.9486 7.61202V7.91616L70.7079 8.05678C70.7267 8.0602 70.7437 8.07023 70.7559 8.08511C70.7682 8.1 70.7748 8.11878 70.7748 8.13817V10.161C70.7748 10.1732 70.7722 10.1853 70.7671 10.1963C70.7621 10.2074 70.7547 10.2172 70.7455 10.225C70.7363 10.2328 70.7255 10.2385 70.7138 10.2416C70.7022 10.2447 70.6901 10.2451 70.6783 10.2428C70.373 10.19 70.0637 10.165 69.7541 10.168C67.8615 10.168 66.7315 11.4921 66.7315 13.7112C66.7315 15.4045 67.543 16.415 68.9026 16.415C69.5125 16.343 70.1018 16.1463 70.635 15.8369C70.6472 15.8229 70.664 15.8137 70.6822 15.8111H70.6954ZM69.3283 15.7544C67.6438 15.7544 67.6438 13.8151 67.6438 13.1777C67.6438 11.62 68.3803 10.6516 69.5661 10.6516C69.9632 10.6453 70.3575 10.7213 70.7247 10.8751C70.7394 10.8814 70.7519 10.892 70.7606 10.9055C70.7694 10.919 70.7741 10.9348 70.7741 10.951V15.3794C70.7733 15.4017 70.764 15.4229 70.7481 15.4384C70.7322 15.4539 70.711 15.4624 70.689 15.4622C70.6704 15.467 70.6357 15.4789 70.5896 15.4946C70.1842 15.6448 69.7593 15.7324 69.3283 15.7544ZM69.5661 10.8177C68.4814 10.8177 67.8072 11.7221 67.8072 13.1777C67.8072 14.8223 68.2909 15.5887 69.3283 15.5887C69.7418 15.5664 70.1497 15.4815 70.5385 15.3369L70.61 15.3125V11.0059C70.277 10.8749 69.9223 10.8109 69.5654 10.8173" fill="#977845"/>
<path d="M76.3692 16.5112C74.4788 16.5112 73.6279 15.1112 73.6279 13.3045C73.6279 11.6377 74.6168 10.0981 76.5201 10.0981C78.4102 10.0981 79.2614 11.4978 79.2614 13.2664C79.2614 14.9713 78.2725 16.5112 76.3692 16.5112ZM76.4822 15.9131C77.6977 15.9131 78.097 14.5516 78.097 13.4956C78.097 12.4139 77.8468 10.6977 76.4071 10.6977C75.1916 10.6977 74.7923 12.0592 74.7923 13.1156C74.7923 14.1966 75.0426 15.9135 76.4822 15.9135" fill="#977845"/>
<path d="M76.3692 16.5942C74.6013 16.5942 73.5449 15.3642 73.5449 13.3046C73.5449 11.7207 74.4744 10.015 76.5186 10.015C78.2864 10.015 79.3428 11.2305 79.3428 13.2664C79.3428 14.8693 78.4133 16.5942 76.3692 16.5942ZM76.5197 10.1811C74.5892 10.1811 73.709 11.8002 73.709 13.306C73.709 15.2621 74.7032 16.431 76.3688 16.431C77.768 16.431 79.1791 15.4536 79.1791 13.2697C79.1791 11.338 78.1845 10.1843 76.5197 10.1843M76.4814 15.9982C74.8823 15.9982 74.71 13.9826 74.71 13.1164C74.71 11.9623 75.1544 10.6157 76.4063 10.6157C78.0054 10.6157 78.1781 12.6316 78.1781 13.4979C78.1781 14.6516 77.7337 15.9982 76.4814 15.9982ZM76.4063 10.7814C75.2745 10.7814 74.8734 12.039 74.8734 13.1164C74.8734 14.1305 75.0822 15.8322 76.4821 15.8322C77.6143 15.8322 78.0158 14.5746 78.0158 13.4979C78.0158 12.4834 77.8067 10.7814 76.4071 10.7814" fill="#977845"/>
<path d="M84.3925 16.0658L85.0435 15.8877V12.274C85.0435 11.4597 84.6431 11.0651 83.7543 11.0651C83.2097 11.0862 82.6794 11.2488 82.2142 11.5375V15.887L82.8777 16.065L82.9532 16.5105H80.4507L80.5011 16.065L81.1642 15.887V11.1418L80.3506 10.9891V10.5433L82.0276 10.2889L82.1406 10.9252C82.8517 10.5368 83.6377 10.3111 84.4436 10.2639C84.6688 10.2573 84.8929 10.2988 85.1014 10.3857C85.3099 10.4726 85.4981 10.603 85.6539 10.7685C85.8097 10.934 85.9296 11.1308 86.0058 11.3463C86.0821 11.5618 86.113 11.7912 86.0967 12.0197V15.887L86.7727 16.065L86.8599 16.5105H84.3574L84.3925 16.0658Z" fill="#977845"/>
<path d="M86.858 16.5941H84.3555C84.3442 16.5942 84.333 16.5918 84.3227 16.5872C84.3123 16.5826 84.303 16.5759 84.2954 16.5675C84.2878 16.559 84.282 16.549 84.2783 16.5382C84.2747 16.5273 84.2733 16.5158 84.2743 16.5044L84.3101 16.0589C84.3115 16.042 84.318 16.026 84.3286 16.013C84.3393 16 84.3537 15.9906 84.3698 15.9862L84.9607 15.8245V12.2744C84.9607 11.4957 84.5882 11.148 83.7534 11.148C83.2393 11.1678 82.7381 11.3177 82.2952 11.584V15.8223L82.8976 15.984C82.9127 15.9882 82.9263 15.9966 82.9368 16.0083C82.9473 16.02 82.9543 16.0345 82.9569 16.0502L83.0327 16.4956C83.0347 16.5075 83.0341 16.5197 83.031 16.5313C83.0278 16.543 83.0223 16.5538 83.0146 16.563C83.0069 16.5722 82.9974 16.5796 82.9866 16.5846C82.9759 16.5897 82.9642 16.5923 82.9523 16.5923H80.4498C80.4384 16.5922 80.427 16.5897 80.4166 16.5849C80.4062 16.5801 80.3968 16.5731 80.3892 16.5644C80.3816 16.5557 80.3759 16.5455 80.3724 16.5344C80.3689 16.5233 80.3678 16.5116 80.369 16.5L80.4191 16.0545C80.4206 16.0376 80.4272 16.0215 80.438 16.0085C80.4488 15.9955 80.4633 15.9862 80.4795 15.9818L81.0822 15.8201V11.2054L80.3354 11.0655C80.3167 11.0618 80.2997 11.0517 80.2875 11.0368C80.2753 11.0219 80.2686 11.0031 80.2686 10.9837V10.5379C80.2686 10.5181 80.2756 10.4989 80.2883 10.4839C80.3011 10.4689 80.3186 10.4591 80.3379 10.4561L82.0153 10.2017C82.0257 10.1997 82.0364 10.1999 82.0468 10.2022C82.0572 10.2045 82.067 10.2089 82.0756 10.2152C82.0842 10.2215 82.0915 10.2295 82.097 10.2388C82.1025 10.248 82.1061 10.2583 82.1075 10.269L82.2019 10.8006C82.8951 10.4284 83.6601 10.215 84.4431 10.1752C84.6788 10.1693 84.9132 10.2134 85.1312 10.3047C85.3493 10.396 85.5462 10.5325 85.7094 10.7056C85.8726 10.8786 85.9985 11.0843 86.079 11.3096C86.1596 11.5348 86.1931 11.7747 86.1773 12.0139V15.8223L86.7922 15.9844C86.807 15.9883 86.8205 15.9964 86.831 16.0077C86.8416 16.019 86.8488 16.0331 86.8519 16.0483L86.9391 16.4938C86.9416 16.5058 86.9413 16.5183 86.9385 16.5302C86.9356 16.5421 86.9301 16.5532 86.9225 16.5627C86.9149 16.5722 86.9052 16.5799 86.8943 16.5851C86.8834 16.5904 86.8715 16.5931 86.8594 16.593M84.4445 16.4273H86.76L86.7014 16.1323L86.074 15.9677C86.0565 15.9631 86.041 15.9527 86.0299 15.9382C86.0188 15.9236 86.0128 15.9057 86.0128 15.8874V12.0193C86.0301 11.8015 86.0018 11.5825 85.9298 11.3767C85.8578 11.1708 85.7438 10.9828 85.5952 10.8249C85.4467 10.667 85.2669 10.5429 85.0678 10.4607C84.8686 10.3784 84.6546 10.34 84.4398 10.3478C83.6707 10.3903 82.9198 10.6028 82.2398 10.9706L82.1683 11.0022C82.157 11.0074 82.1447 11.0099 82.1323 11.0094C82.1199 11.009 82.1077 11.0056 82.0968 10.9997C82.0859 10.9939 82.0764 10.9856 82.0691 10.9754C82.0619 10.9653 82.057 10.9536 82.055 10.9412L81.9559 10.3849L80.4266 10.6167V10.9216L81.1734 11.0615C81.1922 11.065 81.2092 11.0751 81.2215 11.0901C81.2337 11.105 81.2405 11.1238 81.2406 11.1432V15.8877C81.2405 15.9061 81.2345 15.9239 81.2235 15.9385C81.2124 15.953 81.1969 15.9634 81.1795 15.968L80.5717 16.1315L80.5385 16.4284H82.8536L82.8039 16.1323L82.1926 15.9677C82.1751 15.9631 82.1596 15.9527 82.1485 15.9382C82.1375 15.9236 82.1315 15.9057 82.1315 15.8874V11.5346C82.1313 11.5209 82.1345 11.5074 82.1408 11.4953C82.147 11.4832 82.1561 11.4729 82.1672 11.4652C82.6459 11.1672 83.1925 11.0007 83.7534 10.9819C84.6754 10.9819 85.1241 11.4049 85.1241 12.274V15.8877C85.1241 15.906 85.1182 15.9237 85.1073 15.9382C85.0964 15.9526 85.081 15.963 85.0637 15.9677L84.4677 16.1312L84.4445 16.4273Z" fill="#977845"/>
<path d="M96.5291 12.5418H92.3342V15.8626L93.1103 16.028L93.1976 16.5116H90.3308L90.3808 16.028L91.1695 15.8626V8.67303L90.3801 8.50842L90.3301 8.02515H93.1969L93.1096 8.50842L92.3335 8.67412V11.8932H96.5291V8.67412L95.7405 8.50842L95.6904 8.02515H98.5572L98.4696 8.50842L97.6931 8.67412V15.8634L98.4696 16.0287L98.5572 16.5123H95.689L95.739 16.0287L96.5277 15.8634L96.5291 12.5418Z" fill="#977845"/>
<path d="M98.5559 16.5937H95.6892C95.6777 16.5936 95.6665 16.5912 95.656 16.5864C95.6456 16.5817 95.6363 16.5748 95.6286 16.5662C95.621 16.5576 95.6152 16.5474 95.6117 16.5364C95.6081 16.5253 95.6069 16.5137 95.608 16.5021L95.6581 16.0185C95.6599 16.001 95.6671 15.9845 95.6788 15.9714C95.6904 15.9584 95.7058 15.9494 95.7228 15.9458L96.4463 15.7939V12.6224H92.4155V15.7928L93.1266 15.9444C93.1424 15.9478 93.1569 15.9559 93.1682 15.9677C93.1796 15.9794 93.1872 15.9943 93.1902 16.0105L93.2778 16.4941C93.28 16.5061 93.2795 16.5184 93.2765 16.5301C93.2734 16.5419 93.2678 16.5529 93.2602 16.5622C93.2525 16.5715 93.2429 16.579 93.232 16.5841C93.2212 16.5893 93.2094 16.5919 93.1974 16.5919H90.3306C90.3192 16.5919 90.3079 16.5895 90.2975 16.5847C90.287 16.58 90.2777 16.573 90.2702 16.5643C90.2625 16.5557 90.2567 16.5455 90.2532 16.5345C90.2496 16.5235 90.2483 16.5118 90.2495 16.5003L90.2995 16.0167C90.3013 15.9991 90.3086 15.9827 90.3202 15.9696C90.3318 15.9566 90.3473 15.9476 90.3642 15.944L91.0878 15.7921V8.74093L90.3642 8.58904C90.3473 8.58535 90.332 8.57635 90.3203 8.56331C90.3087 8.55027 90.3014 8.53384 90.2995 8.51637L90.2495 8.03309C90.2483 8.02149 90.2495 8.00976 90.2531 7.99868C90.2566 7.9876 90.2625 7.97741 90.2702 7.96877C90.2777 7.96004 90.287 7.95305 90.2975 7.94828C90.3079 7.94352 90.3192 7.94108 90.3306 7.94115H93.1974C93.2094 7.94104 93.2213 7.94365 93.2322 7.94878C93.2431 7.95391 93.2528 7.96145 93.2605 7.97084C93.2682 7.98023 93.2737 7.99123 93.2767 8.00306C93.2797 8.0149 93.2801 8.02727 93.2778 8.03927L93.1902 8.52254C93.1872 8.53876 93.1796 8.55371 93.1683 8.56554C93.157 8.57736 93.1425 8.58554 93.1266 8.58904L92.4155 8.74057V11.8089H96.446V8.74057L95.7224 8.58868C95.7055 8.58498 95.6901 8.57598 95.6785 8.56294C95.6669 8.5499 95.6596 8.53348 95.6577 8.516L95.6076 8.03272C95.6064 8.02115 95.6076 8.00945 95.6112 7.99837C95.6147 7.9873 95.6205 7.97709 95.6281 7.96843C95.6358 7.95977 95.6451 7.95283 95.6556 7.94807C95.666 7.94331 95.6773 7.94083 95.6888 7.9408H98.5556C98.5675 7.94083 98.5792 7.94348 98.59 7.94856C98.6008 7.95364 98.6104 7.96103 98.6181 7.97023C98.6257 7.97973 98.6312 7.99078 98.6342 8.00263C98.6373 8.01448 98.6377 8.02685 98.6357 8.0389L98.5481 8.52218C98.5451 8.53836 98.5376 8.55331 98.5263 8.56514C98.5151 8.57697 98.5006 8.58516 98.4848 8.58868L97.773 8.7402V15.7946L98.4844 15.9462C98.5003 15.9495 98.5148 15.9576 98.5261 15.9694C98.5374 15.9812 98.5451 15.9961 98.5481 16.0123L98.6357 16.4959C98.6377 16.5079 98.6372 16.5201 98.6342 16.5319C98.6312 16.5436 98.6257 16.5545 98.6181 16.5639C98.6105 16.5732 98.6009 16.5807 98.5901 16.5858C98.5793 16.591 98.5675 16.5937 98.5556 16.5937M95.7792 16.428H98.4573L98.3968 16.097L97.6743 15.9436C97.656 15.9396 97.6396 15.9294 97.6278 15.9146C97.616 15.8997 97.6096 15.8813 97.6096 15.8622V8.67334C97.6097 8.65432 97.6161 8.63588 97.6279 8.62108C97.6397 8.60628 97.6561 8.596 97.6743 8.59195L98.3972 8.43824L98.4576 8.10758H95.7796L95.8154 8.43898L96.5461 8.59195C96.5645 8.59587 96.581 8.60609 96.5928 8.62091C96.6047 8.63573 96.6111 8.65425 96.6111 8.67334V11.8924C96.6111 11.9144 96.6026 11.9355 96.5873 11.951C96.572 11.9666 96.5513 11.9753 96.5296 11.9753H92.3344C92.3128 11.9753 92.292 11.9666 92.2768 11.951C92.2615 11.9355 92.2529 11.9144 92.2529 11.8924V8.67334C92.2529 8.65432 92.2594 8.63588 92.2712 8.62108C92.2829 8.60628 92.2993 8.596 92.3176 8.59195L93.0401 8.43824L93.1002 8.10758H90.4218L90.4575 8.43898L91.1879 8.59195C91.2063 8.59593 91.2227 8.60617 91.2346 8.62098C91.2464 8.63579 91.2529 8.65427 91.253 8.67334V15.8622C91.2529 15.8813 91.2465 15.8998 91.2346 15.9147C91.2228 15.9295 91.2063 15.9397 91.1879 15.9436L90.4575 16.0962L90.4218 16.428H93.1002L93.0401 16.097L92.3176 15.9436C92.2993 15.9396 92.2828 15.9294 92.2711 15.9146C92.2593 15.8997 92.2529 15.8813 92.2529 15.8622V12.5414C92.253 12.5195 92.2616 12.4984 92.2769 12.4829C92.2921 12.4674 92.3128 12.4586 92.3344 12.4586H96.5282C96.5498 12.4586 96.5705 12.4674 96.5857 12.4829C96.601 12.4984 96.6096 12.5195 96.6097 12.5414V15.8622C96.6097 15.8813 96.6032 15.8998 96.5914 15.9147C96.5795 15.9295 96.563 15.9397 96.5446 15.9436L95.8139 16.0962L95.7792 16.428Z" fill="#977845"/>
<path d="M101.811 16.5112C99.8329 16.5112 99.1318 14.8826 99.1318 13.3561C99.1318 11.0909 100.584 10.0989 101.885 10.0989C104.2 10.0989 104.175 12.0709 104.175 12.4397C104.178 12.6397 104.166 12.8396 104.139 13.0378C104.139 13.0378 101.523 13.0887 100.259 13.1014C100.259 14.4371 100.723 15.6591 102.074 15.6591C103.375 15.6591 103.964 15.2772 103.964 15.2772C103.964 15.2772 104.102 15.7496 104.102 15.7351C103.437 16.2315 102.636 16.503 101.811 16.5112ZM100.284 12.5927C100.985 12.5287 103.05 12.3122 103.05 12.3122V12.1595C103.05 11.7395 102.963 10.6581 101.861 10.6581C100.759 10.6581 100.372 11.5745 100.284 12.5923" fill="#977845"/>
<path d="M101.81 16.5941C99.7748 16.5941 99.0498 14.9226 99.0498 13.3561C99.0498 11.0607 100.52 10.0156 101.885 10.0156C102.886 10.0156 103.585 10.3717 103.962 11.0748C104.169 11.4942 104.271 11.9591 104.258 12.428C104.26 12.6366 104.248 12.845 104.22 13.0516C104.216 13.0708 104.207 13.0883 104.192 13.101C104.178 13.1137 104.159 13.1209 104.14 13.1213C104.115 13.1213 101.618 13.17 100.34 13.1835C100.353 14.1148 100.609 15.5763 102.073 15.5763C102.709 15.6151 103.345 15.4883 103.919 15.2078C103.93 15.201 103.942 15.1968 103.954 15.1955C103.967 15.1941 103.979 15.1957 103.991 15.2002C104.003 15.2045 104.013 15.2117 104.022 15.2211C104.03 15.2304 104.037 15.2417 104.04 15.254C104.086 15.4087 104.16 15.6602 104.173 15.7002C104.181 15.7169 104.183 15.7357 104.179 15.7536C104.175 15.7716 104.165 15.7876 104.151 15.7994C103.473 16.3097 102.652 16.5878 101.809 16.5937M101.884 10.1813C100.597 10.1813 99.211 11.1744 99.211 13.3557C99.211 14.8404 99.8935 16.428 101.809 16.428C102.596 16.4172 103.362 16.1645 104.005 15.7031C103.984 15.6398 103.955 15.5436 103.912 15.3986C103.331 15.6508 102.702 15.768 102.071 15.7416C100.866 15.7416 100.174 14.779 100.174 13.101C100.174 13.0791 100.183 13.058 100.198 13.0424C100.213 13.0268 100.234 13.018 100.255 13.0178C101.39 13.0065 103.64 12.9636 104.066 12.9556C104.084 12.7841 104.094 12.6116 104.093 12.4389C104.107 11.9938 104.012 11.5522 103.817 11.1533C103.471 10.508 102.82 10.181 101.884 10.181M100.281 12.6748C100.26 12.6746 100.239 12.6659 100.224 12.6504C100.215 12.6419 100.209 12.6315 100.205 12.6201C100.2 12.6086 100.199 12.5964 100.2 12.5843C100.313 11.2692 100.887 10.5745 101.858 10.5745C103.006 10.5745 103.129 11.6828 103.129 12.1588V12.3114C103.129 12.3317 103.122 12.3514 103.109 12.3667C103.096 12.3819 103.078 12.3917 103.058 12.3942C103.037 12.3961 100.984 12.6123 100.29 12.6744H100.283M101.86 10.7402C100.997 10.7402 100.498 11.3321 100.373 12.5C101.056 12.4357 102.612 12.2736 102.968 12.2369V12.1591C102.968 11.6297 102.825 10.742 101.859 10.742" fill="#977845"/>
<path d="M108.882 12.9734V11.5872C108.882 10.9378 108.406 10.7979 107.805 10.7979C107.43 10.8011 107.062 10.9068 106.741 11.1039L106.39 12.2616H105.802L105.727 10.6711C106.562 10.3367 107.447 10.1515 108.343 10.1239C109.22 10.1239 109.933 10.6326 109.933 11.8161V15.5951L110.659 15.8619L110.722 16.3073L109.132 16.4858L108.944 15.7478C108.327 16.1885 107.605 16.4522 106.854 16.5108C106.65 16.5206 106.447 16.4866 106.257 16.4111C106.067 16.3355 105.895 16.2201 105.752 16.0724C105.609 15.9247 105.498 15.7481 105.427 15.5539C105.356 15.3598 105.326 15.1526 105.339 14.9458C105.339 14.1442 105.714 13.4444 106.791 13.2787L108.882 12.9734ZM108.882 13.5588L107.416 13.8005C106.815 13.8898 106.464 14.2205 106.464 14.8313C106.464 15.6584 106.99 15.7343 107.241 15.7343C107.826 15.7158 108.394 15.5307 108.881 15.2002L108.882 13.5588Z" fill="#977845"/>
<path d="M106.853 16.5937C106.639 16.6042 106.425 16.5685 106.225 16.4891C106.025 16.4096 105.843 16.2881 105.693 16.1326C105.542 15.9771 105.425 15.791 105.35 15.5865C105.275 15.382 105.244 15.1637 105.257 14.9459C105.244 14.7293 105.272 14.5122 105.341 14.3069C105.41 14.1016 105.519 13.9123 105.66 13.7497C105.802 13.5871 105.973 13.4546 106.165 13.3597C106.357 13.2648 106.566 13.2093 106.779 13.1966L108.8 12.9016V11.5865C108.8 11.0847 108.512 10.8801 107.805 10.8801C107.455 10.8845 107.113 10.9798 106.81 11.157L106.468 12.2835C106.463 12.3005 106.453 12.3154 106.438 12.326C106.424 12.3365 106.407 12.3423 106.39 12.3423H105.802C105.781 12.3423 105.76 12.334 105.745 12.3193C105.73 12.3046 105.721 12.2845 105.72 12.2631L105.645 10.6727C105.644 10.6557 105.648 10.6388 105.657 10.6245C105.666 10.6101 105.679 10.5989 105.695 10.5924C106.54 10.2548 107.435 10.0673 108.343 10.0382C109.39 10.0382 110.014 10.7021 110.014 11.8136V15.5345L110.686 15.7816C110.7 15.7865 110.713 15.7953 110.722 15.807C110.731 15.8187 110.738 15.8328 110.739 15.8477L110.802 16.2932C110.804 16.3042 110.803 16.3153 110.8 16.326C110.798 16.3367 110.793 16.3467 110.786 16.3554C110.779 16.3643 110.771 16.3717 110.761 16.3772C110.752 16.3827 110.741 16.3861 110.731 16.3874L109.14 16.5654C109.121 16.5671 109.102 16.5619 109.086 16.5507C109.07 16.5395 109.058 16.523 109.052 16.504L108.894 15.8804C108.288 16.2982 107.584 16.5437 106.853 16.5916M107.805 10.7126C108.302 10.7126 108.963 10.8031 108.963 11.5847V12.9713C108.963 12.9915 108.956 13.0109 108.943 13.0261C108.929 13.0412 108.911 13.0509 108.892 13.0534L106.801 13.3587C105.657 13.5345 105.419 14.3176 105.419 14.9437C105.406 15.1394 105.435 15.3356 105.502 15.5195C105.569 15.7033 105.674 15.8707 105.809 16.0106C105.945 16.1505 106.107 16.2598 106.287 16.3314C106.467 16.4029 106.659 16.4351 106.852 16.4259C107.586 16.3661 108.292 16.108 108.895 15.6781C108.906 15.6704 108.918 15.6655 108.931 15.6636C108.945 15.6618 108.958 15.6631 108.971 15.6675C108.983 15.6722 108.994 15.6799 109.003 15.6899C109.012 15.6999 109.019 15.7119 109.022 15.7249L109.192 16.3935L110.628 16.2322L110.584 15.9215L109.905 15.6715C109.889 15.6656 109.875 15.655 109.866 15.641C109.856 15.6271 109.851 15.6104 109.851 15.5934V11.8144C109.851 10.7915 109.301 10.205 108.343 10.205C107.476 10.232 106.62 10.4075 105.811 10.7242L105.879 12.1777H106.33L106.662 11.0789C106.667 11.0605 106.679 11.0446 106.695 11.0338C107.029 10.8275 107.412 10.7171 107.803 10.7144M107.24 15.8172C106.918 15.8172 106.382 15.6893 106.382 14.831C106.375 14.6893 106.396 14.5475 106.444 14.4141C106.492 14.2807 106.565 14.1585 106.661 14.0547C106.756 13.9509 106.871 13.8676 106.998 13.8098C107.126 13.7519 107.264 13.7207 107.403 13.718L108.867 13.4764C108.878 13.4746 108.89 13.4753 108.901 13.4786C108.913 13.4818 108.923 13.4876 108.932 13.4953C108.941 13.5031 108.948 13.5127 108.953 13.5235C108.958 13.5344 108.961 13.5462 108.961 13.5582V15.1995C108.961 15.3448 108.026 15.8172 107.24 15.8172ZM108.798 13.6563L107.428 13.8827C106.842 13.9691 106.545 14.2882 106.545 14.831C106.545 15.3739 106.779 15.6515 107.24 15.6515C107.793 15.6305 108.33 15.4616 108.798 15.1621L108.798 13.6563Z" fill="#977845"/>
<path d="M115.826 12.2224H115.238L114.887 11.2049C114.42 11.201 113.956 11.2918 113.523 11.472V15.888L114.55 16.0661L114.624 16.5112H111.745L111.795 16.0661L112.472 15.888V11.1537H112.459L111.721 11.0011V10.5563L113.335 10.2504L113.435 10.8485C114.006 10.5924 114.608 10.4169 115.226 10.3267C115.462 10.3175 115.697 10.3609 115.914 10.4539L115.826 12.2224Z" fill="#977845"/>
<path d="M114.625 16.5938H111.746C111.734 16.5938 111.723 16.5913 111.712 16.5865C111.702 16.5817 111.692 16.5746 111.685 16.5658C111.677 16.5572 111.671 16.547 111.668 16.5359C111.664 16.5248 111.663 16.5131 111.665 16.5015L111.715 16.056C111.716 16.039 111.723 16.0229 111.734 16.0099C111.745 15.9969 111.76 15.9876 111.776 15.9833L112.39 15.8213V11.2243L111.705 11.0829C111.686 11.079 111.67 11.0688 111.658 11.054C111.646 11.0392 111.64 11.0206 111.64 11.0016V10.5546C111.64 10.5353 111.646 10.5166 111.659 10.5016C111.671 10.4867 111.687 10.4766 111.706 10.4729L113.321 10.1673C113.332 10.1653 113.342 10.1655 113.353 10.1678C113.363 10.1701 113.373 10.1745 113.382 10.1807C113.391 10.1869 113.399 10.1949 113.405 10.2042C113.41 10.2135 113.414 10.224 113.416 10.2349L113.499 10.7276C114.05 10.4853 114.631 10.322 115.226 10.2425C115.469 10.2374 115.71 10.2817 115.936 10.3726C115.949 10.3765 115.962 10.3839 115.971 10.394C115.981 10.4034 115.988 10.4149 115.992 10.4275C115.996 10.4401 115.997 10.4536 115.995 10.4667L115.907 12.2265C115.906 12.2477 115.897 12.2677 115.882 12.2824C115.867 12.2971 115.847 12.3053 115.826 12.3053H115.239C115.222 12.3054 115.205 12.3001 115.191 12.2902C115.177 12.2803 115.167 12.2663 115.161 12.2501L114.83 11.2875C114.411 11.2924 113.996 11.3735 113.605 11.527V15.8166L114.564 15.9833C114.58 15.9862 114.596 15.9942 114.607 16.0063C114.619 16.0185 114.627 16.034 114.63 16.0509L114.705 16.4964C114.707 16.5083 114.707 16.5204 114.703 16.532C114.7 16.5436 114.695 16.5544 114.687 16.5636C114.68 16.5728 114.67 16.5802 114.659 16.5853C114.649 16.5904 114.637 16.593 114.625 16.5931M111.837 16.4274H114.527L114.479 16.1367L113.51 15.9688C113.491 15.9656 113.473 15.9557 113.461 15.9408C113.448 15.9259 113.442 15.907 113.441 15.8874V11.4725C113.441 11.4562 113.446 11.4403 113.455 11.4267C113.464 11.4131 113.476 11.4025 113.491 11.3962C113.934 11.2121 114.409 11.119 114.888 11.1222C114.904 11.1222 114.921 11.1276 114.935 11.1375C114.949 11.1473 114.959 11.1613 114.965 11.1774L115.296 12.14H115.749L115.83 10.5096C115.636 10.4401 115.432 10.4063 115.226 10.41C114.623 10.5009 114.035 10.6726 113.476 10.9205C113.465 10.9274 113.452 10.9313 113.439 10.9318C113.426 10.9323 113.412 10.9294 113.401 10.9234C113.389 10.9177 113.378 10.9092 113.37 10.8986C113.363 10.888 113.357 10.8755 113.355 10.8624L113.269 10.3471L111.803 10.6247V10.9332L112.476 11.0724C112.486 11.0723 112.497 11.0744 112.506 11.0784C112.516 11.0825 112.525 11.0885 112.532 11.096C112.539 11.1036 112.545 11.1126 112.549 11.1225C112.552 11.1323 112.554 11.1429 112.554 11.1534V15.887C112.554 15.9054 112.548 15.9233 112.537 15.9379C112.526 15.9524 112.51 15.9628 112.493 15.9674L111.871 16.1312L111.837 16.4274Z" fill="#977845"/>
<path d="M118.688 15.8877L119.403 16.0658L119.478 16.5113H116.874L116.924 16.0658L117.639 15.8877V11.1541L116.9 11.0015V10.5564L118.69 10.2635L118.688 15.8877ZM118.174 7.65491C118.318 7.65491 118.458 7.69818 118.578 7.77926C118.697 7.86034 118.79 7.97557 118.845 8.1104C118.9 8.24524 118.914 8.3936 118.886 8.53675C118.858 8.6799 118.789 8.8114 118.688 8.91462C118.586 9.01785 118.457 9.08817 118.316 9.11669C118.175 9.1452 118.029 9.13064 117.897 9.07484C117.764 9.01904 117.651 8.9245 117.571 8.80319C117.491 8.68187 117.448 8.53921 117.448 8.39327C117.448 8.1975 117.525 8.00976 117.661 7.8713C117.797 7.73284 117.982 7.655 118.174 7.65491Z" fill="#977845"/>
<path d="M119.476 16.5937H116.872C116.861 16.5937 116.849 16.5912 116.839 16.5863C116.828 16.5815 116.819 16.5745 116.811 16.5658C116.803 16.5571 116.798 16.5468 116.794 16.5357C116.791 16.5245 116.79 16.5127 116.791 16.5011L116.841 16.056C116.843 16.0389 116.85 16.0227 116.861 16.0097C116.872 15.9967 116.886 15.9875 116.903 15.9833L117.554 15.8205V11.2217L116.881 11.0829C116.863 11.079 116.846 11.0687 116.834 11.0539C116.822 11.0391 116.816 11.0206 116.816 11.0015V10.5564C116.816 10.5366 116.823 10.5175 116.835 10.5024C116.848 10.4874 116.865 10.4774 116.884 10.4743L118.674 10.1817C118.686 10.1799 118.698 10.1807 118.71 10.1839C118.721 10.1872 118.732 10.1929 118.741 10.2006C118.75 10.2084 118.757 10.218 118.762 10.2289C118.767 10.2397 118.769 10.2515 118.769 10.2635V15.823L119.42 15.9858C119.436 15.9897 119.45 15.998 119.461 16.0098C119.471 16.0216 119.479 16.0364 119.481 16.0523L119.556 16.4978C119.559 16.5097 119.558 16.5219 119.555 16.5335C119.552 16.5452 119.546 16.556 119.539 16.5652C119.531 16.5745 119.522 16.5819 119.511 16.5869C119.5 16.592 119.488 16.5946 119.476 16.5945M116.964 16.4288H119.379L119.329 16.1341L118.668 15.9688C118.65 15.9643 118.634 15.954 118.623 15.9394C118.612 15.9247 118.605 15.9067 118.605 15.8881V10.3612L116.979 10.6272V10.9343L117.652 11.0731C117.67 11.0769 117.687 11.087 117.699 11.1019C117.711 11.1167 117.717 11.1353 117.717 11.1545V15.8881C117.717 15.9067 117.711 15.9248 117.7 15.9394C117.689 15.954 117.673 15.9644 117.655 15.9688L116.997 16.1326L116.964 16.4288ZM118.174 9.21445C118.014 9.21438 117.858 9.16617 117.725 9.07592C117.593 8.98566 117.489 8.85741 117.428 8.70739C117.367 8.55737 117.351 8.39232 117.382 8.23311C117.414 8.07389 117.491 7.92767 117.604 7.81292C117.717 7.69817 117.86 7.62006 118.017 7.58845C118.174 7.55685 118.336 7.57319 118.484 7.63538C118.631 7.69758 118.757 7.80284 118.846 7.93787C118.935 8.0729 118.982 8.23162 118.982 8.39397C118.982 8.61161 118.896 8.82024 118.745 8.97407C118.593 9.1279 118.388 9.21436 118.174 9.21445ZM118.174 7.73846C118.047 7.73846 117.922 7.77681 117.816 7.84868C117.711 7.92055 117.628 8.0227 117.579 8.14221C117.531 8.26173 117.518 8.39324 117.543 8.52012C117.568 8.64699 117.629 8.76354 117.719 8.85501C117.809 8.94648 117.924 9.00877 118.048 9.03401C118.173 9.05925 118.303 9.0463 118.42 8.9968C118.538 8.94729 118.638 8.86346 118.709 8.7559C118.78 8.64833 118.817 8.52188 118.817 8.39252C118.817 8.21922 118.749 8.05319 118.628 7.93065C118.508 7.80812 118.344 7.73903 118.174 7.73846Z" fill="#977845"/>
<path d="M124.518 16.0658L125.168 15.8877V12.274C125.168 11.4597 124.768 11.0651 123.879 11.0651C123.335 11.0861 122.804 11.2488 122.339 11.5375V15.887L123.003 16.065L123.078 16.5105H120.576L120.626 16.065L121.289 15.887V11.1418L120.476 10.9891V10.5433L122.153 10.2889L122.266 10.9252C122.977 10.5368 123.763 10.3111 124.569 10.2639C124.794 10.2573 125.018 10.2988 125.226 10.3857C125.435 10.4726 125.623 10.603 125.779 10.7685C125.935 10.934 126.055 11.1308 126.131 11.3463C126.207 11.5618 126.238 11.7912 126.222 12.0197V15.887L126.897 16.065L126.985 16.5105H124.482L124.518 16.0658Z" fill="#977845"/>
<path d="M126.984 16.5941H124.482C124.47 16.5942 124.459 16.5919 124.449 16.5873C124.438 16.5828 124.429 16.576 124.421 16.5676C124.414 16.5591 124.408 16.5491 124.404 16.5383C124.401 16.5274 124.399 16.5158 124.4 16.5044L124.436 16.0589C124.437 16.042 124.444 16.0259 124.455 16.0129C124.465 15.9999 124.48 15.9906 124.496 15.9862L125.087 15.8245V12.2744C125.087 11.4957 124.714 11.148 123.879 11.148C123.365 11.1679 122.864 11.3177 122.421 11.584V15.8223L123.024 15.984C123.039 15.9882 123.052 15.9966 123.063 16.0083C123.073 16.02 123.08 16.0345 123.083 16.0502L123.159 16.4957C123.161 16.5075 123.16 16.5197 123.157 16.5313C123.154 16.5429 123.148 16.5536 123.141 16.5628C123.133 16.572 123.123 16.5794 123.113 16.5845C123.102 16.5896 123.09 16.5923 123.078 16.5923H120.576C120.565 16.5922 120.553 16.5897 120.543 16.5849C120.532 16.5801 120.523 16.5731 120.515 16.5644C120.508 16.5557 120.502 16.5455 120.499 16.5344C120.495 16.5233 120.494 16.5116 120.495 16.5L120.545 16.0545C120.547 16.0376 120.553 16.0215 120.564 16.0085C120.575 15.9955 120.589 15.9862 120.606 15.9818L121.208 15.8201V11.2054L120.461 11.0655C120.442 11.0619 120.425 11.0518 120.413 11.0369C120.401 11.022 120.394 11.0032 120.394 10.9837V10.5379C120.394 10.5181 120.401 10.4989 120.414 10.4839C120.427 10.4689 120.444 10.4591 120.463 10.4561L122.141 10.2017C122.151 10.1998 122.162 10.2 122.172 10.2024C122.183 10.2048 122.192 10.2092 122.201 10.2155C122.21 10.2217 122.217 10.2297 122.223 10.2389C122.228 10.2481 122.232 10.2583 122.233 10.269L122.328 10.8006C123.021 10.4284 123.786 10.215 124.569 10.1752C124.805 10.1693 125.039 10.2134 125.257 10.3047C125.475 10.396 125.672 10.5325 125.835 10.7056C125.998 10.8786 126.124 11.0843 126.205 11.3096C126.285 11.5348 126.319 11.7747 126.303 12.0139V15.8223L126.918 15.9844C126.933 15.9883 126.946 15.9964 126.957 16.0077C126.967 16.019 126.975 16.0331 126.978 16.0483L127.065 16.4938C127.067 16.5058 127.067 16.5183 127.064 16.5302C127.061 16.5421 127.056 16.5532 127.048 16.5627C127.041 16.5722 127.031 16.5799 127.02 16.5851C127.009 16.5904 126.997 16.5931 126.985 16.593M124.571 16.4273H126.886L126.828 16.1323L126.2 15.9677C126.182 15.9631 126.167 15.9527 126.156 15.9382C126.145 15.9236 126.139 15.9058 126.139 15.8874V12.0193C126.156 11.8017 126.128 11.5829 126.056 11.3772C125.984 11.1715 125.87 10.9836 125.722 10.8257C125.573 10.6679 125.394 10.5437 125.195 10.4614C124.996 10.379 124.782 10.3403 124.568 10.3478C123.799 10.3903 123.048 10.6029 122.367 10.9706L122.298 11.0022C122.287 11.0074 122.274 11.0099 122.262 11.0094C122.25 11.009 122.238 11.0056 122.227 10.9997C122.216 10.994 122.206 10.9857 122.199 10.9755C122.191 10.9654 122.186 10.9536 122.184 10.9412L122.086 10.3849L120.556 10.6167V10.9216L121.303 11.0615C121.322 11.065 121.339 11.0751 121.351 11.0901C121.364 11.105 121.37 11.1238 121.37 11.1432V15.8877C121.37 15.9061 121.364 15.9239 121.353 15.9385C121.342 15.953 121.327 15.9634 121.309 15.968L120.699 16.1316L120.666 16.4284H122.982L122.932 16.1323L122.319 15.9677C122.301 15.9631 122.286 15.9527 122.275 15.9382C122.264 15.9236 122.258 15.9058 122.258 15.8874V11.5346C122.258 11.5209 122.261 11.5074 122.267 11.4953C122.273 11.4832 122.282 11.4729 122.293 11.4652C122.771 11.1672 123.317 11.0005 123.878 10.9812C124.8 10.9812 125.249 11.4041 125.249 12.2733V15.887C125.249 15.9053 125.243 15.9231 125.232 15.9375C125.221 15.952 125.206 15.9624 125.188 15.9669L124.593 16.1305L124.571 16.4273Z" fill="#977845"/>
<path d="M129.072 15.0098C129.072 15.2515 129.298 15.379 129.611 15.4171C130.963 15.5821 132.915 15.5189 132.915 17.3252C132.915 18.6359 131.776 19.2721 130.549 19.2721C129.724 19.2425 128.905 19.1144 128.108 18.8906L128.184 17.2235H128.81L129.16 18.4073C129.591 18.5788 130.049 18.6735 130.512 18.6871C131.551 18.6871 131.952 18.1907 131.952 17.6054C131.952 17.0966 131.689 16.766 130.7 16.6388C129.712 16.5116 128.372 16.6642 128.372 15.5952C128.418 15.1226 128.545 14.6618 128.748 14.2337C128.481 14.0291 128.266 13.7634 128.12 13.4581C127.975 13.1528 127.902 12.8168 127.909 12.4775C127.939 11.8872 128.193 11.3318 128.618 10.9283C129.043 10.5249 129.605 10.3049 130.187 10.3147C130.732 10.3013 131.261 10.5017 131.664 10.8743C132.009 10.5318 132.418 10.2633 132.866 10.0851L132.891 11.0011C132.734 10.9855 132.575 11.0023 132.425 11.0504C132.274 11.0985 132.135 11.1771 132.015 11.2813C132.232 11.6323 132.349 12.0375 132.353 12.4521C132.333 13.0481 132.085 13.6126 131.662 14.0259C131.239 14.4392 130.674 14.6688 130.087 14.6661C129.814 14.6662 129.543 14.6187 129.286 14.5258C129.167 14.6606 129.092 14.8296 129.071 15.0095M130.16 14.0807C130.937 14.0807 131.237 13.3176 131.237 12.6047C131.237 11.8779 130.987 10.8994 130.11 10.8994C129.421 10.8994 129.021 11.6377 129.021 12.3503C129.034 13.0771 129.246 14.0807 130.16 14.0807Z" fill="#977845"/>
<path d="M130.55 19.3549C129.717 19.3243 128.89 19.1952 128.087 18.9701C128.069 18.9649 128.054 18.9538 128.043 18.9385C128.032 18.9233 128.027 18.9049 128.028 18.8862L128.103 17.2194C128.104 17.1981 128.113 17.1781 128.128 17.1634C128.143 17.1487 128.163 17.1405 128.184 17.1406H128.81C128.828 17.1405 128.845 17.1462 128.859 17.1568C128.873 17.1675 128.883 17.1824 128.888 17.1994L129.227 18.344C129.639 18.5031 130.074 18.5908 130.514 18.6035C131.377 18.6035 131.873 18.2401 131.873 17.6046C131.873 17.1653 131.671 16.8459 130.693 16.7201C130.51 16.6965 130.308 16.6838 130.114 16.6689C129.261 16.6086 128.293 16.5399 128.293 15.5948C128.327 15.1426 128.444 14.701 128.639 14.2932C128.644 14.2812 128.648 14.271 128.653 14.2616C128.39 14.0482 128.18 13.7763 128.037 13.467C127.894 13.1576 127.824 12.819 127.831 12.4775C127.859 11.8646 128.121 11.2871 128.562 10.8676C129.002 10.4482 129.586 10.2198 130.19 10.2311C130.729 10.2193 131.254 10.4078 131.666 10.7613C132.006 10.4325 132.407 10.1758 132.846 10.0062C132.857 10.0021 132.87 10.001 132.883 10.0031C132.895 10.0052 132.907 10.0104 132.917 10.0182C132.927 10.0256 132.936 10.0354 132.941 10.0466C132.947 10.0579 132.951 10.0704 132.951 10.0832L132.976 10.9993C132.976 11.0112 132.974 11.0231 132.969 11.0341C132.965 11.045 132.958 11.0549 132.949 11.0629C132.94 11.0706 132.93 11.0765 132.919 11.0801C132.908 11.0837 132.896 11.085 132.885 11.0839C132.614 11.0601 132.343 11.1357 132.122 11.2969C132.326 11.647 132.435 12.0457 132.438 12.4524C132.418 13.0705 132.161 13.6564 131.723 14.0853C131.285 14.5143 130.699 14.7523 130.09 14.7489C129.828 14.7492 129.566 14.7068 129.317 14.6231C129.228 14.7331 129.172 14.8675 129.158 15.0094C129.158 15.2423 129.45 15.3128 129.624 15.3346C129.789 15.355 129.962 15.371 130.14 15.3888C131.414 15.5112 133 15.6646 133 17.3255C133 18.7278 131.771 19.3553 130.552 19.3553M128.195 18.8281C128.964 19.0411 129.755 19.163 130.552 19.1914C131.689 19.1914 132.837 18.6144 132.837 17.3273C132.837 15.8168 131.395 15.6784 130.123 15.5556C129.944 15.5385 129.769 15.5214 129.603 15.501C129.21 15.4531 128.993 15.279 128.993 15.0112C129.013 14.8111 129.095 14.6225 129.227 14.4724C129.238 14.4603 129.252 14.4518 129.268 14.4477C129.283 14.4437 129.3 14.4443 129.315 14.4495C129.563 14.5392 129.825 14.5851 130.089 14.585C130.654 14.5891 131.199 14.3687 131.607 13.9707C132.015 13.5728 132.254 13.0286 132.273 12.4542C132.268 12.0554 132.156 11.6657 131.947 11.3278C131.937 11.3118 131.933 11.2929 131.935 11.2742C131.937 11.2555 131.946 11.2382 131.959 11.2249C132.191 11.0119 132.497 10.9007 132.809 10.9157L132.79 10.2031C132.395 10.3812 132.034 10.6291 131.724 10.9353C131.709 10.9502 131.689 10.9584 131.668 10.9584C131.646 10.9584 131.626 10.9502 131.611 10.9353C131.222 10.5775 130.713 10.3851 130.189 10.3979C129.629 10.386 129.086 10.5967 128.676 10.9851C128.266 11.3735 128.021 11.9091 127.993 12.4782C127.986 12.8041 128.055 13.1272 128.194 13.4208C128.333 13.7145 128.539 13.9705 128.794 14.1678C128.845 14.2187 128.83 14.2518 128.784 14.3615C128.598 14.7486 128.486 15.1676 128.452 15.597C128.452 16.3877 129.262 16.4447 130.121 16.5054C130.318 16.5192 130.521 16.5337 130.709 16.5577C131.649 16.6791 132.032 16.9832 132.032 17.6068C132.032 18.336 131.463 18.7717 130.511 18.7717C130.037 18.7591 129.568 18.6621 129.127 18.4854C129.116 18.4807 129.106 18.4736 129.098 18.4645C129.09 18.4555 129.084 18.4447 129.081 18.4331L128.748 17.3066H128.26L128.195 18.8281ZM130.164 14.1642C129.091 14.1642 128.952 12.8968 128.943 12.3521C128.943 11.5966 129.381 10.8169 130.114 10.8169C131.004 10.8169 131.322 11.7402 131.322 12.605C131.322 13.3237 131.019 14.1642 130.164 14.1642ZM130.114 10.9826C129.483 10.9826 129.106 11.678 129.106 12.3506C129.115 12.8448 129.235 13.9981 130.164 13.9981C130.898 13.9981 131.159 13.2474 131.159 12.6054C131.159 12.3343 131.109 10.9829 130.114 10.9829" fill="#977845"/>
<path d="M50.7037 25.9403H50.0777L49.7524 24.5406C49.2763 24.3277 48.7575 24.2318 48.2381 24.2608C47.3615 24.2608 46.7366 24.5406 46.7366 25.4062C46.7366 26.8436 51.1055 27.429 51.1055 29.7063C51.1055 31.5257 49.653 32.4166 48.0507 32.4166C47.2187 32.3744 46.3927 32.2509 45.584 32.0478L45.5965 32.0351L45.6966 29.9228H46.3226L46.6608 31.449C47.1201 31.6432 47.6154 31.7345 48.1126 31.7164C49.0392 31.7164 49.9276 31.3727 49.9276 30.1132C49.9276 28.2939 45.6587 27.8862 45.6587 25.8891C45.6587 24.2343 46.8485 23.5853 48.2381 23.5853C49.1004 23.6048 49.9594 23.7028 50.8045 23.8782L50.7037 25.9403Z" fill="#977844"/>
<path d="M53.8197 32.359V34.2932L54.846 34.4712L54.9211 34.9167H52.0422L52.0922 34.4712L52.7686 34.2932V26.8499L51.98 26.6973V26.2522L53.657 25.9847L53.82 26.6083V26.6214L53.8325 26.5959C54.3822 26.2733 54.9917 26.0698 55.6225 25.9982C57.0747 25.9982 57.8748 27.105 57.8748 28.7849C57.8748 30.7187 56.9485 32.4109 54.7706 32.4109C54.3945 32.4109 54.0821 32.3858 53.8193 32.36M54.9587 31.7619C56.1602 31.7619 56.7991 30.7445 56.7991 29.319C56.7991 28.1737 56.5846 26.8252 55.1964 26.8252C54.731 26.8614 54.2723 26.9591 53.8318 27.1159L53.8193 27.1286V31.5443C54.1803 31.6955 54.5683 31.7691 54.9587 31.7605" fill="#977844"/>
<path d="M61.6785 32.3902C59.7004 32.3902 58.9998 30.7615 58.9998 29.235C58.9998 26.9698 60.4515 25.9778 61.7525 25.9778C64.0684 25.9778 64.043 27.9498 64.043 28.3186C64.0456 28.5187 64.0336 28.7187 64.0072 28.9171C64.0072 28.9171 61.3907 28.9679 60.1262 28.9803C60.1262 30.316 60.591 31.5381 61.9412 31.5381C63.2433 31.5381 63.8317 31.1562 63.8317 31.1562C63.8317 31.1562 63.9697 31.6285 63.9697 31.6136C63.3049 32.11 62.5034 32.3815 61.6785 32.3898M60.1512 28.4712C60.8523 28.4076 62.9179 28.1911 62.9179 28.1911V28.0384C62.9179 27.6184 62.8307 26.537 61.7289 26.537C60.6271 26.537 60.2396 27.4534 60.1516 28.4716" fill="#977844"/>
<path d="M69.9012 27.8855H69.3131L68.9627 26.7278C68.6411 26.5652 68.2807 26.499 67.9235 26.537C66.8095 26.537 66.2711 27.8088 66.2711 28.9676C66.2711 30.1126 66.6469 31.5381 68.0865 31.5381C68.7378 31.5697 69.3868 31.4384 69.9766 31.1558C69.9766 31.1558 70.1142 31.6282 70.1142 31.6136C69.448 32.107 68.6476 32.3782 67.8234 32.3898C65.9204 32.3898 65.1443 30.8124 65.1443 29.158C65.1443 27.517 66.2962 25.9771 67.897 25.9771C68.5901 26.0108 69.2802 26.0917 69.9626 26.2191L69.9012 27.8855Z" fill="#977844"/>
<path d="M72.9601 31.767L73.6751 31.9451L73.7505 32.3906H71.1465L71.1965 31.9451L71.9115 31.767V27.0334L71.1726 26.8808V26.4357L72.9626 26.1432L72.9601 31.767ZM72.4467 23.5342C72.5903 23.5342 72.7307 23.5774 72.8501 23.6585C72.9694 23.7396 73.0625 23.8548 73.1175 23.9897C73.1724 24.1245 73.1868 24.2729 73.1588 24.416C73.1309 24.5592 73.0618 24.6907 72.9602 24.7939C72.8587 24.8971 72.7294 24.9674 72.5886 24.9959C72.4478 25.0245 72.3018 25.0099 72.1691 24.9541C72.0364 24.8983 71.923 24.8038 71.8432 24.6824C71.7633 24.5611 71.7207 24.4185 71.7206 24.2725C71.7207 24.0768 71.7972 23.8891 71.9334 23.7507C72.0695 23.6122 72.2541 23.5344 72.4467 23.5342Z" fill="#977844"/>
<path d="M78.3192 28.8528V27.4662C78.3192 26.8169 77.843 26.677 77.2424 26.677C76.8671 26.6801 76.4995 26.7856 76.1781 26.9826L75.8278 28.1403H75.2397L75.1642 26.5498C75.9988 26.2153 76.8841 26.0301 77.7808 26.0026C78.657 26.0026 79.3706 26.5113 79.3706 27.6951V31.4742L80.0963 31.7409L80.1592 32.186L78.5694 32.3644L78.3814 31.6268C77.7648 32.0675 77.0427 32.3311 76.2911 32.3899C76.0875 32.3996 75.8841 32.3656 75.6943 32.2901C75.5045 32.2145 75.3325 32.0992 75.1896 31.9515C75.0466 31.8038 74.9359 31.6271 74.8647 31.4329C74.7935 31.2388 74.7634 31.0316 74.7764 30.8248C74.7764 30.0232 75.1517 29.3234 76.2285 29.1577L78.3192 28.8528ZM78.3192 29.4386L76.8534 29.6802C76.7236 29.6819 76.5954 29.7102 76.4766 29.7634C76.3578 29.8166 76.2507 29.8937 76.1619 29.9899C76.073 30.0861 76.0042 30.1996 75.9595 30.3236C75.9148 30.4475 75.8952 30.5793 75.9018 30.7111C75.9018 31.5381 76.4273 31.6137 76.6783 31.6137C77.2634 31.5953 77.8317 31.4102 78.3185 31.0795L78.3192 29.4386Z" fill="#977844"/>
<path d="M82.9624 31.7793L83.6885 31.9447L83.7636 32.3901H81.1474L81.1974 31.9447L81.9124 31.7793V24.2725L81.0991 24.1199V23.6733L82.9767 23.3553L82.9624 31.7793Z" fill="#977844"/>
<path d="M86.5192 31.767L87.2341 31.9451L87.3092 32.3906H84.7056L84.7556 31.9451L85.4706 31.767V27.0334L84.732 26.8808V26.4357L86.522 26.1432L86.5192 31.767ZM86.0058 23.5342C86.1494 23.5342 86.2897 23.5774 86.4091 23.6585C86.5285 23.7396 86.6216 23.8548 86.6766 23.9897C86.7315 24.1245 86.7459 24.2729 86.7179 24.416C86.6899 24.5592 86.6208 24.6907 86.5193 24.7939C86.4178 24.8971 86.2885 24.9674 86.1477 24.9959C86.0068 25.0245 85.8608 25.0099 85.7282 24.9541C85.5955 24.8983 85.4821 24.8038 85.4022 24.6824C85.3224 24.5611 85.2798 24.4185 85.2797 24.2725C85.2799 24.0768 85.3564 23.8892 85.4926 23.7508C85.6287 23.6124 85.8132 23.5345 86.0058 23.5342Z" fill="#977844"/>
<path d="M90.3515 31.8175C90.9775 31.8175 91.7036 31.5631 91.7036 30.7743C91.7036 29.4894 88.3735 29.4127 88.3735 27.7965C88.3735 26.6515 89.3248 25.9644 90.4645 25.9644C91.1365 25.9646 91.8057 26.0545 92.4547 26.2318L92.3793 27.8855H91.7912L91.4408 26.7532C91.1321 26.6042 90.7937 26.5295 90.452 26.5352C89.9011 26.5352 89.4124 26.8404 89.4124 27.4389C89.4124 28.5203 92.7303 28.6744 92.7303 30.4672C92.7303 31.7775 91.5534 32.3884 90.3269 32.3884C89.622 32.3814 88.9234 32.2522 88.2612 32.0065L88.336 30.3393H88.9623L89.3126 31.5228C89.619 31.7315 89.9835 31.8341 90.3519 31.8153" fill="#977844"/>
<path d="M95.5715 26.2191H97.3489V26.855H95.5715V30.634C95.5715 31.2071 95.6072 31.6515 96.0362 31.6515C96.5026 31.6143 96.9617 31.5116 97.4004 31.3462C97.4004 31.3462 97.5134 31.8299 97.5134 31.8186C96.9698 32.1305 96.3689 32.3254 95.7481 32.3909C94.9344 32.3909 94.5211 31.9585 94.5211 31.017V26.8553H93.6699V26.2195H94.4965L94.9348 24.8198L95.5357 24.718L95.5715 26.2191Z" fill="#977844"/>
</svg>
