<svg width="24" height="24" viewBox="0 0 24 24" fill="none" xmlns="http://www.w3.org/2000/svg">
<path d="M15.5484 4.5H20.1188C19.3781 3.69844 17.2125 2.25 12 2.25C7.20938 2.25 4.77187 3.67031 3.91406 4.5H8.45156C8.70938 4.05 9.19687 3.75 9.75 3.75H14.25C14.8031 3.75 15.2906 4.05 15.5484 4.5ZM20.25 6.75H13.125V10.5H20.25V6.75ZM3.75 6.75V10.5H10.875V6.75H3.75ZM3.75 12.75V17.625C3.75 18.2484 4.25156 18.75 4.875 18.75H15.5719H19.125C19.7484 18.75 20.25 18.2484 20.25 17.625V12.75H3.75ZM1.97812 3.28125C3.18281 1.81406 6.36563 0 12 0C18.0281 0 20.9062 1.80937 22.05 3.30937C22.4016 3.76875 22.5 4.28906 22.5 4.71094V6C23.3297 6 24 6.67031 24 7.5V10.5C24 11.3297 23.3297 12 22.5 12V17.625C22.5 18.7969 21.9047 19.8281 21 20.4328V22.875C21 23.4984 20.4984 24 19.875 24C19.2516 24 18.75 23.4984 18.75 22.875V21H15.5719H5.25V22.875C5.25 23.4984 4.74844 24 4.125 24C3.50156 24 3 23.4984 3 22.875V20.4328C2.09531 19.8281 1.5 18.7969 1.5 17.625V12C0.670312 12 0 11.3297 0 10.5V7.5C0 6.67031 0.670312 6 1.5 6V4.70625C1.5 4.29375 1.59375 3.75 1.97812 3.28125ZM6.75 14.25C7.14782 14.25 7.52936 14.408 7.81066 14.6893C8.09196 14.9706 8.25 15.3522 8.25 15.75C8.25 16.1478 8.09196 16.5294 7.81066 16.8107C7.52936 17.092 7.14782 17.25 6.75 17.25C6.35218 17.25 5.97064 17.092 5.68934 16.8107C5.40804 16.5294 5.25 16.1478 5.25 15.75C5.25 15.3522 5.40804 14.9706 5.68934 14.6893C5.97064 14.408 6.35218 14.25 6.75 14.25ZM17.25 14.25C17.6478 14.25 18.0294 14.408 18.3107 14.6893C18.592 14.9706 18.75 15.3522 18.75 15.75C18.75 16.1478 18.592 16.5294 18.3107 16.8107C18.0294 17.092 17.6478 17.25 17.25 17.25C16.8522 17.25 16.4706 17.092 16.1893 16.8107C15.908 16.5294 15.75 16.1478 15.75 15.75C15.75 15.3522 15.908 14.9706 16.1893 14.6893C16.4706 14.408 16.8522 14.25 17.25 14.25Z" fill="#123252"/>
</svg>
