<svg width="21" height="24" viewBox="0 0 21 24" fill="none" xmlns="http://www.w3.org/2000/svg">
<path d="M16.5016 2.25022C17.7439 2.25022 18.7518 3.25813 18.7518 4.50044V9.00088H2.25022V4.50044C2.25022 3.25813 3.25813 2.25022 4.50044 2.25022H16.5016ZM2.25022 16.5016V11.2511H18.7518V16.5016C18.7518 17.7439 17.7439 18.7518 16.5016 18.7518H4.50044C3.25813 18.7518 2.25022 17.7439 2.25022 16.5016ZM4.50044 0C2.01582 0 0 2.01582 0 4.50044V16.5016C0 18.5081 1.31263 20.2051 3.12218 20.7864L1.8283 22.0803C1.38764 22.5209 1.38764 23.2335 1.8283 23.6695C2.26897 24.1055 2.98154 24.1102 3.41752 23.6695L6.08966 20.9974H14.9124L17.5845 23.6695C18.0252 24.1102 18.7378 24.1102 19.1737 23.6695C19.6097 23.2288 19.6144 22.5163 19.1737 22.0803L17.8799 20.7864C19.6894 20.2051 21.0021 18.5081 21.0021 16.5016V4.50044C21.0021 2.01582 18.9862 0 16.5016 0H4.50044ZM10.501 16.8766C10.9984 16.8766 11.4753 16.6791 11.827 16.3274C12.1786 15.9758 12.3762 15.4988 12.3762 15.0015C12.3762 14.5041 12.1786 14.0272 11.827 13.6755C11.4753 13.3238 10.9984 13.1263 10.501 13.1263C10.0037 13.1263 9.52674 13.3238 9.17507 13.6755C8.82341 14.0272 8.62584 14.5041 8.62584 15.0015C8.62584 15.4988 8.82341 15.9758 9.17507 16.3274C9.52674 16.6791 10.0037 16.8766 10.501 16.8766Z" fill="#123252"/>
</svg>
