<svg width="21" height="24" viewBox="0 0 21 24" fill="none" xmlns="http://www.w3.org/2000/svg">
<path d="M9.37592 2.25022V9.75095H2.25022V4.50044C2.25022 3.25813 3.25813 2.25022 4.50044 2.25022H9.37592ZM11.6261 2.25022H16.5016C17.7439 2.25022 18.7518 3.25813 18.7518 4.50044V9.75095H11.6261V2.25022ZM2.25022 16.5016V12.0012H18.7518V16.5016C18.7518 17.7439 17.7439 18.7518 16.5016 18.7518H4.50044C3.25813 18.7518 2.25022 17.7439 2.25022 16.5016ZM4.50044 0C2.01582 0 0 2.01582 0 4.50044V16.5016C0 18.5081 1.31263 20.2051 3.12218 20.7864L1.8283 22.0803C1.38764 22.5209 1.38764 23.2335 1.8283 23.6695C2.26897 24.1055 2.98154 24.1102 3.41752 23.6695L6.08966 20.9974H14.9124L17.5845 23.6695C18.0252 24.1102 18.7378 24.1102 19.1737 23.6695C19.6097 23.2288 19.6144 22.5163 19.1737 22.0803L17.8799 20.7864C19.6894 20.2051 21.0021 18.5081 21.0021 16.5016V4.50044C21.0021 2.01582 18.9862 0 16.5016 0H4.50044ZM6.00059 16.5016C6.39845 16.5016 6.78002 16.3436 7.06135 16.0622C7.34268 15.7809 7.50073 15.3993 7.50073 15.0015C7.50073 14.6036 7.34268 14.222 7.06135 13.9407C6.78002 13.6594 6.39845 13.5013 6.00059 13.5013C5.60272 13.5013 5.22115 13.6594 4.93982 13.9407C4.65849 14.222 4.50044 14.6036 4.50044 15.0015C4.50044 15.3993 4.65849 15.7809 4.93982 16.0622C5.22115 16.3436 5.60272 16.5016 6.00059 16.5016ZM16.5016 15.0015C16.5016 14.6036 16.3436 14.222 16.0622 13.9407C15.7809 13.6594 15.3993 13.5013 15.0015 13.5013C14.6036 13.5013 14.222 13.6594 13.9407 13.9407C13.6594 14.222 13.5013 14.6036 13.5013 15.0015C13.5013 15.3993 13.6594 15.7809 13.9407 16.0622C14.222 16.3436 14.6036 16.5016 15.0015 16.5016C15.3993 16.5016 15.7809 16.3436 16.0622 16.0622C16.3436 15.7809 16.5016 15.3993 16.5016 15.0015Z" fill="#123252"/>
</svg>
