<svg width="52" height="60" viewBox="0 0 52 60" fill="none" xmlns="http://www.w3.org/2000/svg">
<g clip-path="url(#clip0_1_1359)">
<path fill-rule="evenodd" clip-rule="evenodd" d="M33.0641 6.26398C33.7361 6.26398 34.2841 6.81598 34.2841 7.48798C34.2841 8.15998 33.7361 8.70798 33.0641 8.70798C32.3921 8.70798 31.8401 8.15998 31.8401 7.48798C31.8401 6.81598 32.3921 6.26398 33.0641 6.26398ZM11.6761 48.428V58.208C11.6761 58.884 11.1281 59.428 10.4521 59.428C9.78012 59.428 9.23212 58.884 9.23212 58.208V48.428C9.23212 47.752 9.78012 47.208 10.4521 47.208C11.1281 47.208 11.6761 47.752 11.6761 48.428ZM45.8961 48.428V58.208C45.8961 58.884 45.3481 59.428 44.6761 59.428C44.0001 59.428 43.4521 58.884 43.4521 58.208V48.428C43.4521 47.752 44.0001 47.208 44.6761 47.208C45.3481 47.208 45.8961 47.752 45.8961 48.428ZM49.4641 42.344C49.3721 41.7 49.7801 41.108 50.4041 40.972C50.4321 40.964 50.4601 40.956 50.4921 40.948C51.1401 40.84 51.7881 41.316 51.8841 41.964C51.9961 42.624 51.5321 43.26 50.8721 43.356C50.8361 43.364 50.8121 43.36 50.7801 43.364C50.7481 43.364 50.7081 43.368 50.6761 43.368C50.0761 43.368 49.5641 42.94 49.4641 42.344ZM52.0081 47.036V58.208C52.0081 58.88 51.4561 59.428 50.7841 59.428C50.1121 59.428 49.5641 58.88 49.5641 58.208V47.036C49.5641 46.364 50.1121 45.816 50.7841 45.816C51.4561 45.816 52.0081 46.364 52.0081 47.036ZM27.5641 50.484L24.1161 39.568L24.6681 39.788C24.8161 39.844 24.9681 39.876 25.1201 39.876C25.6041 39.876 26.0641 39.584 26.2521 39.108L27.5641 35.832L28.8721 39.108C29.0641 39.584 29.5241 39.876 30.0081 39.876C30.1601 39.876 30.3121 39.844 30.4641 39.788L31.0081 39.568L27.5641 50.484ZM21.2361 35.784L20.4521 35.468L20.7441 34.316L20.7761 34.176L21.1441 32.712L21.5081 32.772L21.9401 32.844L21.9961 32.852L23.0521 33.028L25.8641 33.5L25.7601 33.764L24.4401 37.064L23.1681 36.556L22.8081 36.412L22.7281 36.38L21.7001 35.968L21.3241 35.816L21.2361 35.784ZM33.8041 35.816L33.4281 35.968L32.4001 36.38L32.3201 36.412L31.9641 36.556L30.6881 37.064L29.3681 33.764L29.2601 33.5L32.0761 33.028L33.1321 32.852L33.1841 32.844L33.6201 32.772L33.9841 32.712L34.3521 34.176L34.3881 34.316L34.6761 35.468L33.8921 35.784L33.8041 35.816ZM23.8961 28.12C25.0521 28.608 26.2841 28.876 27.5641 28.876C28.8441 28.876 30.0761 28.608 31.2321 28.12V30.692L27.5641 31.304L23.8961 30.692V28.12ZM18.6001 11.764H27.8841C29.1161 13.256 30.9801 14.208 33.0641 14.208C34.4001 14.208 35.6441 13.812 36.6921 13.136C36.7161 13.488 36.7321 13.844 36.7321 14.208C36.7321 18.268 35.2401 21.868 32.9481 24.092C32.5081 24.516 32.0481 24.892 31.5561 25.208C30.3481 25.992 28.9961 26.432 27.5641 26.432C26.1321 26.432 24.7801 25.992 23.5721 25.208C23.0841 24.892 22.6161 24.516 22.1801 24.092C19.8921 21.868 18.4001 18.268 18.4001 14.208C18.4001 13.36 18.4681 12.544 18.6001 11.764ZM35.0801 3.71598C36.1121 4.27198 36.8921 5.24398 37.1961 6.39998C37.2881 6.74798 37.3401 7.11198 37.3401 7.48798C37.3401 8.01198 37.2401 8.51598 37.0681 8.98398C37.0241 9.09598 36.9761 9.21198 36.9241 9.31998C36.7401 9.70398 36.5041 10.056 36.2161 10.368C36.1641 10.424 36.1081 10.488 36.0521 10.544C35.2801 11.296 34.2281 11.764 33.0641 11.764C31.9041 11.764 30.8481 11.296 30.0761 10.544C29.7161 10.192 29.4241 9.77598 29.2041 9.31998C28.9401 8.76398 28.7841 8.14398 28.7841 7.48798C28.7841 5.94798 29.6041 4.59998 30.8281 3.84798C31.3001 3.55598 31.8361 3.35198 32.4081 3.26398C32.6201 3.23198 32.8401 3.20798 33.0641 3.20798C33.7921 3.20798 34.4801 3.39598 35.0801 3.71598ZM27.5641 3.20798C27.6681 3.20798 27.7721 3.21598 27.8761 3.21998C26.9161 4.37998 26.3401 5.86798 26.3401 7.48798C26.3401 8.12398 26.4361 8.73598 26.6001 9.31998H19.2561C20.6761 5.60398 23.7441 3.20798 27.5641 3.20798ZM24.7361 49.984L15.3401 40.588V33.544L18.5761 32.896L18.3361 33.868L17.8241 35.912C17.6761 36.504 17.9881 37.116 18.5561 37.344L20.7761 38.232L20.8481 38.26L21.1841 38.396L24.8921 50.14L24.7681 50.016L24.7361 49.984ZM39.7841 34.536V40.588L30.3601 50.016L30.2361 50.14L33.9441 38.396L34.2801 38.26L34.3521 38.232L36.5721 37.344C37.1401 37.116 37.4521 36.504 37.3041 35.912L36.5521 32.896L39.7841 33.544V34.536ZM49.5401 37.004C47.3521 34.492 44.3841 33.248 42.2321 32.632V32.54C42.2321 31.96 41.8201 31.456 41.2481 31.344L35.1361 30.12C35.1041 30.116 35.0721 30.116 35.0401 30.112C35.0001 30.108 34.9561 30.1 34.9161 30.1C34.8881 30.096 34.8561 30.104 34.8281 30.104C34.7801 30.108 34.7401 30.108 34.6961 30.112L33.6721 30.284V26.672C36.9721 24.084 39.1721 19.464 39.1721 14.208C39.1721 13.336 39.1081 12.496 38.9921 11.684C39.4561 11.508 39.7841 11.068 39.7841 10.544C39.7841 10.2 39.6441 9.89198 39.4161 9.66798C39.6521 8.98398 39.7841 8.25198 39.7841 7.48798C39.7841 3.77998 36.7681 0.763977 33.0641 0.763977C32.2281 0.763977 31.4321 0.923979 30.6961 1.20398C29.7081 0.91598 28.6641 0.763977 27.5641 0.763977C22.3481 0.763977 18.2441 4.16398 16.6601 9.31998H16.5641C15.8881 9.31998 15.3401 9.86798 15.3401 10.544C15.3401 11.068 15.6761 11.508 16.1361 11.684C16.0161 12.496 15.9521 13.336 15.9521 14.208C15.9521 19.464 18.1561 24.084 21.4521 26.672V30.284L20.4321 30.112C20.3881 30.108 20.3441 30.108 20.3001 30.104C20.2721 30.104 20.2441 30.096 20.2121 30.1C20.1681 30.1 20.1201 30.108 20.0761 30.112C20.0481 30.116 20.0201 30.116 19.9921 30.12L13.8801 31.344C13.3081 31.456 12.9001 31.96 12.9001 32.54V32.628C8.15612 33.972 3.15612 37.512 3.12012 43.54V58.208C3.12012 58.88 3.66811 59.428 4.34011 59.428C5.01611 59.428 5.56412 58.88 5.56412 58.208V43.54C5.53212 38.36 10.4441 36.036 12.9001 35.192V41.096C12.9001 41.42 13.0281 41.732 13.2561 41.96L26.3401 55.048V58.208C26.3401 58.88 26.8921 59.428 27.5641 59.428C28.2361 59.428 28.7841 58.88 28.7841 58.208V55.048L41.8721 41.96C42.1001 41.732 42.2321 41.42 42.2321 41.096V35.192C44.4721 35.936 46.4321 37.148 47.6921 38.604C48.1041 39.072 48.8601 39.132 49.3521 38.768C49.3761 38.752 49.3961 38.744 49.4161 38.728C49.9161 38.272 49.9801 37.504 49.5401 37.004Z" fill="#3889CD"/>
</g>
<defs>
<clipPath id="clip0_1_1359">
<rect width="52" height="60" fill="white"/>
</clipPath>
</defs>
</svg>
