<svg width="56" height="60" viewBox="0 0 56 60" fill="none" xmlns="http://www.w3.org/2000/svg">
<path fill-rule="evenodd" clip-rule="evenodd" d="M37.2081 33.656C36.9161 33.056 36.1801 32.812 35.5681 33.116C34.9721 33.412 34.7281 34.144 35.0321 34.752C35.2401 35.18 35.6681 35.428 36.1201 35.428C36.3041 35.428 36.4881 35.392 36.6681 35.292C37.2681 35 37.5121 34.264 37.2081 33.656ZM37.7561 37.48C37.1601 37.784 36.9161 38.52 37.2081 39.132C37.4241 39.56 37.8521 39.804 38.3081 39.804C38.4921 39.804 38.6761 39.752 38.8441 39.668C39.4561 39.364 39.7001 38.628 39.3961 38.032C39.1001 37.432 38.3561 37.188 37.7561 37.48ZM44.3201 34.664C45.1601 33.96 45.1401 33.912 44.9481 33.448C44.7521 32.976 43.9561 32.748 42.9161 32.8C42.8921 32.8 42.8681 32.8 42.8441 32.804C42.7761 32.808 42.7041 32.812 42.6281 32.82C42.6001 32.824 42.5761 32.824 42.5481 32.828C42.1401 32.868 41.7041 32.952 41.2561 33.076C41.2201 33.084 41.1841 33.092 41.1481 33.1C40.2481 33.32 39.2881 33.192 38.4881 32.736C38.4801 32.732 38.4681 32.728 38.4601 32.724C37.6401 32.244 37.0601 31.476 36.8321 30.552L36.8281 30.548C36.8001 30.444 36.7801 30.34 36.7641 30.24C36.7601 30.224 36.7601 30.204 36.7561 30.188C36.7481 30.1 36.7361 30.012 36.7321 29.928C36.7281 29.904 36.7281 29.876 36.7281 29.852C36.7241 29.776 36.7201 29.696 36.7201 29.62C36.7241 29.592 36.7241 29.564 36.7241 29.532C36.7281 29.464 36.7321 29.396 36.7401 29.328C36.7441 29.292 36.7481 29.252 36.7481 29.22C36.7561 29.164 36.7681 29.112 36.7761 29.06C36.8161 28.84 36.8761 28.624 36.9561 28.416C36.4801 28.432 35.9561 28.464 35.4281 28.524C33.7841 28.712 32.5281 30.076 32.5441 31.64C32.5441 31.656 32.5401 31.672 32.5441 31.688C32.5441 31.7 32.5441 31.708 32.5441 31.716C32.7681 38.908 35.9761 42.288 38.8881 43.12C39.0801 43.176 39.2721 43.22 39.4641 43.256C40.8961 43.508 42.1681 43.108 42.4841 42.312C43.0881 40.776 42.9721 40.524 42.8201 40.208C42.6041 39.76 42.2841 39.088 42.4041 37.76C42.5481 36.152 43.5721 35.292 44.3201 34.664ZM39.1761 29.832C39.1801 29.852 39.1801 29.872 39.1841 29.896C39.2881 30.312 39.5161 30.508 39.6921 30.608C39.9641 30.768 40.2881 30.804 40.6081 30.72C41.8201 30.384 43.2241 30.232 44.4481 30.464C44.4601 30.468 44.4721 30.472 44.4841 30.476C44.6241 30.5 44.7601 30.532 44.8961 30.572C44.9321 30.584 44.9681 30.596 45.0081 30.608C45.1121 30.64 45.2201 30.672 45.3241 30.716C45.3801 30.74 45.4321 30.764 45.4921 30.792C45.5681 30.828 45.6521 30.86 45.7281 30.9C45.7801 30.928 45.8281 30.964 45.8801 30.992C45.9521 31.036 46.0281 31.076 46.1001 31.128C46.1281 31.148 46.1521 31.168 46.1761 31.188C46.6161 31.516 46.9761 31.948 47.2081 32.516C48.1001 34.68 46.7201 35.84 45.8921 36.536C45.2521 37.072 44.8881 37.404 44.8361 37.98C44.7761 38.64 44.8761 38.84 45.0241 39.152C45.5201 40.188 45.6041 41.06 44.7561 43.208C44.1161 44.824 42.4121 45.776 40.3201 45.776C39.9081 45.776 39.4801 45.74 39.0441 45.66C35.0881 44.972 30.3761 40.924 30.1001 31.796C29.9241 25.972 32.8321 22.064 38.2841 20.792C38.9401 20.64 39.6001 21.048 39.7521 21.704C39.9081 22.364 39.5001 23.02 38.8401 23.172C36.5081 23.716 34.8281 24.812 33.7841 26.428C34.2201 26.268 34.6721 26.152 35.1521 26.096C37.4161 25.836 38.7481 25.916 39.5361 26.12C44.9001 23.588 45.0761 17.98 44.6841 14.8C44.1881 10.784 42.8361 8.31601 37.5441 8.54001C30.9121 8.79201 26.3321 11.068 24.3081 15.116C22.0201 19.684 23.1841 26.264 27.3481 32.288C27.7321 32.844 27.5921 33.604 27.0361 33.988C26.4801 34.372 25.7201 34.232 25.3361 33.676C20.6681 26.92 19.4361 19.388 22.1201 14.024C23.8281 10.608 27.8761 6.46401 37.4481 6.09601C45.1241 5.80001 46.6481 10.752 47.1081 14.5C47.9361 21.24 45.3401 26.368 39.9921 28.592L39.9841 28.596C39.5001 28.812 39.0761 29.272 39.1761 29.832ZM16.5641 45.516V43.516L11.6761 45.96V49.704L16.5641 45.516ZM16.5641 48.736L11.6761 52.924V54.228L16.5641 56.668V48.736ZM6.94409 53.76L9.23209 51.8V46.428H5.56409C4.89209 46.428 4.34008 46.976 4.34008 47.648V52.536C4.34008 53.212 4.89209 53.76 5.56409 53.76H6.94409ZM21.1601 43.188C21.5961 43.7 21.5401 44.472 21.0281 44.912L19.0081 46.64V58.648C19.0081 59.072 18.7881 59.464 18.4281 59.688C18.2321 59.808 18.0081 59.872 17.7881 59.872C17.6001 59.872 17.4121 59.828 17.2401 59.744L10.1641 56.204H7.84808L3.91609 59.576C3.68409 59.772 3.40409 59.872 3.12009 59.872C2.77609 59.872 2.43209 59.728 2.19209 59.444C1.75209 58.932 1.81208 58.16 2.32408 57.72L4.34409 55.992C2.92409 55.488 1.90009 54.132 1.90009 52.536V47.648C1.90009 45.628 3.54409 43.984 5.56409 43.984H10.1641L17.2401 40.444C17.6201 40.256 18.0721 40.276 18.4281 40.5C18.7881 40.72 19.0081 41.116 19.0081 41.536V43.42L19.4361 43.056C19.9481 42.616 20.7201 42.672 21.1601 43.188ZM16.6401 23.68C17.3121 23.66 17.8361 23.084 17.8121 22.412C17.8121 22.4 17.8121 22.4 17.8121 22.388C17.7721 21.728 17.2241 21.2 16.5401 21.24C15.8681 21.276 15.3401 21.836 15.3681 22.508C15.3921 23.168 15.9281 23.68 16.5921 23.68C16.6001 23.68 16.6241 23.68 16.6401 23.68ZM50.0401 48.872C49.4041 48.66 48.7201 49.028 48.5121 49.64C48.5001 49.652 48.5001 49.652 48.5001 49.668C47.5961 52.576 46.9201 54.568 45.9841 55.704C45.0921 56.776 44.0121 57.404 41.1561 57.424C36.5961 57.416 33.3801 56.364 31.3281 54.188C29.8481 52.624 28.9801 50.388 28.7841 47.564C28.4801 43.628 26.2321 40.02 23.7601 36.368C23.5441 36.04 23.3121 35.708 23.0921 35.38C20.9641 32.3 18.9601 29.392 18.3841 27.004C18.2281 26.356 17.5401 25.956 16.9081 26.128C16.5921 26.2 16.3201 26.396 16.1481 26.676C15.9921 26.956 15.9401 27.288 16.0121 27.604C16.7601 30.492 18.6801 33.264 20.6961 36.208C21.0481 36.712 21.4041 37.224 21.7481 37.736C24.0081 41.048 26.1321 44.544 26.3401 47.736C26.5841 51.132 27.6721 53.868 29.5561 55.876C32.0481 58.524 35.9361 59.872 41.1041 59.872H41.1561C41.2041 59.872 41.2521 59.872 41.3001 59.872C44.3321 59.872 46.4841 59.016 47.8881 57.244C49.1601 55.644 49.8081 53.612 50.6241 51.06L50.8361 50.4C50.9321 50.092 50.9081 49.764 50.7481 49.468C50.6001 49.176 50.3441 48.968 50.0401 48.872ZM53.0081 16.58C52.8121 16.848 52.5321 17.02 52.2161 17.084C51.5561 17.192 50.9201 16.74 50.7961 16.08L50.7721 15.884C50.1721 12.376 49.6721 9.34402 48.0481 7.26802C46.1401 4.78802 42.8761 3.66401 37.5001 3.65201C22.0761 3.77201 18.9961 11.752 18.0321 17.752C17.9441 18.352 17.4201 18.808 16.8201 18.808C16.7601 18.808 16.7001 18.808 16.6521 18.792C15.9801 18.696 15.5121 18.072 15.6121 17.412C16.2361 12.536 19.5841 1.20801 37.1961 1.20801C37.2921 1.20801 37.4041 1.20801 37.5001 1.20801H37.6081C43.5961 1.20801 47.6561 2.69602 49.9921 5.77602C51.9601 8.36802 52.5081 11.596 53.0441 14.724C53.1081 15.028 53.1561 15.348 53.2161 15.664C53.2641 15.984 53.1921 16.312 53.0081 16.58Z" fill="#3889CD"/>
</svg>
