<svg width="53" height="60" viewBox="0 0 53 60" fill="none" xmlns="http://www.w3.org/2000/svg">
<path fill-rule="evenodd" clip-rule="evenodd" d="M12.9189 30.6038C13.5527 30.6038 14.0664 31.1138 14.0664 31.7475V36.3338C14.0664 36.9638 13.5527 37.4775 12.9189 37.4775C12.2852 37.4775 11.7752 36.9638 11.7752 36.3338V31.7475C11.7752 31.1138 12.2852 30.6038 12.9189 30.6038ZM34.729 24.8963C33.9115 25.7363 32.5577 27.7313 32.6739 31.6163C32.8727 38.0775 36.0002 40.9163 38.6177 41.385C39.8252 41.6025 40.9427 41.28 41.2014 40.635L41.6289 39.3937C41.8314 38.7975 42.4839 38.4788 43.0839 38.685C43.6802 38.8913 43.999 39.5438 43.7927 40.1438L43.3464 41.4375C42.7577 42.9 41.2389 43.7438 39.3827 43.7438C39.0039 43.7438 38.614 43.71 38.2127 43.6388C34.7552 43.0238 30.6264 39.5212 30.3827 31.6837C30.2777 28.185 31.2377 25.2037 33.0827 23.2987C34.2302 22.1175 35.6514 21.435 36.9789 21.435C40.3802 21.435 40.4177 23.6363 40.4177 23.73C40.4177 24.3638 39.9077 24.8738 39.2739 24.8738C38.7114 24.8738 38.2464 24.4725 38.1452 23.9438C38.0589 23.8838 37.7552 23.73 36.9789 23.73C36.2777 23.73 35.4377 24.165 34.729 24.8963ZM19.1327 19.59C19.7402 19.6988 20.1602 20.2688 20.0702 20.8875C19.9877 21.45 19.4965 21.8625 18.934 21.8625C18.889 21.8625 18.8477 21.8588 18.8064 21.8513C18.7952 21.8513 18.7839 21.8512 18.7727 21.8475C18.4652 21.8137 18.2027 21.6525 18.0189 21.4013C17.8352 21.1613 17.7527 20.865 17.8015 20.5538C17.8915 19.9463 18.4765 19.5 19.0952 19.5825C19.1065 19.5825 19.1214 19.59 19.1327 19.59ZM40.4177 34.0425C39.1539 34.0425 38.1264 33.0113 38.1264 31.7475C38.1264 30.4838 39.1539 29.4563 40.4177 29.4563C41.6814 29.4563 42.7089 30.4838 42.7089 31.7475C42.7089 33.0113 41.6814 34.0425 40.4177 34.0425ZM5.5652 21.9263C5.1452 21.2925 4.8977 20.535 4.8977 19.7175C4.8977 17.7188 6.37519 16.0575 8.29144 15.7613C7.09519 17.85 6.21395 19.9575 5.5652 21.9263ZM17.119 9.12C21.5177 5.8875 27.0339 4.24877 33.5439 4.24877C34.1814 4.24877 34.4027 4.7475 34.4552 4.90125C34.5077 5.05125 34.639 5.56875 34.1477 5.95125C33.9152 6.135 33.6752 6.33 33.4314 6.52875C26.6102 6.9075 22.8265 9.87751 20.7565 12.7538L17.119 9.12ZM48.2552 11.2275C47.5464 10.35 46.6877 9.59251 45.6864 8.95876C45.4802 8.70751 45.2514 8.47127 45.0039 8.26127V7.68752C45.0039 5.16002 42.9452 3.10502 40.4177 3.10502C39.7839 3.10502 39.2739 3.61502 39.2739 4.24877C39.2739 4.88252 39.7839 5.39627 40.4177 5.39627C41.6402 5.39627 42.6414 6.36 42.7052 7.5675C41.0439 7.00875 39.1427 6.66377 36.9939 6.54377C36.8364 6.53252 36.6827 6.52875 36.5252 6.52125C36.8514 5.79375 36.9002 4.95752 36.6227 4.15127C36.1614 2.82002 34.9539 1.95752 33.5439 1.95752C25.9877 1.95752 19.6352 4.035 14.6627 8.13C12.6827 9.76125 11.0664 11.5875 9.73895 13.4775C9.4652 13.4438 9.19144 13.4175 8.91019 13.4175C5.43394 13.4175 2.60645 16.2413 2.60645 19.7175C2.60645 21.6338 3.46895 23.3475 4.81895 24.5025C3.78395 28.6387 3.75394 31.6838 3.75394 31.7475C3.75394 37.4363 7.86395 42.06 12.9189 42.06C16.7777 42.06 20.0814 39.3675 21.4314 35.565C21.6639 35.895 21.8964 36.2288 22.1327 36.5588C22.4064 36.96 22.6802 37.3613 22.9652 37.7625C25.0089 40.6875 26.9327 43.7588 27.1052 46.4737C27.3227 49.4175 28.2715 51.7762 29.9327 53.5087C32.1227 55.8 35.5389 56.955 40.0614 56.955H40.1327C43.0202 56.955 45.1165 56.2688 46.549 54.8363C47.989 53.4038 48.6902 51.3075 48.6902 48.4313C48.6902 47.8275 48.2139 47.3363 47.6214 47.2913C47.5952 47.2913 47.5727 47.2838 47.5464 47.2838C46.9164 47.2838 46.4102 47.79 46.3989 48.42V48.4313C46.3877 50.6888 45.919 52.2488 44.9327 53.2088C43.9577 54.195 42.3902 54.6638 40.1064 54.6638C36.1577 54.6525 33.3602 53.76 31.5827 51.915C30.3002 50.5838 29.5689 48.705 29.3964 46.3125C29.0964 42.6113 26.7377 39.1988 24.8477 36.4575L24.5402 36.0225C23.6514 34.7625 22.789 33.5325 22.069 32.3738C21.649 31.7025 21.2777 31.0537 20.9777 30.435C20.6215 29.7037 20.3627 29.0138 20.239 28.38C20.2052 28.2038 20.1602 27.9525 20.1152 27.6488C20.0214 27.0488 19.9202 26.2275 19.8752 25.2413C19.8415 24.6225 19.3202 24.1275 18.7052 24.1538C18.6939 24.1538 18.6827 24.15 18.6714 24.1538C18.3714 24.165 18.0864 24.3038 17.8802 24.5288C17.6739 24.75 17.5727 25.0463 17.5802 25.3538C17.6627 26.9025 17.8465 28.095 17.9965 28.8375C18.289 30.2288 18.9152 31.575 19.7102 32.925C19.2227 36.7913 16.3652 39.7688 12.9189 39.7688C9.12769 39.7688 6.04519 36.1725 6.04519 31.7475C6.04519 30.4538 6.25894 28.2638 6.88144 25.68C6.96769 25.3163 7.06145 24.945 7.1627 24.5663C7.26395 24.2025 7.37269 23.835 7.48519 23.4638C8.20894 21.12 9.25895 18.5888 10.7477 16.1588C10.9465 15.8325 11.1564 15.51 11.3739 15.1875C11.5839 14.8725 11.8014 14.5613 12.0302 14.25C12.9827 12.9563 14.0777 11.7113 15.3339 10.5788L19.5377 14.7788C19.3464 15.1613 19.1852 15.525 19.0502 15.8663C18.934 16.1438 18.934 16.4662 19.0502 16.74C19.1627 17.025 19.3915 17.2425 19.669 17.355C19.684 17.3625 19.699 17.3663 19.714 17.37C20.2802 17.58 20.9364 17.295 21.1577 16.7513C21.1689 16.74 21.1689 16.74 21.1689 16.74C21.2027 16.6612 21.2402 16.59 21.2739 16.515C21.4389 16.14 21.619 15.7762 21.8065 15.4312C22.0015 15.0787 22.2039 14.745 22.4214 14.4225C24.2102 11.7488 26.8352 10.0388 30.3639 9.26251C31.0089 9.12376 31.6839 9.01127 32.3889 8.93252C32.9964 8.86502 33.6302 8.82001 34.2827 8.80126C34.5452 8.79001 34.8077 8.77874 35.0815 8.77499C35.6402 8.77499 36.2477 8.78627 36.8439 8.83502C39.8964 9.01502 42.2964 9.63 44.1227 10.6912C44.4152 11.13 44.5989 11.64 44.6439 12.1838C44.7039 12.915 44.5164 13.6275 44.1189 14.2238C42.3752 12.4725 38.9102 11.1263 35.8352 11.1263C34.1289 11.1263 32.5464 11.34 31.1139 11.7525C30.2364 12.0075 29.4152 12.3338 28.6539 12.735C26.9439 13.635 25.5414 14.9025 24.4989 16.5C24.2927 16.815 24.0977 17.1338 23.9214 17.475C23.9139 17.49 23.9102 17.5087 23.8989 17.52C23.7152 17.8837 23.5502 18.2625 23.4039 18.6488C22.9052 19.935 22.6277 21.33 22.5602 22.7812C22.5077 23.865 22.5752 24.975 22.7514 26.1C23.2052 28.9425 24.3789 31.8525 26.2464 34.5C26.4677 34.8187 26.8239 34.9875 27.1839 34.9875C27.4127 34.9875 27.6415 34.92 27.844 34.7775C28.3577 34.4138 28.4852 33.6975 28.1177 33.18C24.7052 28.335 23.8539 22.5825 25.9539 18.5288C27.6677 15.2325 31.1739 13.4175 35.8352 13.4175C38.8802 13.4175 41.7902 14.9213 42.7164 16.0763C42.7164 16.1025 42.7089 16.1288 42.7089 16.155V27.7875C42.0339 27.3938 41.2539 27.165 40.4177 27.165C37.8902 27.165 35.8352 29.2238 35.8352 31.7475C35.8352 34.2788 37.8902 36.3338 40.4177 36.3338C42.9452 36.3338 45.0039 34.2788 45.0039 31.7475V16.65L45.2139 16.455C46.1364 15.5888 46.7214 14.4563 46.8902 13.2338C47.9289 14.775 48.4389 16.7362 48.4389 19.1925C48.4389 19.8037 48.9114 20.2875 49.5039 20.3287C49.5339 20.3287 49.5564 20.3362 49.5864 20.3362C50.2164 20.3362 50.7302 19.8337 50.7302 19.1925C50.7302 15.8925 49.9164 13.2788 48.2552 11.2275Z" fill="#3889CD"/>
</svg>
