<svg width="60" height="60" viewBox="0 0 60 60" fill="none" xmlns="http://www.w3.org/2000/svg">
<path fill-rule="evenodd" clip-rule="evenodd" d="M9.69768 43.9387C9.07143 43.9387 8.55393 44.4525 8.55393 45.0825C8.55393 45.7125 9.07143 46.23 9.69768 46.23C10.3277 46.23 10.8452 45.7125 10.8452 45.0825C10.8452 44.4525 10.3277 43.9387 9.69768 43.9387ZM5.11518 43.9387C4.48518 43.9387 3.97143 44.4525 3.97143 45.0825C3.97143 45.7125 4.48518 46.23 5.11518 46.23C5.74518 46.23 6.26268 45.7125 6.26268 45.0825C6.26268 44.4525 5.74518 43.9387 5.11518 43.9387ZM21.6677 33.915C21.1952 33.495 20.4714 33.54 20.0514 34.0125C19.6314 34.4887 19.6764 35.2125 20.1527 35.6325C23.0177 38.1637 24.5964 41.5238 24.5964 45.0825C24.5964 48.6488 23.0177 52.005 20.1527 54.54C19.6764 54.9562 19.6314 55.6837 20.0514 56.1562C20.2802 56.4112 20.5952 56.5425 20.9102 56.5425C21.1802 56.5425 21.4502 56.4487 21.6677 56.2575C25.0352 53.28 26.8839 49.3125 26.8839 45.0825C26.8839 40.8563 25.0352 36.8887 21.6677 33.915ZM17.7827 37.35C17.3102 36.9337 16.5827 36.975 16.1664 37.4512C15.7464 37.9237 15.7914 38.6475 16.2639 39.0675C18.0902 40.6837 19.0989 42.8213 19.0989 45.0825C19.0989 47.3475 18.0902 49.485 16.2639 51.1012C15.7914 51.5212 15.7464 52.245 16.1664 52.7175C16.3914 52.9725 16.7064 53.1037 17.0252 53.1037C17.2952 53.1037 17.5652 53.01 17.7827 52.8187C20.1077 50.76 21.3902 48.015 21.3902 45.0825C21.3902 42.1537 20.1077 39.4087 17.7827 37.35ZM13.8977 40.7887C13.4214 40.3725 12.6977 40.4137 12.2777 40.89C11.8614 41.3625 11.9027 42.0862 12.3789 42.5062C13.1664 43.2037 13.6014 44.1187 13.6014 45.0825C13.6014 46.05 13.1664 46.965 12.3789 47.6625C11.9027 48.0825 11.8614 48.8062 12.2777 49.2825C12.5064 49.5375 12.8214 49.6687 13.1364 49.6687C13.4064 49.6687 13.6802 49.5712 13.8977 49.38C15.1839 48.24 15.8927 46.7175 15.8927 45.0825C15.8927 43.4512 15.1839 41.9287 13.8977 40.7887ZM3.97143 29.0437C3.97143 32.2012 6.54018 34.77 9.69768 34.77C12.8589 34.77 15.4277 32.2012 15.4277 29.0437C15.4277 28.4925 15.3452 27.96 15.1989 27.4537L10.5077 32.145C10.2939 32.3587 10.0014 32.4825 9.69768 32.4825C9.68643 32.4825 9.67893 32.4825 9.66768 32.4825C9.34893 32.4712 9.05268 32.3325 8.84268 32.0962L6.55142 29.52C6.13142 29.0475 6.17268 28.32 6.64518 27.9C7.11768 27.48 7.84143 27.5212 8.26518 27.9975L9.75018 29.6662L14.0702 25.3462C13.0164 24.105 11.4489 23.3137 9.69768 23.3137C6.54018 23.3137 3.97143 25.8862 3.97143 29.0437ZM1.68018 29.0437C1.68018 24.6225 5.27643 21.0225 9.69768 21.0225C14.1227 21.0225 17.7189 24.6225 17.7189 29.0437C17.7189 33.465 14.1227 37.065 9.69768 37.065C5.27643 37.065 1.68018 33.465 1.68018 29.0437ZM44.2202 27.2362C49.2677 25.1662 51.7202 20.3437 50.9364 14.01C50.5052 10.4925 49.0652 5.84623 41.8839 6.12748C32.9064 6.47248 29.1152 10.3612 27.5102 13.56C24.9939 18.5925 26.1489 25.65 30.5252 31.9875C30.8852 32.5087 31.5977 32.64 32.1189 32.2762C32.6402 31.92 32.7714 31.2037 32.4114 30.6862C28.5114 25.035 27.4202 18.87 29.5614 14.5837C31.4627 10.7887 35.7527 8.65873 41.9702 8.41873C46.9239 8.23123 48.2027 10.5262 48.6639 14.2875C49.0427 17.3625 48.8552 22.86 43.3502 25.1175C41.7527 25.7737 40.8864 27.4087 41.3027 29.0625C41.5164 29.9212 42.0602 30.6412 42.8289 31.0875C43.6089 31.545 44.5689 31.6612 45.4577 31.4212C47.1227 30.96 48.6414 31.1137 48.9152 31.7737C49.0914 32.205 49.1102 32.25 48.3227 32.91C47.6214 33.5025 46.6614 34.305 46.5264 35.8162C46.4139 37.0575 46.7177 37.6912 46.9164 38.1075C47.0589 38.4075 47.1714 38.64 46.6014 40.08C46.3052 40.83 45.1202 41.1975 43.7702 40.965C40.9127 40.4625 37.5002 37.335 37.2827 30.1537C37.1514 25.7775 39.1389 23.0812 43.1889 22.14C43.8039 21.9975 44.1864 21.3787 44.0439 20.7637C43.9014 20.1487 43.2827 19.7662 42.6677 19.9087C37.5527 21.1012 34.8302 24.765 34.9914 30.225C35.2502 38.7787 39.6714 42.5737 43.3764 43.2225C43.7852 43.2937 44.1864 43.3275 44.5727 43.3275C46.5339 43.3275 48.1314 42.435 48.7314 40.9237C49.5302 38.9062 49.4477 38.0887 48.9827 37.1175C48.8439 36.8287 48.7502 36.6375 48.8102 36.0187C48.8552 35.4787 49.2002 35.1675 49.7964 34.665C50.5727 34.0163 51.8702 32.925 51.0302 30.8962C50.1039 28.6462 47.1189 28.5825 44.8464 29.2125C44.5427 29.295 44.2389 29.2612 43.9839 29.1112C43.8189 29.0137 43.6052 28.83 43.5114 28.4437C43.3689 27.8737 43.7777 27.42 44.2202 27.2362ZM22.3727 22.6162C23.0027 22.5937 23.4939 22.0537 23.4714 21.4237C23.4714 21.4125 23.4714 21.4125 23.4714 21.4012C23.4377 20.7825 22.8752 20.2762 22.2789 20.325C21.9714 20.3362 21.6827 20.475 21.4802 20.6925C21.2702 20.9212 21.1689 21.2175 21.1802 21.5137C21.2027 22.1325 21.7089 22.6162 22.3277 22.6162C22.3389 22.6162 22.3577 22.6162 22.3727 22.6162ZM56.6627 15.0975C56.6064 14.8012 56.5614 14.5162 56.5052 14.2162C55.9989 11.295 55.4852 8.25749 53.6402 5.83124C51.4502 2.94374 47.6477 1.54498 42.0339 1.54498H41.9289C41.8389 1.54498 41.7452 1.54498 41.6439 1.54498C25.1327 1.54498 21.9939 12.165 21.4089 16.7362C21.3639 17.0362 21.4427 17.3362 21.6264 17.5837C21.8102 17.8275 22.0727 17.985 22.3727 18.0337C22.4289 18.045 22.4852 18.045 22.5452 18.045C23.1039 18.045 23.5952 17.6212 23.6777 17.0587C24.5814 11.4337 27.4689 3.95248 41.9289 3.83623C46.9689 3.84748 50.0289 4.90123 51.8177 7.22623C53.3439 9.17623 53.8127 12.0187 54.3752 15.3075L54.4089 15.4875C54.5102 16.1062 55.1064 16.5337 55.7252 16.4175C56.0252 16.3725 56.2877 16.2112 56.4714 15.96C56.6402 15.705 56.7114 15.3975 56.6627 15.0975ZM54.3489 46.7925C54.4989 47.055 54.5214 47.3662 54.4314 47.6625L54.2364 48.27C53.4677 50.6775 52.8714 52.5675 51.6677 54.0787C50.3514 55.74 48.3339 56.5425 45.5064 56.5425C45.4614 56.5425 45.4127 56.5425 45.3564 56.5425H45.3114C40.4627 56.5425 36.8177 55.2825 34.4814 52.7962C32.7189 50.9175 31.6989 48.3487 31.4702 45.165C31.2752 42.1762 29.2802 38.8987 27.1614 35.79C26.8277 35.31 26.4939 34.8187 26.1639 34.3387C24.2739 31.5862 22.4852 28.9875 21.7877 26.295C21.6377 25.6762 22.0052 25.0575 22.6239 24.8962C23.2314 24.7462 23.8614 25.1362 24.0077 25.7325C24.5477 27.9562 26.4152 30.6712 28.3989 33.5587C28.6164 33.8662 28.8339 34.1888 29.0514 34.5075C31.3652 37.935 33.4727 41.3137 33.7614 45.0037C33.9452 47.6512 34.7477 49.7475 36.1427 51.2137C38.0664 53.2537 41.0814 54.24 45.3564 54.2512C48.0377 54.225 49.0464 53.6437 49.8827 52.635C50.7639 51.57 51.3939 49.7025 52.2414 46.9725C52.4252 46.38 53.0777 46.0462 53.6852 46.23C53.9739 46.32 54.2139 46.515 54.3489 46.7925Z" fill="#3889CD"/>
</svg>
