<svg width="53" height="60" viewBox="0 0 53 60" fill="none" xmlns="http://www.w3.org/2000/svg">
<path fill-rule="evenodd" clip-rule="evenodd" d="M15.3714 27.1763C14.7414 27.1763 14.2239 27.6825 14.2239 28.3237C14.2239 28.9537 14.7414 29.4675 15.3714 29.4675C16.0014 29.4675 16.5151 28.9537 16.5151 28.3237C16.5151 27.6825 16.0014 27.1763 15.3714 27.1763ZM15.3714 31.7588C14.7414 31.7588 14.2239 32.265 14.2239 32.9062C14.2239 33.5362 14.7414 34.0537 15.3714 34.0537C16.0014 34.0537 16.5151 33.5362 16.5151 32.9062C16.5151 32.265 16.0014 31.7588 15.3714 31.7588ZM15.3714 22.5938C14.7414 22.5938 14.2239 23.1 14.2239 23.7412C14.2239 24.3675 14.7414 24.885 15.3714 24.885C16.0014 24.885 16.5151 24.3675 16.5151 23.7412C16.5151 23.1 16.0014 22.5938 15.3714 22.5938ZM11.9326 44.3625V50.0888C11.9326 50.7225 12.4464 51.2363 13.0801 51.2363C13.7101 51.2363 14.2239 50.7225 14.2239 50.0888V44.3625C14.2239 43.7288 13.7101 43.215 13.0801 43.215C12.4464 43.215 11.9326 43.7288 11.9326 44.3625ZM8.54262 17.0812C8.17137 16.9425 7.77012 16.8637 7.35012 16.8637C5.45637 16.8637 3.91137 18.405 3.91137 20.3025C3.91137 21.645 4.69513 22.8113 5.82388 23.3738C6.48013 21.3563 7.35762 19.2112 8.54262 17.0812ZM33.8589 9.14251C33.8701 9.12001 33.8851 9.10123 33.9001 9.07873C33.9976 8.92123 34.0914 8.76374 34.1739 8.60624C34.1926 8.57249 34.2076 8.54248 34.2226 8.50873C34.3051 8.33998 34.3839 8.16748 34.4476 7.99123L34.4514 7.98374C34.5151 7.80749 34.5676 7.63124 34.6089 7.45124C34.6164 7.42499 34.6239 7.39876 34.6276 7.37251C34.6689 7.19626 34.6951 7.02373 34.7139 6.84373C34.7176 6.80998 34.7214 6.78001 34.7251 6.74626C34.7401 6.57001 34.7476 6.38624 34.7439 6.20249C34.7439 6.17999 34.7401 6.1575 34.7401 6.135C34.7326 5.95125 34.7176 5.76749 34.6876 5.57999C34.6876 5.56499 34.6876 5.55373 34.6839 5.54248C34.6576 5.35123 34.6164 5.15998 34.5639 4.96498C34.5564 4.93123 34.5489 4.89748 34.5376 4.85998C34.4851 4.67248 34.4251 4.48123 34.3539 4.28998C34.3501 4.27498 34.3426 4.26001 34.3389 4.24501C32.7114 4.28251 29.6326 4.67999 29.0626 4.79999C23.3551 5.98874 18.6001 8.50499 14.8989 12.2925C14.9214 12.3 14.9401 12.3075 14.9626 12.315C15.0639 12.3525 15.1614 12.3938 15.2626 12.435C15.4464 12.5063 15.6264 12.5812 15.8064 12.66C15.8964 12.6975 15.9826 12.735 16.0726 12.7762C18.3976 13.8375 20.2951 15.375 21.7464 17.3738C21.7614 17.3925 21.7764 17.4113 21.7914 17.43C21.9489 17.6513 22.1026 17.8763 22.2489 18.105C22.2714 18.1425 22.2976 18.18 22.3201 18.2138C22.4664 18.4463 22.6051 18.6825 22.7401 18.9225C22.8039 19.0387 22.8639 19.155 22.9276 19.275C22.9689 19.3537 23.0101 19.4325 23.0514 19.515C26.5314 13.9688 31.9314 10.1925 33.8589 9.14251ZM44.0139 37.4888H48.5964V35.1938C48.5964 35.0513 48.5701 34.9125 48.5176 34.7887C48.3714 34.3987 48.0151 34.1137 47.5876 34.065C47.5426 34.0575 47.4976 34.05 47.4526 34.05H45.1614C45.0001 34.05 44.8464 34.0838 44.7039 34.1438C44.3326 34.305 44.0701 34.6612 44.0251 35.0775C44.0214 35.1187 44.0139 35.1525 44.0139 35.1938V37.4888ZM36.5739 8.86874C37.8564 9.08998 39.0151 9.71624 40.0351 10.7437C44.6176 15.3675 44.8989 26.76 44.4489 31.8337C44.6776 31.785 44.9176 31.7588 45.1614 31.7588H46.6989C46.8901 28.5225 46.9651 23.2725 46.8939 21.0975C46.6726 14.1075 44.8839 9.38624 41.4226 6.66749C40.1364 5.65499 38.5689 4.93124 36.8251 4.53749C36.8364 4.57499 36.8401 4.61249 36.8476 4.64999C36.8701 4.74374 36.8889 4.8375 36.9076 4.935C36.9226 5.02125 36.9414 5.1075 36.9526 5.19375C36.9676 5.2875 36.9789 5.38124 36.9901 5.47499C37.0014 5.56124 37.0126 5.64374 37.0201 5.72999C37.0276 5.82374 37.0314 5.92123 37.0351 6.01498C37.0389 6.09748 37.0426 6.17999 37.0426 6.25874C37.0464 6.35999 37.0426 6.46125 37.0389 6.55875C37.0389 6.63375 37.0389 6.71249 37.0314 6.78374C37.0239 6.90374 37.0126 7.02374 36.9976 7.13999C36.9901 7.19624 36.9864 7.24874 36.9789 7.30499C36.9564 7.47374 36.9264 7.64249 36.8889 7.81124C36.8776 7.86749 36.8626 7.91624 36.8514 7.97249C36.8214 8.08874 36.7951 8.205 36.7614 8.32125C36.7389 8.385 36.7164 8.45251 36.6939 8.51626C36.6601 8.61751 36.6301 8.72248 36.5889 8.81998C36.5851 8.83498 36.5776 8.85373 36.5739 8.86874ZM37.1401 50.0888C37.1401 51.3525 38.1676 52.3838 39.4314 52.3838H41.7226V44.3625H39.4314C38.1676 44.3625 37.1401 45.39 37.1401 46.6538V50.0888ZM47.4526 50.0888L48.4764 39.7763H44.0139V52.3838H46.2414C46.4851 52.2863 47.4526 51.6338 47.4526 50.0888ZM50.8876 38.6325C50.8876 38.6513 50.8839 38.6737 50.8839 38.6887C50.8839 38.7113 50.8839 38.73 50.8839 38.745L49.7401 50.205C49.7439 52.8862 47.7076 54.675 46.3051 54.675H39.4314C36.9039 54.675 34.8489 52.62 34.8489 50.0888V46.6538C34.8489 44.1263 36.9039 42.0713 39.4314 42.0713H41.7226V35.1938C41.7226 34.6875 41.8351 34.2075 42.0376 33.7725C41.9889 33.45 41.9851 33.1162 42.0339 32.7825C42.6639 28.4175 42.4914 16.4775 38.4076 12.3562C37.4289 11.37 36.3076 10.9575 34.9801 11.1C33.7351 11.7675 27.0826 16.2187 23.9326 22.6275C23.9289 22.6425 23.9176 22.65 23.9139 22.665C22.8114 24.9337 22.2451 27.225 22.2451 29.4675V46.335C22.2451 46.9763 21.7276 47.4788 21.1014 47.4788C20.4676 47.4788 19.9539 46.9763 19.9539 46.335V29.4675C19.9539 27.0037 20.5276 24.5175 21.6601 22.0688C21.2739 21.0413 20.8164 20.115 20.2839 19.2825C20.2764 19.2675 20.2651 19.2525 20.2539 19.2375C20.1339 19.0537 20.0101 18.87 19.8826 18.69C19.2751 17.8612 18.5776 17.1263 17.7901 16.4888C17.7564 16.4625 17.7226 16.4362 17.6851 16.41C17.5314 16.2862 17.3701 16.1662 17.2051 16.05C17.1301 15.9975 17.0514 15.9412 16.9726 15.8887C16.8526 15.81 16.7326 15.7313 16.6126 15.6563C16.4889 15.5813 16.3614 15.5062 16.2339 15.4312C16.1589 15.39 16.0839 15.3487 16.0089 15.3037C15.8364 15.21 15.6601 15.12 15.4801 15.0338C15.4576 15.0188 15.4276 15.0075 15.4014 14.9925C15.0826 14.8387 14.7451 14.6963 14.4001 14.5613C14.3776 14.5538 14.3551 14.5425 14.3326 14.535C13.9839 14.4 13.6239 14.2762 13.2489 14.16C12.6451 14.9137 12.0939 15.6825 11.5876 16.4625C11.3701 16.8 11.1564 17.1375 10.9539 17.4788C10.7364 17.85 10.5301 18.2212 10.3276 18.5925C9.39763 20.325 8.68887 22.0462 8.14887 23.64C8.00637 24.0562 7.87887 24.465 7.75887 24.8625C7.63887 25.2637 7.53012 25.65 7.42887 26.025C7.33137 26.4075 7.23762 26.7787 7.15512 27.1312C6.21387 31.1287 6.20262 34.0162 6.20262 34.0537V49.7025C6.11262 51.7087 8.59887 54.3563 10.8564 54.675H18.8064C19.0801 54.675 19.3464 54.5738 19.5526 54.4013C19.9464 54.0638 20.5351 54.0562 20.9476 54.3375C21.0264 54.39 21.1014 54.4537 21.1689 54.525C21.5814 54.9975 21.5214 55.7287 21.0414 56.1412C20.4226 56.67 19.6314 56.9663 18.8176 56.9663L10.6276 56.955C7.00512 56.3588 4.00137 53.1187 3.91137 49.7025V34.0537C3.91137 34.0312 3.91137 34.0162 3.91137 33.9712C3.94137 32.9175 4.11013 29.6662 5.17138 25.5975C3.09013 24.7387 1.62012 22.6875 1.62012 20.3025C1.62012 17.1412 4.19262 14.5725 7.35012 14.5725C8.20512 14.5725 9.01137 14.7637 9.74262 15.1012C10.4026 14.085 11.1414 13.0838 11.9664 12.1125V12.1087C16.1551 7.19248 21.7501 3.97874 28.5939 2.55749C29.2764 2.41499 33.6114 1.82625 35.2089 1.9725C38.1264 2.235 40.7664 3.23623 42.8401 4.86373C46.8639 8.02873 48.9414 13.3125 49.1851 21.0225C49.2601 23.3513 49.1814 28.8338 48.9751 32.1188C50.1076 32.6813 50.8876 33.8475 50.8876 35.1938V38.6325ZM22.2451 50.9175C22.2451 51.5475 21.7276 52.0613 21.1014 52.0613C20.4676 52.0613 19.9539 51.5475 19.9539 50.9175C19.9539 50.2875 20.4676 49.77 21.1014 49.77C21.7276 49.77 22.2451 50.2875 22.2451 50.9175Z" fill="#3889CD"/>
</svg>
