<svg width="65" height="60" viewBox="0 0 65 60" fill="none" xmlns="http://www.w3.org/2000/svg">
<g clip-path="url(#clip0_1_1385)">
<path fill-rule="evenodd" clip-rule="evenodd" d="M9.99003 31.9843C9.45861 31.5 8.63146 31.53 8.14289 32.0658C7.65432 32.5972 7.6886 33.4243 8.22003 33.9172C11.1815 36.6386 12.8143 40.2472 12.8143 44.0829C12.8143 47.9143 11.1815 51.5229 8.22003 54.2486C7.6886 54.7372 7.65432 55.5643 8.14289 56.0957C8.40003 56.3786 8.75574 56.52 9.10717 56.52C9.42431 56.52 9.74146 56.4086 9.99003 56.1772C13.5 52.95 15.4329 48.6558 15.4329 44.0829C15.4329 39.5058 13.5 35.2114 9.99003 31.9843ZM5.95289 35.6958C5.42146 35.2072 4.59432 35.2415 4.10146 35.7729C3.61289 36.3086 3.65145 37.1357 4.18288 37.6243C6.06431 39.3557 7.10573 41.6486 7.10573 44.0829C7.10573 46.5129 6.06431 48.8057 4.18288 50.5372C3.65145 51.0257 3.61289 51.8572 4.10146 52.3886C4.36289 52.6715 4.71431 52.8129 5.07002 52.8129C5.38288 52.8129 5.70431 52.6972 5.95289 52.4657C8.38288 50.2329 9.7243 47.2543 9.7243 44.0829C9.7243 40.9072 8.38288 37.9286 5.95289 35.6958ZM1.91574 39.4072C1.38431 38.9186 0.552883 38.9529 0.064312 39.4843C-0.424259 40.02 -0.389983 40.8472 0.141445 41.3357C0.947159 42.0772 1.39287 43.05 1.39287 44.0829C1.39287 45.1115 0.947159 46.0843 0.141445 46.8258C-0.389983 47.3143 -0.424259 48.1415 0.064312 48.6772C0.325741 48.96 0.677163 49.1015 1.02859 49.1015C1.34573 49.1015 1.66288 48.9857 1.91574 48.7586C3.26574 47.5115 4.01144 45.8529 4.01144 44.0829C4.01144 42.3086 3.26574 40.65 1.91574 39.4072ZM49.2815 36.8786H53.8672C54.9515 36.8786 55.83 35.9958 55.83 34.9158C55.83 33.8315 54.9515 32.9529 53.8672 32.9529H49.2815V36.8786ZM62.3786 38.19C62.3786 38.9143 61.7915 39.4972 61.0672 39.4972H42.7372C42.0129 39.4972 41.4257 38.9143 41.4257 38.19C41.4257 37.4658 42.0129 36.8786 42.7372 36.8786H46.6672V32.9529H44.0443C43.32 32.9529 42.7372 32.3658 42.7372 31.6415C42.7372 30.9172 43.32 30.3343 44.0443 30.3343H61.0672C61.7915 30.3343 62.3786 30.9172 62.3786 31.6415C62.3786 32.3658 61.7915 32.9529 61.0672 32.9529H58.0029C58.2857 33.5486 58.4486 34.2129 58.4486 34.9158C58.4486 35.6186 58.2857 36.2829 58.0029 36.8786H61.0672C61.7915 36.8786 62.3786 37.4658 62.3786 38.19ZM38.3486 33.4329C39.1329 32.9058 40.7657 31.8 39.8443 29.7429C38.4043 26.5329 36.0857 27.3986 34.8429 27.8615C34.59 27.9557 34.3372 28.05 34.0714 28.1229C33.8872 28.1743 33.7029 28.1529 33.5529 28.0629C33.4586 28.0114 33.3386 27.9086 33.2786 27.6686C33.1972 27.3472 33.45 27.0815 33.7243 26.97C38.2843 25.0972 40.5 20.7557 39.7972 15.0515C39.4029 11.8543 38.1 7.61145 31.5472 7.87716C23.5286 8.18573 20.1257 11.6829 18.6857 14.5586C16.4315 19.0715 17.4515 25.38 21.3515 31.0243C21.7629 31.62 22.5772 31.7658 23.1729 31.3543C23.7686 30.9472 23.9186 30.1286 23.5029 29.5372C20.1472 24.6772 19.2 19.3843 21.03 15.7329C22.6414 12.51 26.3143 10.7014 31.6458 10.4957C35.8115 10.35 36.8057 12.1672 37.2 15.3729C37.5215 17.9829 37.3672 22.6457 32.73 24.5486C31.1872 25.1786 30.3472 26.7643 30.75 28.3629C30.9643 29.1986 31.4872 29.8972 32.2329 30.33C32.9915 30.7715 33.9172 30.8872 34.77 30.6472C35.1086 30.5572 35.4386 30.4372 35.76 30.3129C36.99 29.8543 37.02 29.8457 37.4572 30.8443C37.3286 30.9643 37.0672 31.14 36.8829 31.2643C36.0858 31.8043 34.8815 32.6186 34.8815 34.26C34.8815 35.1086 35.2415 35.6657 35.4815 36.03C35.73 36.4114 35.8843 36.6386 35.4086 37.8343C35.3057 38.0958 34.9886 38.3057 34.5429 38.4086C33.6729 38.61 32.1472 38.4 30.7286 37.1229C30.1929 36.6343 29.3657 36.6772 28.8815 37.2129C28.3972 37.7486 28.4358 38.5757 28.9715 39.0643C30.42 40.3714 32.22 41.0957 33.9043 41.0957C34.3243 41.0957 34.74 41.0529 35.1386 40.9586C36.4372 40.6586 37.4229 39.87 37.8472 38.7986C38.7429 36.5315 38.25 35.4772 37.6715 34.5943C37.5086 34.3415 37.4957 34.3115 37.4957 34.26C37.4957 34.0458 37.7486 33.84 38.3486 33.4329ZM18.4457 8.14718C21.42 5.49003 25.8557 4.14433 31.6329 4.14433C36.45 4.15719 39.36 5.15144 41.0615 7.35001C42.5015 9.19716 42.96 11.9572 43.5086 15.1543L43.5215 15.2743C43.6286 15.9 44.1772 16.3586 44.8157 16.3586C44.8972 16.3586 44.9615 16.3457 45.0429 16.3329C45.3815 16.2814 45.6815 16.0843 45.8786 15.7972C46.0886 15.51 46.1658 15.1672 46.1015 14.8286C46.05 14.5286 45.9986 14.2243 45.9472 13.9243C45.4586 11.0829 44.9486 8.14719 43.14 5.75147C40.98 2.91004 37.2472 1.52576 31.7486 1.52576H31.6072C25.1657 1.52576 20.1472 3.09431 16.6929 6.19717C16.4314 6.43288 16.2729 6.76288 16.26 7.10145C16.2343 7.45716 16.35 7.79573 16.5858 8.05716C17.0572 8.56716 17.9229 8.62289 18.4457 8.14718ZM13.8472 12.51C14.0315 12.5915 14.2286 12.6429 14.4257 12.6429C14.9357 12.6429 15.3815 12.3515 15.6043 11.9057C15.9172 11.2629 15.6557 10.4786 15.0129 10.1529C14.3743 9.83576 13.5772 10.1143 13.26 10.74C13.1058 11.0572 13.0758 11.4214 13.1958 11.7514C13.2986 12.0772 13.5343 12.3515 13.8472 12.51ZM43.9414 46.4658C43.86 46.7015 43.7829 46.9243 43.7186 47.1472C42.9857 49.4486 42.4114 51.27 41.2157 52.7529C39.9343 54.3857 37.8772 55.2129 35.1129 55.2129H34.9072C30.1543 55.2129 26.58 53.9658 24.2743 51.5186C22.53 49.6586 21.5357 47.1343 21.3 44.0014C21.1157 41.1343 19.1272 37.8858 17.0058 34.8C16.7186 34.3672 16.4143 33.9215 16.1143 33.4886C14.2029 30.7115 12.3986 28.0929 11.8329 25.29C11.5843 24.0857 11.31 22.1872 11.31 19.9329C11.31 18.6129 11.4 17.3315 11.5972 16.11C11.7 15.4029 12.3686 14.9186 13.0886 15.0214C13.4443 15.0772 13.7443 15.2572 13.9415 15.5486C14.1515 15.8229 14.2286 16.1743 14.1772 16.5172C14.0057 17.6057 13.9286 18.7415 13.9286 19.9329C13.9286 22.0843 14.2157 23.9014 14.4 24.78C14.7943 26.9786 16.77 29.8329 18.8529 32.8586L19.1657 33.3172C21.1457 36.24 23.6057 39.8786 23.9186 43.8215C24.1029 46.3329 24.8615 48.3257 26.1686 49.7143C28.0072 51.6343 30.8743 52.5815 34.9586 52.59C37.4743 52.5686 38.4172 52.0157 39.1886 51.0986C40.0243 50.1043 40.6414 48.2186 41.4386 45.6772C41.4386 45.6772 41.4386 45.6643 41.4514 45.6643C41.6614 44.9957 42.4115 44.6186 43.0886 44.8286C43.77 45.0386 44.1514 45.7843 43.9414 46.4658Z" fill="#3889CD"/>
</g>
<defs>
<clipPath id="clip0_1_1385">
<rect width="64.2857" height="60" fill="white"/>
</clipPath>
</defs>
</svg>
