<svg width="52" height="60" viewBox="0 0 52 60" fill="none" xmlns="http://www.w3.org/2000/svg">
<path fill-rule="evenodd" clip-rule="evenodd" d="M5.12418 42.32C5.12418 38.74 6.64817 35.372 9.41217 32.828C9.90817 32.372 9.94018 31.6 9.48418 31.104C9.02818 30.608 8.25617 30.576 7.76017 31.032C4.48417 34.04 2.68018 38.048 2.68018 42.32C2.68018 46.588 4.48417 50.596 7.76017 53.608C7.99217 53.824 8.28818 53.928 8.58418 53.928C8.91617 53.928 9.24418 53.796 9.48418 53.536C9.94018 53.036 9.90817 52.264 9.41217 51.808C6.64817 49.268 5.12418 45.896 5.12418 42.32ZM10.4522 42.32C10.4522 40.048 11.4242 37.908 13.1802 36.292C13.6762 35.836 13.7122 35.064 13.2522 34.568C12.8002 34.072 12.0242 34.036 11.5282 34.492C9.26018 36.58 8.00817 39.356 8.00817 42.32C8.00817 45.28 9.26018 48.06 11.5282 50.144C11.7602 50.36 12.0602 50.468 12.3522 50.468C12.6842 50.468 13.0122 50.332 13.2522 50.072C13.7122 49.576 13.6762 48.8 13.1802 48.344C11.4242 46.728 10.4522 44.588 10.4522 42.32ZM17.0242 38.028C16.5682 37.532 15.7922 37.5 15.2962 37.956C14.0362 39.116 13.3402 40.664 13.3402 42.32C13.3402 43.972 14.0362 45.524 15.2962 46.68C15.5322 46.9 15.8282 47.004 16.1242 47.004C16.4522 47.004 16.7802 46.872 17.0242 46.608C17.4802 46.112 17.4482 45.34 16.9482 44.884C16.1962 44.192 15.7842 43.28 15.7842 42.32C15.7842 41.356 16.1962 40.448 16.9482 39.756C17.4482 39.3 17.4802 38.524 17.0242 38.028ZM38.2802 28.172C43.6642 25.96 46.2762 20.82 45.4442 14.06C44.9842 10.312 43.4562 5.35998 35.7882 5.65598C26.2122 6.01998 22.1682 10.168 20.4562 13.584C17.7722 18.948 19.0042 26.48 23.6722 33.236C24.0562 33.792 24.8162 33.928 25.3722 33.548C25.9282 33.164 26.0682 32.404 25.6842 31.848C21.5242 25.824 20.3562 19.244 22.6442 14.676C24.6682 10.628 29.2482 8.35198 35.8802 8.09598C41.1642 7.87998 42.5242 10.34 43.0202 14.356C43.4242 17.64 43.2242 23.5 37.3522 25.912C35.6482 26.608 34.7242 28.352 35.1682 30.116C35.3962 31.036 35.9762 31.804 36.7962 32.28C37.6282 32.764 38.6522 32.896 39.5962 32.632C41.3762 32.14 42.9962 32.304 43.2842 33.008C43.4762 33.468 43.4962 33.516 42.6562 34.224C41.9082 34.848 40.8842 35.712 40.7402 37.32C40.6202 38.648 40.9402 39.32 41.1562 39.764C41.3082 40.084 41.4282 40.332 40.8202 41.868C40.5042 42.668 39.2322 43.068 37.8002 42.816C34.7522 42.28 31.1082 38.94 30.8802 31.284C30.7402 26.616 32.8602 23.74 37.1762 22.732C37.8362 22.58 38.2442 21.92 38.0922 21.264C37.9362 20.608 37.2762 20.2 36.6242 20.352C31.1682 21.624 28.2602 25.532 28.4362 31.356C28.7122 40.484 33.4242 44.528 37.3802 45.22C37.8162 45.3 38.2442 45.336 38.6562 45.336C40.7482 45.336 42.4522 44.38 43.0922 42.768C43.9442 40.62 43.8562 39.748 43.3602 38.712C43.2122 38.4 43.1122 38.196 43.1762 37.54C43.2242 36.964 43.5882 36.632 44.2282 36.092C45.0562 35.4 46.4402 34.24 45.5442 32.076C44.5562 29.676 41.3722 29.608 38.9442 30.276C38.6242 30.364 38.2962 30.324 38.0242 30.168C37.8522 30.068 37.6242 29.872 37.5202 29.456C37.3682 28.848 37.8082 28.364 38.2802 28.172ZM51.5522 15.224C51.4922 14.908 51.4442 14.588 51.3842 14.268C50.8442 11.156 50.2842 7.92798 48.3242 5.33598C45.9922 2.25598 41.9362 0.763977 35.9442 0.763977H35.8362C35.7402 0.763977 35.6282 0.763977 35.5322 0.763977C17.9202 0.763977 14.5722 12.092 13.9482 16.972C13.9002 17.288 13.9842 17.604 14.1802 17.876C14.3762 18.132 14.6562 18.304 14.9762 18.352C15.0362 18.364 15.0962 18.364 15.1602 18.364C15.7562 18.364 16.2802 17.912 16.3682 17.312C17.3322 11.312 20.4122 3.33198 35.8362 3.20798C41.2162 3.21998 44.4762 4.34398 46.3842 6.82798C48.0082 8.90398 48.5082 11.936 49.1082 15.444L49.1322 15.64C49.2562 16.3 49.8922 16.74 50.5522 16.64C51.2122 16.52 51.6642 15.884 51.5522 15.224ZM48.3762 48.416C47.7402 48.22 47.0322 48.588 46.8362 49.224C45.9202 52.132 45.2602 54.136 44.3202 55.26C43.4242 56.324 42.3522 56.948 39.4922 56.984C34.9322 56.972 31.7162 55.92 29.6642 53.748C28.1842 52.18 27.3322 49.944 27.1242 47.12C26.8162 43.188 24.5682 39.58 22.1002 35.928C21.8802 35.584 21.6482 35.252 21.4162 34.924C19.3002 31.844 17.2962 28.948 16.7202 26.564C16.5642 25.928 15.8802 25.512 15.2442 25.672C14.5842 25.844 14.1922 26.504 14.3522 27.164C15.0962 30.048 17.0162 32.824 19.0322 35.768C19.3882 36.268 19.7402 36.78 20.0842 37.296C22.3442 40.608 24.4722 44.104 24.6762 47.292C24.9362 50.688 26.0082 53.428 27.8922 55.432C30.3842 58.084 34.2722 59.428 39.4402 59.428H39.4922C39.5522 59.428 39.6002 59.428 39.6522 59.428C42.6682 59.428 44.8202 58.576 46.2242 56.8C47.4962 55.2 48.1322 53.196 48.9362 50.656C49.0122 50.42 49.0962 50.188 49.1682 49.956C49.3642 49.324 49.0122 48.624 48.3762 48.416ZM14.9242 23.24C14.2642 23.24 13.7282 22.728 13.7042 22.068C13.6922 21.748 13.8002 21.432 14.0202 21.188C14.2522 20.956 14.5482 20.808 14.8762 20.796C15.5002 20.76 16.1122 21.284 16.1482 21.944C16.1482 21.956 16.1482 21.956 16.1482 21.968C16.1722 22.644 15.6482 23.216 14.9762 23.24C14.9602 23.24 14.9482 23.24 14.9242 23.24Z" fill="#3889CD"/>
</svg>
