<svg width="60" height="60" viewBox="0 0 60 60" fill="none" xmlns="http://www.w3.org/2000/svg">
<path fill-rule="evenodd" clip-rule="evenodd" d="M28.8599 43.9387H24.2774C23.6436 43.9387 23.1299 44.4525 23.1299 45.0825C23.1299 45.7163 23.6436 46.23 24.2774 46.23H28.8599C29.4936 46.23 30.0036 45.7163 30.0036 45.0825C30.0036 44.4525 29.4936 43.9387 28.8599 43.9387ZM10.5261 43.9387C9.89613 43.9387 9.38238 44.4525 9.38238 45.0825C9.38238 45.7125 9.89613 46.23 10.5261 46.23C11.1561 46.23 11.6736 45.7125 11.6736 45.0825C11.6736 44.4525 11.1561 43.9387 10.5261 43.9387ZM5.94363 43.9387C5.31363 43.9387 4.79613 44.4525 4.79613 45.0825C4.79613 45.7125 5.31363 46.23 5.94363 46.23C6.57363 46.23 7.09113 45.7125 7.09113 45.0825C7.09113 44.4525 6.57363 43.9387 5.94363 43.9387ZM17.4636 37.35C16.9911 36.9337 16.2674 36.975 15.8474 37.4512C15.4274 37.9237 15.4724 38.6475 15.9449 39.0675C17.7711 40.6837 18.7799 42.8213 18.7799 45.0825C18.7799 47.3475 17.7711 49.485 15.9449 51.1012C15.4724 51.5212 15.4274 52.245 15.8474 52.7175C16.0724 52.9725 16.3874 53.1037 16.7061 53.1037C16.9761 53.1037 17.2461 53.01 17.4636 52.8187C19.7886 50.76 21.0711 48.015 21.0711 45.0825C21.0711 42.1537 19.7886 39.4087 17.4636 37.35ZM14.7224 40.7887C14.2461 40.3725 13.5224 40.4137 13.1061 40.89C12.6861 41.3625 12.7311 42.0862 13.2074 42.5062C13.9911 43.2037 14.4299 44.1187 14.4299 45.0825C14.4299 46.05 13.9911 46.965 13.2074 47.6625C12.7311 48.0825 12.6861 48.8062 13.1061 49.2825C13.3311 49.5375 13.6461 49.6687 13.9649 49.6687C14.2349 49.6687 14.5049 49.5712 14.7224 49.38C16.0124 48.24 16.7174 46.7175 16.7174 45.0825C16.7174 43.4512 16.0124 41.9287 14.7224 40.7887ZM4.79613 29.0437C4.79613 30.21 5.14864 31.2937 5.74864 32.1975L8.90614 29.0437L5.74864 25.8862C5.14864 26.7937 4.79613 27.8775 4.79613 29.0437ZM16.2561 29.0437C16.2561 27.8775 15.9036 26.7937 15.3036 25.8862L12.1461 29.0437L15.3036 32.1975C15.9036 31.2937 16.2561 30.21 16.2561 29.0437ZM13.6836 33.8212L10.5261 30.6637L7.36864 33.8212C8.27614 34.4212 9.35988 34.77 10.5261 34.77C11.6924 34.77 12.7761 34.4212 13.6836 33.8212ZM7.36864 24.2662L10.5261 27.4238L13.6836 24.2662C12.7761 23.6662 11.6924 23.3137 10.5261 23.3137C9.35988 23.3137 8.27614 23.6662 7.36864 24.2662ZM4.81489 34.665C3.38989 33.2138 2.50488 31.2337 2.50488 29.0437C2.50488 26.8575 3.38989 24.87 4.81489 23.4225C4.82989 23.4075 4.84113 23.3887 4.85613 23.3737C4.87113 23.3587 4.88988 23.3475 4.90488 23.3325C6.35238 21.9075 8.33988 21.0225 10.5261 21.0225C12.7161 21.0225 14.6999 21.9075 16.1474 23.3325C16.1661 23.3475 16.1811 23.3587 16.1961 23.3737C16.2149 23.3887 16.2261 23.4075 16.2411 23.4225C17.6624 24.87 18.5474 26.8575 18.5474 29.0437C18.5474 31.2337 17.6624 33.2138 16.2411 34.665C16.2261 34.68 16.2149 34.6988 16.1961 34.7138C16.1811 34.7288 16.1661 34.74 16.1474 34.755C14.6999 36.18 12.7161 37.065 10.5261 37.065C8.33988 37.065 6.35238 36.18 4.90488 34.755C4.88988 34.74 4.87113 34.7288 4.85613 34.7138C4.84113 34.6988 4.82989 34.68 4.81489 34.665ZM45.0486 27.2362C50.0961 25.1662 52.5449 20.3437 51.7649 14.01C51.3336 10.4925 49.9049 5.84623 42.7124 6.12748C33.7349 6.47248 29.9399 10.3612 28.3386 13.56C25.8224 18.5925 26.9774 25.65 31.3536 31.9875C31.7136 32.5087 32.4224 32.6362 32.9474 32.2762C33.4686 31.92 33.5961 31.2037 33.2399 30.6862C29.3361 25.035 28.2449 18.87 30.3899 14.5837C32.2874 10.7887 36.5774 8.65873 42.7986 8.41873C47.7299 8.24623 49.0274 10.5225 49.4924 14.2875C49.8674 17.3625 49.6836 22.86 44.1786 25.1175C42.5811 25.7737 41.7149 27.4087 42.1274 29.0625C42.3449 29.9212 42.8886 30.6412 43.6574 31.0875C44.4411 31.545 45.3974 31.6687 46.2824 31.4212C47.9511 30.96 49.4661 31.1137 49.7436 31.7737C49.9199 32.205 49.9386 32.25 49.1511 32.91C48.4499 33.5025 47.4899 34.305 47.3511 35.8162C47.2424 37.0575 47.5424 37.6912 47.7411 38.1075C47.8874 38.4075 47.9999 38.64 47.4261 40.08C47.1336 40.8263 45.9411 41.1975 44.5986 40.965C41.7411 40.4625 38.3249 37.335 38.1111 30.1537C37.9761 25.7775 39.9674 23.0812 44.0136 22.14C44.6286 21.9975 45.0149 21.3787 44.8686 20.7637C44.7261 20.1487 44.1111 19.7662 43.4961 19.9087C38.3811 21.1012 35.6549 24.765 35.8199 30.225C36.0749 38.7787 40.4961 42.5737 44.2049 43.2225C44.6136 43.2937 45.0149 43.3275 45.4011 43.3275C47.3624 43.3275 48.9636 42.435 49.5599 40.9237C50.3586 38.9062 50.2761 38.0887 49.8111 37.1175C49.6724 36.8287 49.5786 36.6375 49.6349 36.0187C49.6836 35.4787 50.0249 35.1675 50.6249 34.665C51.4011 34.0163 52.6949 32.925 51.8586 30.8962C50.9324 28.6462 47.9474 28.5825 45.6711 29.2125C45.3711 29.295 45.0674 29.2612 44.8086 29.1112C44.6474 29.0137 44.4336 28.83 44.3361 28.4437C44.1936 27.8737 44.6061 27.42 45.0486 27.2362ZM54.5136 46.23C53.9174 46.0462 53.2536 46.38 53.0699 46.9725C52.2111 49.7137 51.5924 51.5812 50.7074 52.635C49.8711 53.6437 48.8661 54.225 46.1811 54.2512C41.9099 54.24 38.8949 53.2537 36.9711 51.2137C35.5836 49.7475 34.7699 47.6512 34.5899 45.0037C34.3011 41.3137 32.1936 37.935 29.8799 34.5075C29.6624 34.1888 29.4561 33.8775 29.2349 33.57C27.2549 30.6825 25.3761 27.9637 24.8361 25.7325C24.6899 25.1362 24.0599 24.7462 23.4486 24.8962C23.1524 24.975 22.9011 25.1587 22.7399 25.4212C22.5899 25.6875 22.5449 25.995 22.6124 26.295C23.3136 28.9875 25.0986 31.5862 26.9924 34.3387C27.3224 34.8187 27.6561 35.31 27.9861 35.79C30.1086 38.8987 32.1036 42.1762 32.2949 45.165C32.5386 48.3487 33.5436 50.9175 35.3099 52.7962C37.6461 55.2825 41.2911 56.5425 46.1361 56.5425H46.1811C46.2411 56.5425 46.2861 56.5425 46.3311 56.5425C49.1624 56.5425 51.1799 55.74 52.4961 54.0787C53.6886 52.5787 54.2961 50.6775 55.0649 48.2812L55.2561 47.6625C55.4399 47.055 55.1099 46.4137 54.5136 46.23ZM57.4799 15.0975C57.4349 14.8012 57.3786 14.505 57.3336 14.205C56.8274 11.2837 56.3024 8.25749 54.4649 5.83124C52.2786 2.94374 48.4761 1.54498 42.8586 1.54498H42.7574C42.6636 1.54498 42.5736 1.54498 42.4836 1.54498C25.9611 1.54498 22.8186 12.165 22.2374 16.7362C22.1436 17.355 22.5786 17.94 23.2086 18.0337C23.2574 18.045 23.3136 18.045 23.3699 18.045C23.9324 18.045 24.4236 17.6212 24.5061 17.0587C25.4099 11.4337 28.2974 3.95248 42.7574 3.83623C47.8011 3.84748 50.8461 4.90123 52.6461 7.22623C54.1686 9.17623 54.6374 12.0187 55.1999 15.3075L55.2336 15.4875C55.3386 16.1062 55.9349 16.5337 56.5536 16.4175C56.8499 16.3725 57.1124 16.2112 57.2961 15.96C57.4686 15.705 57.5399 15.3975 57.4799 15.0975ZM23.1524 22.6162C22.5336 22.6162 22.0311 22.1325 22.0086 21.5137C21.9974 21.2175 22.0986 20.9212 22.3049 20.6925C22.5224 20.475 22.7999 20.3362 23.1074 20.325C23.7149 20.2762 24.2774 20.7937 24.2961 21.4237C24.3224 22.0537 23.8311 22.5937 23.2011 22.6162C23.1861 22.6162 23.1749 22.6162 23.1524 22.6162Z" fill="#3889CD"/>
</svg>
