<svg width="60" height="60" viewBox="0 0 60 60" fill="none" xmlns="http://www.w3.org/2000/svg">
<path fill-rule="evenodd" clip-rule="evenodd" d="M38.756 40.5H35.3173C34.6873 40.5 34.1735 41.0137 34.1735 41.6475C34.1735 42.2812 34.6873 42.795 35.3173 42.795H38.756C39.3898 42.795 39.9035 42.2812 39.9035 41.6475C39.9035 41.0137 39.3898 40.5 38.756 40.5ZM38.756 35.9175H35.3173C34.6873 35.9175 34.1735 36.4312 34.1735 37.065C34.1735 37.6987 34.6873 38.2087 35.3173 38.2087H38.756C39.3898 38.2087 39.9035 37.6987 39.9035 37.065C39.9035 36.4312 39.3898 35.9175 38.756 35.9175ZM38.756 31.335H35.3173C34.6873 31.335 34.1735 31.8487 34.1735 32.4825C34.1735 33.1162 34.6873 33.6262 35.3173 33.6262H38.756C39.3898 33.6262 39.9035 33.1162 39.9035 32.4825C39.9035 31.8487 39.3898 31.335 38.756 31.335ZM38.756 26.7525H35.3173C34.6873 26.7525 34.1735 27.2662 34.1735 27.9C34.1735 28.53 34.6873 29.0437 35.3173 29.0437H38.756C39.3898 29.0437 39.9035 28.53 39.9035 27.9C39.9035 27.2662 39.3898 26.7525 38.756 26.7525ZM49.0685 39.3562C49.0685 38.7225 48.5548 38.2087 47.9248 38.2087H45.6335C44.9998 38.2087 44.486 38.7225 44.486 39.3562C44.486 39.99 44.9998 40.5 45.6335 40.5H47.9248C48.5548 40.5 49.0685 39.99 49.0685 39.3562ZM51.3598 39.3562C51.3598 41.25 49.8185 42.795 47.9248 42.795H45.6335C43.736 42.795 42.1948 41.25 42.1948 39.3562C42.1948 37.4587 43.736 35.9175 45.6335 35.9175H47.9248C49.8185 35.9175 51.3598 37.4587 51.3598 39.3562ZM49.0685 30.1875C49.0685 29.5575 48.5548 29.0437 47.9248 29.0437H45.6335C44.9998 29.0437 44.486 29.5575 44.486 30.1875C44.486 30.8212 44.9998 31.335 45.6335 31.335H47.9248C48.5548 31.335 49.0685 30.8212 49.0685 30.1875ZM51.3598 30.1875C51.3598 32.085 49.8185 33.6262 47.9248 33.6262H45.6335C43.736 33.6262 42.1948 32.085 42.1948 30.1875C42.1948 28.2937 43.736 26.7525 45.6335 26.7525H47.9248C49.8185 26.7525 51.3598 28.2937 51.3598 30.1875ZM30.7348 40.5C30.1048 40.5 29.591 41.0175 29.591 41.6475C29.591 42.2775 30.1048 42.795 30.7348 42.795C31.3685 42.795 31.8823 42.2775 31.8823 41.6475C31.8823 41.0175 31.3685 40.5 30.7348 40.5ZM30.7348 35.9175C30.1048 35.9175 29.591 36.435 29.591 37.065C29.591 37.695 30.1048 38.2087 30.7348 38.2087C31.3685 38.2087 31.8823 37.695 31.8823 37.065C31.8823 36.435 31.3685 35.9175 30.7348 35.9175ZM30.7348 31.335C30.1048 31.335 29.591 31.8525 29.591 32.4825C29.591 33.1125 30.1048 33.6262 30.7348 33.6262C31.3685 33.6262 31.8823 33.1125 31.8823 32.4825C31.8823 31.8525 31.3685 31.335 30.7348 31.335ZM30.7348 26.7525C30.1048 26.7525 29.591 27.2662 29.591 27.9C29.591 28.5262 30.1048 29.0437 30.7348 29.0437C31.3685 29.0437 31.8823 28.5262 31.8823 27.9C31.8823 27.2662 31.3685 26.7525 30.7348 26.7525ZM52.5073 17.5837C52.5073 16.9537 51.9935 16.44 51.3598 16.44H48.686C48.3485 16.44 48.026 16.59 47.8085 16.8525L46.751 18.12L44.5798 15.6787C44.3435 15.4125 44.006 15.285 43.6423 15.2962C43.2898 15.3187 42.9673 15.51 42.7685 15.8025L39.3935 20.8687L35.621 11.43C35.441 10.9837 34.991 10.7025 34.5223 10.71C34.0423 10.725 33.6223 11.0362 33.4685 11.4937L31.8185 16.44H30.7348C30.1048 16.44 29.591 16.9537 29.591 17.5837C29.591 18.2175 30.1048 18.7312 30.7348 18.7312H32.6473C33.1385 18.7312 33.5773 18.4162 33.7348 17.9475L34.6535 15.1875L38.0735 23.7412C38.2348 24.135 38.5985 24.4088 39.0223 24.4538C39.0598 24.4613 39.101 24.4612 39.1385 24.4612C39.521 24.4612 39.8773 24.27 40.091 23.9512L43.8523 18.3112L45.9223 20.6362C46.1435 20.8875 46.4735 21.0375 46.796 21.0225C47.1298 21.015 47.4448 20.8687 47.6585 20.6137L49.226 18.7312H51.3598C51.9935 18.7312 52.5073 18.2175 52.5073 17.5837ZM14.696 19.8787C14.066 19.8787 13.5485 20.3925 13.5485 21.0225C13.5485 21.6525 14.066 22.17 14.696 22.17C15.326 22.17 15.8435 21.6525 15.8435 21.0225C15.8435 20.3925 15.326 19.8787 14.696 19.8787ZM13.5485 16.44C13.5485 17.07 14.066 17.5837 14.696 17.5837C15.326 17.5837 15.8435 17.07 15.8435 16.44C15.8435 15.81 15.326 15.2962 14.696 15.2962C14.066 15.2962 13.5485 15.81 13.5485 16.44ZM13.5485 39.3562C13.5485 39.9862 14.066 40.5 14.696 40.5C15.326 40.5 15.8435 39.9862 15.8435 39.3562C15.8435 38.7262 15.326 38.2087 14.696 38.2087C14.066 38.2087 13.5485 38.7262 13.5485 39.3562ZM14.696 42.795C14.066 42.795 13.5485 43.3088 13.5485 43.9387C13.5485 44.5687 14.066 45.0825 14.696 45.0825C15.326 45.0825 15.8435 44.5687 15.8435 43.9387C15.8435 43.3088 15.326 42.795 14.696 42.795ZM6.67479 17.5837H8.96604V13.0012H6.67479C5.41104 13.0012 4.38354 14.0325 4.38354 15.2962C4.38354 16.56 5.41104 17.5837 6.67479 17.5837ZM19.2785 11.8575H11.2573V22.17C11.2573 23.43 12.2848 24.4612 13.5485 24.4612H16.9873C18.251 24.4612 19.2785 23.43 19.2785 22.17V11.8575ZM21.5698 11.8575V22.17C21.5698 24.6975 19.5148 26.7525 16.9873 26.7525H13.5485C11.0248 26.7525 8.96604 24.6975 8.96604 22.17V19.8787H6.67479C4.14729 19.8787 2.09229 17.82 2.09229 15.2962C2.09229 12.765 4.14729 10.71 6.67479 10.71H8.96604C8.96604 10.08 9.47978 9.56623 10.1135 9.56623H13.5485C13.5485 8.93248 14.0623 8.41873 14.696 8.41873C15.3298 8.41873 15.8435 8.93248 15.8435 9.56623H19.2785C20.5423 9.56623 21.5698 10.5937 21.5698 11.8575ZM6.67479 40.5H8.96604V35.9175H6.67479C5.41104 35.9175 4.38354 36.9487 4.38354 38.2087C4.38354 39.4725 5.41104 40.5 6.67479 40.5ZM19.2785 34.77H11.2573V45.0825C11.2573 46.3462 12.2848 47.3775 13.5485 47.3775H16.9873C18.251 47.3775 19.2785 46.3462 19.2785 45.0825V34.77ZM21.5698 34.77V45.0825C21.5698 47.6138 19.5148 49.6687 16.9873 49.6687H13.5485C11.0248 49.6687 8.96604 47.6138 8.96604 45.0825V42.795H6.67479C4.14729 42.795 2.09229 40.7362 2.09229 38.2087C2.09229 35.6812 4.14729 33.6262 6.67479 33.6262H8.96604C8.96604 32.9925 9.47978 32.4825 10.1135 32.4825H13.5485C13.5485 31.8487 14.0623 31.335 14.696 31.335C15.3298 31.335 15.8435 31.8487 15.8435 32.4825H19.2785C20.5423 32.4825 21.5698 33.51 21.5698 34.77ZM38.756 51.96H43.3423C43.9723 51.96 44.486 51.4463 44.486 50.8125C44.486 50.1787 43.9723 49.6687 43.3423 49.6687H38.756C38.126 49.6687 37.6123 50.1787 37.6123 50.8125C37.6123 51.4463 38.126 51.96 38.756 51.96ZM54.7985 47.3775H27.2998V53.1037C27.2998 53.7375 27.8135 54.2512 28.4435 54.2512H53.651C54.2848 54.2512 54.7985 53.7375 54.7985 53.1037V47.3775ZM27.2998 6.12748H54.7985V4.98373C54.7985 4.34998 54.2848 3.83623 53.651 3.83623H28.4435C27.8135 3.83623 27.2998 4.34998 27.2998 4.98373V6.12748ZM57.0898 4.98373V23.3137C57.0898 23.9437 56.5723 24.4612 55.9423 24.4612C55.3123 24.4612 54.7985 23.9437 54.7985 23.3137V8.41873H27.2998V45.0825H54.7985V32.4825C54.7985 31.8525 55.3123 31.335 55.9423 31.335C56.5723 31.335 57.0898 31.8525 57.0898 32.4825V53.1037C57.0898 55.0012 55.5485 56.5425 53.651 56.5425H28.4435C26.5498 56.5425 25.0085 55.0012 25.0085 53.1037V4.98373C25.0085 3.08623 26.5498 1.54498 28.4435 1.54498H53.651C55.5485 1.54498 57.0898 3.08623 57.0898 4.98373ZM57.0898 27.9C57.0898 28.5262 56.5723 29.0437 55.9423 29.0437C55.3123 29.0437 54.7985 28.5262 54.7985 27.9C54.7985 27.2662 55.3123 26.7525 55.9423 26.7525C56.5723 26.7525 57.0898 27.2662 57.0898 27.9Z" fill="#3889CD"/>
</svg>
