<svg width="64" height="60" viewBox="0 0 64 60" fill="none" xmlns="http://www.w3.org/2000/svg">
<path fill-rule="evenodd" clip-rule="evenodd" d="M28.3359 31.32H23.0439C22.6799 31.32 22.3359 31.48 22.1039 31.76L20.9759 33.112L18.6599 30.508C18.3799 30.192 17.9559 30.044 17.5359 30.116C17.1199 30.188 16.7679 30.472 16.6119 30.864L13.1919 39.416L9.16388 21.276C9.03588 20.708 8.51988 20.324 7.94788 20.32C7.36788 20.328 6.87188 20.748 6.76788 21.32L4.91588 31.32H3.89587C3.21987 31.32 2.67188 31.868 2.67188 32.54C2.67188 33.216 3.21987 33.764 3.89587 33.764H5.93188C6.51988 33.764 7.02788 33.344 7.13588 32.764L8.07988 27.664L11.6679 43.808C11.7799 44.328 12.2239 44.716 12.7599 44.76C12.7919 44.76 12.8279 44.764 12.8599 44.764C13.3559 44.764 13.8079 44.46 13.9959 43.996L18.1479 33.608L20.0919 35.8C20.3279 36.064 20.6959 36.216 21.0239 36.208C21.3799 36.2 21.7159 36.04 21.9439 35.768L23.6159 33.764H28.3359C29.0119 33.764 29.5599 33.216 29.5599 32.54C29.5599 31.868 29.0119 31.32 28.3359 31.32ZM48.0519 28.172C53.4359 25.964 56.0479 20.82 55.2159 14.06C54.7559 10.312 53.2319 5.35198 45.5599 5.65598C35.9839 6.01998 31.9359 10.168 30.2279 13.584C27.5439 18.948 28.7759 26.48 33.4439 33.236C33.8279 33.792 34.5839 33.928 35.1439 33.548C35.6999 33.164 35.8359 32.404 35.4559 31.848C31.2919 25.824 30.1279 19.244 32.4159 14.676C34.4399 10.628 39.0159 8.35198 45.6519 8.09598C50.9119 7.87198 52.2959 10.34 52.7919 14.356C53.1919 17.64 52.9959 23.504 47.1239 25.912C45.4199 26.608 44.4919 28.352 44.9359 30.116C45.1679 31.036 45.7479 31.804 46.5679 32.28C47.3999 32.764 48.4239 32.896 49.3679 32.632C51.1479 32.14 52.7639 32.304 53.0599 33.008C53.2479 33.468 53.2679 33.516 52.4279 34.224C51.6799 34.848 50.6559 35.712 50.5079 37.32C50.3919 38.648 50.7119 39.32 50.9239 39.764C51.0799 40.084 51.1999 40.332 50.5879 41.868C50.2759 42.668 49.0039 43.068 47.5719 42.816C44.5239 42.28 40.8799 38.94 40.6519 31.284C40.5079 26.616 42.6319 23.74 46.9479 22.732C47.6039 22.58 48.0159 21.92 47.8599 21.264C47.7079 20.608 47.0519 20.2 46.3959 20.352C40.9399 21.624 38.0319 25.532 38.2079 31.356C38.4799 40.484 43.1959 44.528 47.1519 45.22C47.5879 45.3 48.0159 45.336 48.4279 45.336C50.5199 45.336 52.2279 44.384 52.8639 42.768C53.7159 40.62 53.6279 39.748 53.1319 38.712C52.9839 38.4 52.8839 38.196 52.9439 37.54C52.9959 36.964 53.3599 36.632 53.9999 36.092C54.8279 35.4 56.2079 34.24 55.3159 32.076C54.3279 29.676 51.1399 29.608 48.7159 30.276C48.3999 30.364 48.0679 30.324 47.7959 30.168C47.6239 30.068 47.3959 29.872 47.2919 29.456C47.1399 28.852 47.5799 28.364 48.0519 28.172ZM58.1439 48.424C57.4999 48.22 56.8159 48.576 56.6079 49.22L56.5399 49.44C54.8039 54.932 54.1559 56.984 49.2679 56.984C41.4199 56.984 37.3719 53.756 36.8919 47.12C36.6279 43.492 34.5879 39.988 32.4239 36.744C32.0519 36.18 31.2919 36.028 30.7319 36.404C30.1719 36.78 30.0199 37.536 30.3919 38.1C32.3719 41.064 34.2319 44.232 34.4519 47.296C35.0279 55.236 40.1519 59.428 49.2679 59.428C55.9439 59.428 57.1079 55.752 58.8719 50.18L58.9399 49.956C59.1439 49.316 58.7879 48.628 58.1439 48.424ZM37.2599 4.23598C37.3719 4.23598 37.4799 4.22398 37.5879 4.18798C37.8959 4.09998 38.1639 3.89598 38.3239 3.61198C38.4839 3.33198 38.5199 2.99998 38.4319 2.68398C38.2879 2.15998 37.8119 1.79198 37.2599 1.79198C37.1519 1.79198 37.0399 1.80398 36.9439 1.82798C36.9439 1.82798 36.9319 1.82797 36.9319 1.83997C36.6119 1.92397 36.3559 2.11998 36.1959 2.41598C36.0399 2.69598 35.9879 3.02398 36.0879 3.34398C36.2359 3.86798 36.7119 4.23598 37.2599 4.23598ZM61.0199 13.512C60.4079 10.088 59.7239 7.07198 57.5359 4.66398C55.1279 2.03598 51.2439 0.763977 45.6559 0.763977H45.6079C44.3479 0.763977 43.1159 0.823974 41.9399 0.935974C41.2679 0.995974 40.7799 1.59597 40.8399 2.26797C40.9039 2.92797 41.4879 3.42797 42.1759 3.36797C43.2519 3.25597 44.3999 3.20798 45.6079 3.20798C50.5679 3.21998 53.7839 4.21198 55.7279 6.31598C57.3279 8.04798 58.0239 10.516 58.6119 13.94C58.7199 14.528 59.2239 14.94 59.8239 14.94C59.8959 14.94 59.9559 14.94 60.0279 14.928C60.6999 14.808 61.1399 14.172 61.0199 13.512ZM24.0119 26.66C23.7559 25.356 23.4479 23.264 23.4479 20.808C23.4359 17.472 23.9999 14.44 25.1239 11.788C26.5799 8.33998 28.9359 5.66398 32.1399 3.80798C32.7119 3.47998 33.4959 3.69998 33.8119 4.25998C33.9719 4.53998 34.0199 4.87198 33.9359 5.18798C33.8479 5.49598 33.6559 5.76398 33.3599 5.91998C27.2159 9.47997 25.9079 15.98 25.8959 20.808C25.8959 23.072 26.1759 24.988 26.4079 26.2C26.4799 26.516 26.4079 26.844 26.2239 27.116C26.0399 27.384 25.7719 27.568 25.4519 27.628C25.3679 27.64 25.2959 27.652 25.2079 27.652C24.6359 27.652 24.1199 27.236 24.0119 26.66Z" fill="#3889CD"/>
</svg>
