<svg width="56" height="60" viewBox="0 0 56 60" fill="none" xmlns="http://www.w3.org/2000/svg">
<path fill-rule="evenodd" clip-rule="evenodd" d="M31.636 17.804C31.832 17.16 31.464 16.48 30.816 16.284C29.908 16.012 28.964 15.872 28.004 15.872C22.612 15.872 18.228 20.26 18.228 25.652C18.228 26.324 18.776 26.872 19.448 26.872C20.124 26.872 20.672 26.324 20.672 25.652C20.672 21.604 23.96 18.316 28.004 18.316C28.724 18.316 29.432 18.42 30.112 18.624C30.764 18.816 31.444 18.452 31.636 17.804ZM15.784 25.652C15.784 18.912 21.264 13.428 28.004 13.428C31.896 13.428 35.464 15.228 37.804 18.368C38.204 18.908 38.968 19.02 39.512 18.62C40.056 18.216 40.168 17.448 39.76 16.908C36.96 13.144 32.672 10.984 28.004 10.984C19.92 10.984 13.34 17.564 13.34 25.652C13.34 28.508 14.164 31.28 15.724 33.664C15.956 34.024 16.348 34.22 16.748 34.22C16.976 34.22 17.208 34.156 17.416 34.02C17.98 33.652 18.14 32.892 17.768 32.328C16.472 30.344 15.784 28.032 15.784 25.652ZM10.896 25.652C10.896 16.216 18.572 8.54001 28.004 8.54001C33.82 8.54001 39.188 11.464 42.42 16.444C43.348 17.652 44.06 18.972 44.532 20.36C44.752 21 45.444 21.34 46.084 21.124C46.724 20.908 47.064 20.212 46.844 19.572C46.288 17.928 45.448 16.376 44.416 15.036C40.788 9.43601 34.652 6.09601 28.004 6.09601C17.224 6.09601 8.45197 14.868 8.45197 25.652C8.45197 31.188 10.824 36.492 14.968 40.2C15.2 40.408 15.492 40.512 15.78 40.512C16.116 40.512 16.448 40.376 16.692 40.104C17.144 39.6 17.1 38.832 16.596 38.38C12.972 35.136 10.896 30.496 10.896 25.652ZM15.9 44.008C9.70396 39.916 6.00797 33.052 6.00797 25.652C6.00797 13.52 15.876 3.65201 28.004 3.65201C35.812 3.65201 42.868 7.67202 46.88 14.388C49.948 19.76 50.004 24.384 50.004 24.428C50.004 25.104 50.552 25.652 51.228 25.652C51.904 25.652 52.448 25.104 52.448 24.428C52.448 24.216 52.412 19.148 48.988 13.156C44.52 5.67202 36.676 1.20801 28.004 1.20801C14.528 1.20801 3.56396 12.172 3.56396 25.652C3.56396 33.876 7.66797 41.5 14.552 46.048C14.756 46.184 14.992 46.248 15.224 46.248C15.62 46.248 16.008 46.056 16.244 45.7C16.616 45.14 16.46 44.38 15.9 44.008ZM29.024 34.812C29.06 37.428 29.896 39.764 31.188 41.348C31.544 41.78 31.932 42.16 32.348 42.468C33.184 43.088 34.132 43.444 35.136 43.444C36.14 43.444 37.092 43.088 37.928 42.468C38.372 42.14 38.784 41.732 39.156 41.26C40.436 39.648 41.248 37.28 41.248 34.644C41.248 34.204 41.224 33.776 41.18 33.356C39.588 33.4 38.052 32.884 36.708 31.852C35.124 33.888 33.008 35.032 30.736 35.032C30.156 35.032 29.584 34.956 29.024 34.812ZM37.784 46.596V45.332C37.764 45.344 37.744 45.352 37.724 45.36C36.908 45.704 36.036 45.888 35.136 45.888C34.36 45.888 33.608 45.752 32.896 45.496V47.628C32.896 47.692 32.916 47.756 32.956 47.82C33.2 48.208 34.136 48.58 35.336 48.58C36.54 48.58 37.476 48.208 37.72 47.82C37.76 47.756 37.784 47.692 37.784 47.628V46.596ZM52.448 53.652C52.448 53.724 52.44 53.8 52.428 53.876L51.496 58.872C51.384 59.46 50.868 59.872 50.292 59.872C50.22 59.872 50.144 59.864 50.068 59.848C49.48 59.74 49.072 59.224 49.072 58.648C49.072 58.576 49.076 58.5 49.092 58.424L50.004 53.544C49.964 52.264 49.184 51.248 48.088 50.484C47.76 50.252 47.408 50.048 47.036 49.864C46.676 49.688 46.3 49.536 45.916 49.4C45.536 49.268 45.148 49.152 44.764 49.06C44.736 49.056 42.58 48.572 40.168 48.172C39.836 49.876 37.944 51.024 35.336 51.024C34.184 51.024 33.084 50.78 32.248 50.336C31.28 49.828 30.68 49.072 30.508 48.172C28.096 48.572 25.932 49.056 25.896 49.064C25.4 49.18 24.896 49.336 24.408 49.528C24.028 49.676 23.664 49.844 23.316 50.036C22.944 50.236 22.6 50.46 22.284 50.708C21.352 51.44 20.712 52.388 20.672 53.544L21.584 58.424C21.6 58.5 21.604 58.576 21.604 58.648C21.604 59.224 21.196 59.74 20.608 59.848C19.948 59.976 19.308 59.536 19.184 58.872L18.248 53.876C18.236 53.8 18.228 53.724 18.228 53.652C18.228 51.32 19.556 49.576 21.36 48.372C20.776 46.524 20.464 44.508 20.464 42.408C20.488 34.692 21.968 29.132 24.96 25.38C25.364 24.88 26.172 24.784 26.672 25.196C26.692 25.212 26.704 25.232 26.724 25.248C27.2 25.68 27.268 26.416 26.856 26.92C23.384 31.164 22.896 38.444 22.908 42.408C22.924 44.156 23.148 45.772 23.56 47.244C24.148 47.012 24.752 46.824 25.344 46.684C25.516 46.644 27.868 46.12 30.448 45.704V44.044C28.12 42.032 26.58 38.572 26.58 34.644C26.58 34.016 26.612 33.44 26.684 32.88C26.736 32.476 26.988 32.12 27.352 31.94C27.72 31.756 28.152 31.768 28.508 31.972C29.216 32.38 29.968 32.584 30.736 32.584C32.54 32.584 34.248 31.42 35.424 29.388C35.62 29.052 35.964 28.832 36.348 28.784C36.74 28.736 37.112 28.884 37.38 29.168C38.256 30.112 39.82 31.264 41.944 30.812C42.268 30.74 42.596 30.804 42.868 30.98C43.14 31.156 43.332 31.432 43.4 31.752C43.592 32.668 43.692 33.64 43.692 34.644C43.692 38.34 42.328 41.624 40.228 43.672V45.704C42.808 46.12 45.156 46.644 45.316 46.68C45.788 46.792 46.268 46.936 46.74 47.1C47.124 45.668 47.336 44.1 47.352 42.408C47.364 40.132 47.108 34.328 44.712 29.596C42.476 25.256 39.432 23.232 35.132 23.204C34.936 23.204 34.716 23.204 34.46 23.216C33.816 23.276 33.248 22.756 33.184 22.112C33.18 22.092 33.176 22.076 33.172 22.056C33.152 21.384 33.664 20.812 34.348 20.772C34.64 20.76 34.9 20.76 35.132 20.76H35.192C40.264 20.76 44.416 23.512 46.888 28.5C49.416 33.52 49.796 39.364 49.796 42.408C49.796 44.424 49.512 46.364 48.976 48.156C50.952 49.36 52.448 51.172 52.448 53.652ZM30.792 22.592C30.804 22.62 30.808 22.644 30.82 22.668C31.048 23.264 30.804 23.936 30.228 24.22C30.216 24.22 30.216 24.22 30.216 24.232C30.048 24.304 29.876 24.34 29.692 24.34C29.244 24.34 28.84 24.104 28.624 23.72C28.608 23.696 28.592 23.672 28.58 23.644C28.3 23.048 28.556 22.312 29.156 22.02C29.74 21.74 30.508 22.008 30.792 22.592Z" fill="#3889CD"/>
</svg>
