<svg width="38" height="60" viewBox="0 0 38 60" fill="none" xmlns="http://www.w3.org/2000/svg">
<path fill-rule="evenodd" clip-rule="evenodd" d="M22.0911 37.4775C21.4611 37.4775 20.9436 37.995 20.9436 38.625C20.9436 39.255 21.4611 39.7688 22.0911 39.7688C22.7211 39.7688 23.2349 39.255 23.2349 38.625C23.2349 37.995 22.7211 37.4775 22.0911 37.4775ZM26.6736 37.4775C26.0436 37.4775 25.5299 37.995 25.5299 38.625C25.5299 39.255 26.0436 39.7688 26.6736 39.7688C27.3036 39.7688 27.8174 39.255 27.8174 38.625C27.8174 37.995 27.3036 37.4775 26.6736 37.4775ZM25.5299 31.7475C25.5299 31.1175 25.0124 30.6038 24.3824 30.6038C23.7486 30.6038 23.2349 31.1175 23.2349 31.7475C23.2349 32.3813 23.7486 32.895 24.3824 32.895C25.0124 32.895 25.5299 32.3813 25.5299 31.7475ZM27.8174 31.7475C27.8174 33.645 26.2761 35.1863 24.3824 35.1863C22.4886 35.1863 20.9436 33.645 20.9436 31.7475C20.9436 29.8538 22.4886 28.3125 24.3824 28.3125C26.2761 28.3125 27.8174 29.8538 27.8174 31.7475ZM28.9649 26.0175H19.7999C19.1661 26.0175 18.6524 26.535 18.6524 27.165V40.9163C18.6524 41.5463 19.1661 42.06 19.7999 42.06H28.9649C29.5986 42.06 30.1124 41.5463 30.1124 40.9163V27.165C30.1124 26.535 29.5986 26.0175 28.9649 26.0175ZM29.4036 23.76C31.0911 23.9775 32.4036 25.4175 32.4036 27.165V40.9163C32.4036 42.81 30.8624 44.3513 28.9649 44.3513H19.7999C17.9024 44.3513 16.3611 42.81 16.3611 40.9163V27.165C16.3611 26.1488 16.8111 25.2337 17.5161 24.6037C17.6849 20.6025 21.5624 19.26 21.7274 19.2038C22.3311 19.0013 22.9761 19.3275 23.1786 19.9275C23.3774 20.5275 23.0549 21.1725 22.4586 21.375C22.3686 21.4087 20.5911 22.0463 19.9986 23.73H26.4711C29.2161 21.0675 29.2724 17.13 28.9761 14.7C28.5111 10.9388 27.2436 8.65502 22.2786 8.83502C16.0611 9.07127 11.7711 11.2013 9.86986 14.9963C7.72861 19.2825 8.81986 25.4513 12.7236 31.0988C13.0799 31.62 12.9524 32.3325 12.4311 32.6925C12.2324 32.8275 12.0036 32.895 11.7824 32.895C11.4149 32.895 11.0586 32.7225 10.8374 32.4C6.46111 26.0663 5.30237 19.005 7.82237 13.9725C9.42361 10.7738 13.2149 6.88502 22.1924 6.54377C29.3736 6.25877 30.8174 10.9088 31.2486 14.4225C31.7061 18.1425 31.0424 21.3338 29.4036 23.76ZM2.68111 23.0288C3.31111 23.0063 3.80611 22.4662 3.77986 21.8363C3.74611 21.2063 3.20987 20.6813 2.58737 20.7375C2.27987 20.7488 1.99486 20.8875 1.78861 21.1162C1.58236 21.3337 1.47736 21.6338 1.48861 21.93C1.51111 22.5488 2.01736 23.0288 2.63611 23.0288H2.68111ZM33.9936 46.635C33.4011 46.4512 32.7336 46.7925 32.5536 47.3888C31.7061 50.115 31.0761 51.9825 30.1911 53.0475C29.3549 54.045 28.3461 54.6413 25.6649 54.6638C21.3936 54.6525 18.3786 53.6662 16.4549 51.63C15.0674 50.1637 14.2536 48.0638 14.0699 45.4163C13.7849 41.7263 11.6736 38.3475 9.35986 34.92C9.15361 34.6012 8.93612 34.2937 8.71862 33.9825C6.73487 31.1062 4.85612 28.38 4.31987 26.145C4.16987 25.5488 3.53986 25.1588 2.93236 25.3088C2.31361 25.47 1.94986 26.0888 2.09611 26.7075C2.79736 29.4 4.58236 32.0025 6.47611 34.7513C6.80611 35.2313 7.13987 35.7113 7.46987 36.2063C9.59237 39.3113 11.5836 42.5888 11.7786 45.5775C12.0186 48.7613 13.0274 51.33 14.7936 53.2088C17.1299 55.695 20.7749 56.955 25.6199 56.955H25.8149C28.6461 56.955 30.6599 56.1562 31.9799 54.4912C33.1724 52.9912 33.7761 51.1013 34.5336 48.705L34.7399 48.075C34.8336 47.7788 34.8074 47.4675 34.6611 47.205C34.5224 46.9312 34.2824 46.7362 33.9936 46.635ZM36.0336 16.8412C35.4149 16.9462 34.8224 16.5225 34.7061 15.9037L34.6836 15.7313C34.1211 12.4425 33.6524 9.60002 32.1261 7.64252C30.3411 5.31752 27.2811 4.26002 22.2411 4.24877C7.78111 4.36502 4.89361 11.8462 3.98986 17.4712C3.90736 18.0337 3.41611 18.4575 2.85361 18.4575C2.80861 18.4575 2.74861 18.4575 2.68111 18.4463C2.38486 18.4013 2.11861 18.24 1.93861 18C1.75486 17.7488 1.67236 17.4487 1.72111 17.1525C2.30236 12.5812 5.44111 1.95752 21.9636 1.95752C22.0574 1.95752 22.1474 1.95752 22.2411 1.95752H22.3424C27.9561 1.95752 31.7624 3.35626 33.9486 6.24376C35.7936 8.67376 36.3111 11.7113 36.8136 14.6288C36.8736 14.9288 36.9186 15.2138 36.9749 15.5138C37.0761 16.1325 36.6524 16.725 36.0336 16.8412Z" fill="#3889CD"/>
</svg>
