<svg width="53" height="60" viewBox="0 0 53 60" fill="none" xmlns="http://www.w3.org/2000/svg">
<path fill-rule="evenodd" clip-rule="evenodd" d="M30.105 42.105C33.5925 38.6175 33.5925 32.9475 30.105 29.4563C28.3613 27.7163 26.0738 26.8425 23.7825 26.8425C21.4913 26.8425 19.2 27.7163 17.4563 29.4563C14.0775 32.8388 13.9837 38.2688 17.16 41.775C17.2575 41.8838 17.3513 42 17.4563 42.105C17.565 42.2138 17.6775 42.3038 17.79 42.405C21.2925 45.5775 26.7263 45.4875 30.105 42.105ZM7.26752 53.9138L12.8025 48.3825L11.9963 47.58L11.985 47.5688L11.1788 46.7625L5.6475 52.2938C5.43375 52.5113 5.31001 52.8 5.31001 53.1038C5.31001 53.4113 5.43375 53.6963 5.6475 53.9138C6.0825 54.3488 6.83252 54.3488 7.26752 53.9138ZM31.725 43.725C29.5388 45.9188 26.6588 47.0138 23.7825 47.0138C21.2625 47.0138 18.7462 46.1738 16.6875 44.4938L14.4225 46.7625L15.2325 47.5725C15.4462 47.79 15.5663 48.0788 15.5663 48.3825C15.5663 48.6863 15.4462 48.9788 15.2325 49.1925L8.88752 55.5375C8.21627 56.205 7.33876 56.5388 6.45751 56.5388C5.57626 56.5388 4.69875 56.205 4.0275 55.5375C2.68875 54.195 2.68875 52.0163 4.0275 50.6738L10.3688 44.3325C10.8 43.9013 11.5613 43.9013 11.9888 44.3325L12.8025 45.1425L15.0675 42.8775C11.475 38.4675 11.73 31.9463 15.8363 27.8363C20.2163 23.4563 27.3488 23.4563 31.725 27.8363C36.105 32.2163 36.105 39.345 31.725 43.725ZM38.5125 20.7638C38.3662 20.1488 37.7475 19.7588 37.1363 19.9088C34.5488 20.5088 32.5688 21.7313 31.2525 23.5425C30.8813 24.0563 30.9938 24.7725 31.5038 25.1438C31.71 25.2938 31.9463 25.365 32.1788 25.365C32.5313 25.365 32.8838 25.2 33.105 24.8925C34.0875 23.5388 35.6213 22.6125 37.6538 22.14C38.2725 21.9975 38.655 21.3788 38.5125 20.7638ZM38.6888 27.2363C43.7363 25.1663 46.185 20.3438 45.405 14.01C44.9738 10.4925 43.5413 5.84627 36.3488 6.12752C30.5963 6.34877 26.3025 8.04002 23.5875 11.1563C21.33 13.7475 20.3438 17.2013 20.7375 21.1388C20.8013 21.7688 21.3563 22.2225 21.9938 22.1625C22.6238 22.1025 23.0813 21.54 23.0213 20.91C22.6913 17.6175 23.4863 14.7675 25.32 12.66C27.5663 10.08 31.4138 8.61002 36.4388 8.41877C41.3663 8.24627 42.6675 10.5225 43.1325 14.2875C43.5113 17.3625 43.32 22.86 37.8188 25.1175C36.2213 25.7738 35.355 27.4088 35.7713 29.0625C35.985 29.9213 36.5288 30.6413 37.2975 31.0875C38.0775 31.545 39.0375 31.6688 39.9225 31.4213C41.5913 30.96 43.11 31.1138 43.38 31.7738C43.56 32.205 43.5788 32.25 42.7913 32.91C42.09 33.5025 41.13 34.305 40.995 35.8163C40.8825 37.0575 41.1825 37.6913 41.385 38.1075C41.5275 38.4075 41.64 38.64 41.07 40.08C40.9163 40.47 40.5413 40.695 40.2525 40.815C39.3863 41.175 38.1788 41.0925 37.0275 40.6013C36.4463 40.3538 35.7713 40.62 35.52 41.2013C35.2725 41.7863 35.5425 42.4575 36.1238 42.7088C37.0913 43.1213 38.085 43.3275 39.0262 43.3275C39.7762 43.3275 40.4925 43.1963 41.1375 42.93C42.1163 42.5213 42.8512 41.805 43.2 40.9238C43.995 38.9063 43.9163 38.0888 43.4513 37.1175C43.3125 36.8288 43.2188 36.6375 43.275 36.0188C43.3238 35.4788 43.6688 35.1675 44.265 34.665C45.0413 34.0163 46.335 32.925 45.4988 30.8963C44.5688 28.6463 41.5875 28.5825 39.3113 29.2125C39.0113 29.295 38.7075 29.2613 38.4488 29.1113C38.2875 29.0138 38.0738 28.83 37.9763 28.4438C37.8338 27.8738 38.2463 27.42 38.6888 27.2363ZM48.1538 46.23C47.5575 46.035 46.905 46.38 46.7213 46.9538C46.71 46.9613 46.71 46.9613 46.71 46.9725C45.8625 49.7025 45.2325 51.57 44.3475 52.635C43.515 53.6325 42.5063 54.2138 39.825 54.2513C34.3575 54.2138 31.0238 52.6575 29.3175 49.3575C29.0438 48.81 28.3312 48.57 27.78 48.8438C27.2212 49.1288 26.9925 49.815 27.2775 50.3888C28.6538 53.1975 31.9163 56.5425 39.6638 56.5425H39.825C39.87 56.5425 39.915 56.5425 39.96 56.5425C42.8025 56.5425 44.82 55.74 46.1363 54.0788C47.3288 52.5788 47.9363 50.6888 48.69 48.2925L48.8963 47.6625C48.99 47.3663 48.9562 47.055 48.8175 46.7925C48.6787 46.515 48.4388 46.3088 48.1538 46.23ZM37.0613 3.84752H37.0988C37.7025 3.84752 38.22 3.34503 38.2313 2.72628C38.2538 2.09628 37.7475 1.56752 37.11 1.55627H37.0838C36.465 1.55627 35.9513 2.04752 35.94 2.66627C35.94 2.97752 36.0525 3.27377 36.2588 3.49502C36.48 3.70877 36.7538 3.83627 37.0613 3.84752ZM51.12 15.0975C51.075 14.8238 51.0263 14.5613 50.9813 14.2875C50.5725 11.9025 50.1487 9.43877 49.035 7.29752C47.6625 4.61627 45.255 2.86126 41.8838 2.09626C41.2763 1.95751 40.6613 2.34751 40.5113 2.95501C40.4438 3.25126 40.5 3.56251 40.6613 3.81376C40.8075 4.07626 41.0625 4.26002 41.3588 4.32752C41.3588 4.32752 41.3587 4.32752 41.37 4.32752C44.1675 5.00252 45.8513 6.22128 47.0063 8.35128C47.97 10.1738 48.3713 12.5888 48.8063 15.1575L48.8625 15.4875C48.9675 16.0388 49.4363 16.44 49.9988 16.44C50.0663 16.44 50.1375 16.44 50.1938 16.4288C50.8125 16.3125 51.2363 15.7163 51.12 15.0975ZM15.7388 22.845C15.66 21.96 15.6225 21.15 15.6225 20.3363C15.6225 15.8438 16.68 12.0413 18.7425 9.01502C21.5138 4.94627 26.235 2.43753 32.3888 1.76253C33.0413 1.69503 33.5888 2.14127 33.66 2.77127C33.7275 3.40127 33.27 3.96377 32.6475 4.03127C27.0375 4.68377 23.1075 6.73502 20.6325 10.3088C18.3863 13.5863 17.9063 17.5613 17.9175 20.3363C17.9175 21.0825 17.9513 21.8588 18.0188 22.65C18.075 23.28 17.6063 23.8313 16.9763 23.8875C16.9425 23.8988 16.9088 23.8988 16.8713 23.8988C16.29 23.8988 15.7875 23.4413 15.7388 22.845Z" fill="#3889CD"/>
</svg>
