<svg width="80" height="60" viewBox="0 0 80 60" fill="none" xmlns="http://www.w3.org/2000/svg">
<path fill-rule="evenodd" clip-rule="evenodd" d="M17.5152 10.945C17.5152 10.105 18.2052 9.41499 19.0452 9.41499C19.8852 9.41499 20.5702 10.105 20.5702 10.945C20.5702 11.785 19.8852 12.47 19.0452 12.47C18.2052 12.47 17.5152 11.785 17.5152 10.945ZM17.5152 17.055C17.5152 16.215 18.2052 15.525 19.0452 15.525C19.8852 15.525 20.5702 16.215 20.5702 17.055C20.5702 17.895 19.8852 18.58 19.0452 18.58C18.2052 18.58 17.5152 17.895 17.5152 17.055ZM17.5152 23.165C17.5152 22.325 18.2052 21.64 19.0452 21.64C19.8852 21.64 20.5702 22.325 20.5702 23.165C20.5702 24.005 19.8852 24.69 19.0452 24.69C18.2052 24.69 17.5152 24.005 17.5152 23.165ZM17.5602 4.83499C17.5602 3.99499 18.2502 3.30499 19.0902 3.30499C19.9302 3.30499 20.6152 3.99499 20.6152 4.83499C20.6152 5.67499 19.9302 6.35999 19.0902 6.35999C18.2502 6.35999 17.5602 5.67499 17.5602 4.83499ZM5.29523 27.75V15.525C5.29523 14.685 5.98024 14 6.82024 14H9.88023V29.275H6.82024C5.98024 29.275 5.29523 28.59 5.29523 27.75ZM6.82024 41.5H9.87524V38.445H6.82024V41.5ZM51.1252 30.8H54.1802V12.47H51.1252V30.8ZM45.0152 9.84499L48.0702 10.61V32.665L45.0152 33.43V9.84499ZM72.5102 23.165C72.5102 29.06 67.7152 33.86 61.8202 33.86H57.2352V9.41499H61.8202C67.7152 9.41499 72.5102 14.215 72.5102 20.11V23.165ZM61.8202 6.35999H55.7102C54.8652 6.35999 54.1802 7.04499 54.1802 7.88999V9.41499H51.1252C51.1252 8.71499 50.6452 8.10497 49.9702 7.93497L45.0152 6.69496V4.83499C45.0152 4.43499 44.8452 4.03998 44.5702 3.74998C44.2802 3.46998 43.8852 3.30499 43.4852 3.30499H25.2002C25.1902 3.30499 25.1852 3.30999 25.1752 3.30999L25.1552 3.30499C24.3102 3.30499 23.6252 3.98999 23.6252 4.83499V44.555C23.6252 45.4 24.3102 46.08 25.1552 46.08C26.0002 46.08 26.6802 45.4 26.6802 44.555V6.35999H41.9602V37.615L38.0452 40.23C37.6352 40.505 37.3752 40.98 37.3752 41.5V47.61C37.3752 51.81 33.9402 55.245 29.7352 55.245H15.9902C14.3052 55.245 12.9302 53.87 12.9302 52.19V9.41499C12.9302 8.45499 13.3602 7.58499 14.1252 6.98499C14.7252 6.53499 14.8852 5.71998 14.5452 5.06998C14.5052 4.98998 14.4652 4.91498 14.4152 4.84998C13.9102 4.20498 12.9152 4.06998 12.2602 4.57498C12.2602 4.57498 12.2602 4.57498 12.2452 4.57498C10.7602 5.73498 9.88023 7.53499 9.88023 9.41499V10.945H6.82024C4.29524 10.945 2.24023 13 2.24023 15.525V27.75C2.24023 30.275 4.29524 32.33 6.82024 32.33H9.88023V35.39H5.29523C4.45023 35.39 3.76524 36.07 3.76524 36.915V43.025C3.76524 43.87 4.45023 44.555 5.29523 44.555H9.88023V52.19C9.88023 55.57 12.6252 58.305 15.9902 58.305H29.7352C35.6352 58.305 40.4302 53.505 40.4302 47.61V42.31L44.3402 39.71C44.7552 39.42 45.0152 38.95 45.0152 38.445V36.58L49.9702 35.34C50.6452 35.17 51.1252 34.56 51.1252 33.86H54.1802V35.39C54.1802 36.235 54.8652 36.915 55.7102 36.915H61.8202C69.4002 36.915 75.5702 30.745 75.5702 23.165V20.11C75.5702 12.53 69.4002 6.35999 61.8202 6.35999Z" fill="#3889CD"/>
</svg>
