<svg width="45" height="60" viewBox="0 0 45 60" fill="none" xmlns="http://www.w3.org/2000/svg">
<path fill-rule="evenodd" clip-rule="evenodd" d="M17.2349 41.2575C17.3362 41.5463 17.3287 41.8538 17.2012 42.1275C17.0174 42.54 16.6049 42.8063 16.1587 42.8063C15.9974 42.8063 15.8362 42.7688 15.6899 42.7013C15.4049 42.5738 15.1949 42.345 15.0937 42.06C14.9774 41.7713 14.9924 41.4525 15.1274 41.175C15.3787 40.6275 16.0799 40.3538 16.6387 40.6163H16.6424C16.9162 40.7438 17.1337 40.9725 17.2349 41.2575ZM15.3074 10.1513L15.6599 4.90502C15.6824 4.60127 15.8174 4.32002 16.0499 4.12127C16.2599 3.93752 16.5262 3.83627 16.7999 3.83627C16.8299 3.83627 16.8562 3.83627 16.8824 3.84002L18.3299 3.93752L17.8274 11.4675L16.3762 11.37C15.7462 11.3288 15.2662 10.7813 15.3074 10.1513ZM21.8399 20.055L20.3399 19.4288L19.4362 19.0538L21.5099 14.0138L24.2474 14.2013L21.8399 20.055ZM16.4849 20.6625C16.7624 20.5463 17.0699 20.5463 17.3474 20.6625L17.4937 20.7263C17.4937 20.7263 17.4974 20.7263 17.5012 20.73L21.3074 22.3163L22.1737 22.6763C22.7549 22.9163 23.0287 23.5875 22.7887 24.1763L22.2262 25.5375L19.6349 24.4613L15.3074 22.6538L15.8699 21.2813C15.9899 21 16.2074 20.7788 16.4849 20.6625ZM29.3062 4.68378L29.2199 5.98503C29.2199 5.98878 29.2199 5.99252 29.2199 5.99252L28.8937 10.9013L28.8037 12.21L27.2849 12.1088L24.9787 11.955L21.2249 11.7L20.1112 11.625L20.1299 11.3438L20.6174 4.09127L29.3062 4.68378ZM31.2712 9.66003L31.4137 7.54128L36.5999 8.95878L31.2712 9.66003ZM42.6974 8.24253L31.5712 5.20878L31.6724 3.69003C31.7099 3.06003 31.2374 2.51628 30.6037 2.47128L19.6237 1.72877C20.2574 1.77377 20.7337 2.31752 20.6924 2.94752L19.5487 2.87252L18.4049 2.79377C18.4274 2.49377 18.5662 2.20877 18.7949 2.01002C19.0237 1.80752 19.3237 1.71377 19.6237 1.72877L17.0362 1.55253C16.1099 1.50378 15.2324 1.79253 14.5387 2.39628C13.8487 3.00003 13.4324 3.83628 13.3724 4.75503L13.0237 9.99753C12.8962 11.8875 14.3324 13.53 16.2224 13.6575L18.8174 13.8338L19.0987 13.8525L17.2649 18.3038C16.7099 18.2438 16.1399 18.3263 15.6112 18.5475C14.7637 18.8963 14.1037 19.56 13.7549 20.4113L12.7499 22.8375C12.7462 22.8525 12.7349 22.8638 12.7312 22.8788L2.51242 50.6775C2.37367 51.0525 2.29492 51.4913 2.29492 51.9263C2.29492 53.3813 3.16492 54.6863 4.50742 55.26L6.93367 56.265C7.37992 56.4525 7.84117 56.5425 8.30992 56.5425H8.32118C9.71993 56.5425 10.9912 55.7175 11.5724 54.4463L15.2999 46.2975C15.4237 46.0238 15.4349 45.7125 15.3337 45.4275C15.2212 45.1425 15.0112 44.9138 14.7374 44.7863C14.1787 44.5238 13.4662 44.7863 13.2149 45.3488L9.49117 53.4825C9.28492 53.955 8.81242 54.2513 8.30992 54.2513C8.14867 54.2513 7.97617 54.2138 7.81867 54.1463L5.38867 53.1375C4.90867 52.9425 4.58617 52.4513 4.58617 51.9263C4.58617 51.765 4.60867 51.615 4.66492 51.4763L14.4749 24.7913L21.3149 27.645L17.0287 37.0088C16.7662 37.5825 17.0174 38.2688 17.5912 38.5313C18.1537 38.7825 18.8624 38.5163 19.1137 37.9688L23.8612 27.5588C23.8762 27.5325 23.8949 27.5063 23.9062 27.4763L24.9074 25.05C25.4962 23.6138 25.0424 22.0013 23.8987 21.0675L26.6587 14.3663L29.7937 14.5763C29.8199 14.5763 29.8462 14.58 29.8687 14.58C30.1462 14.58 30.4162 14.4788 30.6224 14.295C30.8549 14.0963 30.9937 13.8113 31.0162 13.5075L31.1137 11.9888L42.5474 10.485C43.0874 10.4138 43.5037 9.97128 43.5412 9.42753C43.5787 8.88378 43.2262 8.38503 42.6974 8.24253Z" fill="#3889CD"/>
</svg>
