<svg width="56" height="60" viewBox="0 0 56 60" fill="none" xmlns="http://www.w3.org/2000/svg">
<path fill-rule="evenodd" clip-rule="evenodd" d="M7.28777 40.34L8.70378 40.592L8.87178 39.56L10.7598 27.908L9.30779 27.656C9.23979 27.64 9.16378 27.636 9.09178 27.636C8.84378 27.636 8.60377 27.712 8.39577 27.856C8.12777 28.044 7.95177 28.324 7.89577 28.644L6.29976 38.904C6.17976 39.588 6.62377 40.224 7.28777 40.34ZM21.4878 40.852C21.5078 40.796 21.5278 40.736 21.5398 40.672L22.9558 32.62L22.9918 32.428C23.0998 31.808 22.7278 31.212 22.1238 31.04L13.1478 28.468L11.6158 37.916L11.1318 40.904L13.3958 41.096L19.9358 41.652L20.2318 41.676C20.8078 41.728 21.3118 41.38 21.4878 40.852ZM32.3758 38.852L35.0878 38.812L36.8958 38.784L34.7598 38.192L31.7998 37.368L24.9358 35.464L24.3198 38.98L32.3758 38.852ZM33.7758 41.276L23.8678 41.432C23.4358 43.028 21.9998 44.124 20.3438 44.128C20.2398 44.128 20.1318 44.12 20.0238 44.112L19.7758 44.092L17.6678 53.584C17.5438 54.152 17.0358 54.54 16.4758 54.54C16.3878 54.54 16.2998 54.532 16.2118 54.512C15.6398 54.384 15.2518 53.88 15.2518 53.32C15.2518 53.232 15.2598 53.144 15.2798 53.052L17.3198 43.884L13.7798 43.584L11.6158 53.32L11.5598 53.584C11.4118 54.244 10.7598 54.66 10.0998 54.512C9.43978 54.364 9.02377 53.712 9.17177 53.052L11.3238 43.376L9.60777 43.228C9.59177 43.228 9.57977 43.224 9.56377 43.22C9.54377 43.216 9.51977 43.22 9.50377 43.216L6.86379 42.752C4.87179 42.4 3.53977 40.492 3.88777 38.504L5.48378 28.244C5.65578 27.256 6.19178 26.416 6.99578 25.852C7.79578 25.292 8.77177 25.08 9.73577 25.248L12.3718 25.712C12.3958 25.716 12.4158 25.724 12.4398 25.732C12.4598 25.736 12.4798 25.736 12.4958 25.74L22.7958 28.688C24.6078 29.208 25.7238 30.996 25.3998 32.852L25.3638 33.044L31.1318 34.648C30.9598 33.632 30.8478 32.536 30.8118 31.356C30.6358 25.532 33.5438 21.624 38.9998 20.352C39.6558 20.2 40.3158 20.608 40.4678 21.264C40.6198 21.92 40.2118 22.58 39.5518 22.732C35.2358 23.74 33.1158 26.616 33.2558 31.284C33.3038 32.82 33.4878 34.18 33.7758 35.38L39.8118 37.06C40.8318 37.34 41.4718 38.308 41.3398 39.356C41.2038 40.404 40.3398 41.176 39.2838 41.192L37.0078 41.228C38.0278 42.124 39.1358 42.632 40.1758 42.816C41.6078 43.068 42.8798 42.668 43.1958 41.868C43.8038 40.332 43.6838 40.084 43.5318 39.764C43.3198 39.32 42.9958 38.648 43.1158 37.32C43.2598 35.712 44.2838 34.848 45.0318 34.224C45.8718 33.516 45.8518 33.468 45.6598 33.008C45.3718 32.304 43.7518 32.14 41.9758 32.632C41.0278 32.896 40.0078 32.764 39.1718 32.28C38.3518 31.804 37.7718 31.036 37.5438 30.116C37.0958 28.352 38.0238 26.608 39.7278 25.912C45.5958 23.504 45.7998 17.64 45.3958 14.356C44.9038 10.34 43.5198 7.872 38.2558 8.096C32.4878 8.32 28.2118 10.1 25.8918 13.248C23.8198 16.064 23.3198 19.996 24.4838 24.324C24.6598 24.976 24.2718 25.648 23.6198 25.824C22.9758 25.996 22.2998 25.612 22.1238 24.96C20.7598 19.9 21.3998 15.228 23.9238 11.8C26.6998 8.028 31.6238 5.908 38.1598 5.656C45.8398 5.352 47.3598 10.312 47.8238 14.06C48.6518 20.82 46.0398 25.964 40.6558 28.172C40.1838 28.364 39.7438 28.852 39.8958 29.456C40.0038 29.872 40.2278 30.068 40.3998 30.168C40.6718 30.324 41.0078 30.364 41.3238 30.276C43.7478 29.608 46.9278 29.676 47.9198 32.076C48.8158 34.24 47.4318 35.4 46.6038 36.092C45.9678 36.632 45.5998 36.964 45.5478 37.54C45.4918 38.196 45.5878 38.4 45.7358 38.712C46.2318 39.748 46.3198 40.62 45.4678 42.768C44.8278 44.384 43.1238 45.336 41.0318 45.336C40.6198 45.336 40.1918 45.3 39.7558 45.22C37.7278 44.868 35.5038 43.628 33.7758 41.276ZM50.7518 48.428C50.1158 48.22 49.4318 48.588 49.2238 49.2C49.2118 49.212 49.2118 49.212 49.2118 49.224C48.3078 52.132 47.6358 54.124 46.6918 55.26C45.8038 56.336 44.7278 56.96 41.8678 56.984C37.3078 56.972 34.0918 55.92 32.0398 53.748C30.5638 52.18 29.6958 49.944 29.4998 47.12C29.4478 46.448 28.8398 45.936 28.1918 45.988C27.8598 46.008 27.5678 46.156 27.3478 46.412C27.1398 46.66 27.0278 46.976 27.0558 47.292C27.3118 50.74 28.3598 53.404 30.2678 55.432C32.7598 58.084 36.6478 59.428 41.8198 59.428H41.8678C41.9158 59.428 41.9638 59.428 42.0118 59.428C45.0438 59.428 47.1958 58.576 48.5998 56.8C49.8718 55.2 50.5198 53.184 51.3238 50.628L51.5478 49.956C51.6438 49.652 51.6198 49.308 51.4598 49.028C51.3158 48.736 51.0598 48.528 50.7518 48.428ZM34.3878 3.392C34.4358 3.392 34.4718 3.392 34.5198 3.392C35.1958 3.32 35.6838 2.72 35.6078 2.048C35.5358 1.388 34.9758 0.887999 34.2638 0.959999C33.5918 1.032 33.1038 1.632 33.1758 2.304C33.2398 2.928 33.7638 3.392 34.3878 3.392ZM53.9278 15.224C53.8678 14.916 53.8198 14.6 53.7558 14.296C53.2478 11.264 52.6958 8.148 50.8878 5.592C48.6998 2.5 44.9118 0.936001 39.3118 0.776001H39.2758C38.6038 0.776001 38.0678 1.304 38.0558 1.964C38.0438 2.292 38.1518 2.596 38.3838 2.84C38.6038 3.076 38.9118 3.208 39.2278 3.22C44.1398 3.392 47.1238 4.568 48.9078 7.008C50.4118 9.076 50.8998 12.008 51.4718 15.408L51.5078 15.64C51.6198 16.224 52.1198 16.656 52.7198 16.656C52.7918 16.656 52.8518 16.656 52.9278 16.64C53.5878 16.52 54.0398 15.884 53.9278 15.224ZM16.0798 21.896C16.0558 21.556 16.0558 21.2 16.0558 20.808C16.0278 18.02 16.4438 13.904 18.5598 10.088C20.7838 6.068 24.3878 3.32 29.2558 1.916C29.8878 1.72 30.5838 2.108 30.7678 2.744C30.9678 3.392 30.5838 4.064 29.9358 4.26C22.4318 6.472 18.5838 12.032 18.4998 20.808C18.4998 21.14 18.4998 21.468 18.5238 21.8C18.5478 22.472 18.0198 23.044 17.3398 23.072C17.3238 23.072 17.3158 23.072 17.2998 23.072C16.6398 23.072 16.1038 22.556 16.0798 21.896Z" fill="#3889CD"/>
</svg>
