<svg width="52" height="60" viewBox="0 0 52 60" fill="none" xmlns="http://www.w3.org/2000/svg">
<path fill-rule="evenodd" clip-rule="evenodd" d="M17.1122 33.152V32.136C16.6402 31.372 16.1802 30.584 16.0322 29.76C15.8802 28.896 15.6722 26.94 16.4962 25.208C15.9362 24.468 15.0562 23.988 14.0602 23.988C12.3722 23.988 11.0042 25.356 11.0042 27.04V33.152C11.0042 34.84 12.3722 36.208 14.0602 36.208C15.7442 36.208 17.1122 34.84 17.1122 33.152ZM22.6802 38.652C20.6402 38.652 19.2362 37.756 18.6602 36.156C17.6762 37.656 15.9842 38.652 14.0602 38.652C11.0242 38.652 8.56021 36.184 8.56021 33.152V27.04C8.56021 24.008 11.0242 21.544 14.0602 21.544C15.6482 21.544 17.0762 22.224 18.0802 23.304C19.0562 22.608 20.3202 22.26 21.8522 22.26C25.6602 22.26 26.0602 24.792 26.3202 26.468L26.3442 26.624C26.4522 27.292 25.9922 27.916 25.3282 28.024C25.2402 28.036 25.1482 28.04 25.0602 28.036C24.5042 28 24.0202 27.584 23.9322 27.008L23.9042 26.844C23.6482 25.2 23.5722 24.704 21.8522 24.704C20.7402 24.704 19.8882 24.952 19.3202 25.44C19.2242 25.52 19.1322 25.608 19.0522 25.704C18.2842 26.62 18.2322 28.176 18.4402 29.332C18.5202 29.776 18.9402 30.448 19.3442 31.096C19.4162 31.204 19.4882 31.32 19.5602 31.432C20.1482 32.388 20.7482 33.452 20.8242 34.62C20.8882 35.6 21.2242 36.208 22.6802 36.208C22.9282 36.208 23.0082 36.168 23.0082 36.168C23.1122 36.064 23.2802 35.476 23.4162 35.004L24.6082 35.292L25.7682 35.684C25.3642 37.076 24.9122 38.652 22.6802 38.652ZM3.76822 24.72C3.76822 23.704 3.81621 22.656 3.90021 21.58C4.26821 17.412 5.06422 14.724 6.66422 12.276C6.84822 12.008 6.90821 11.68 6.83621 11.36C6.77221 11.044 6.58021 10.76 6.31221 10.592C5.76021 10.224 4.97621 10.396 4.62421 10.944C2.80421 13.708 1.86021 16.836 1.47221 21.372C1.37221 22.484 1.32422 23.608 1.32422 24.72C1.32422 29.424 2.24022 36.096 6.60022 41.108C8.15622 42.88 9.01221 45.08 9.01221 47.304C9.01221 47.78 8.97621 48.268 8.88821 48.784L7.30022 58C7.17622 58.66 7.62821 59.296 8.28821 59.416C8.36421 59.428 8.43621 59.428 8.50821 59.428C9.09621 59.428 9.60821 59 9.70821 58.416L11.2962 49.188C11.4082 48.552 11.4562 47.916 11.4562 47.304C11.4562 44.496 10.3922 41.72 8.44821 39.496C4.57621 35.072 3.76822 29.02 3.76822 24.72ZM49.9762 34.3L46.6522 25.416C46.6682 24.636 46.6882 22.412 46.6882 22.116C46.6882 19.832 46.3962 17.584 45.7962 15.416C43.3282 6.23998 35.4442 0.763977 24.7042 0.763977H24.5562C24.0322 0.763977 23.4682 0.77598 22.8962 0.79998C19.1562 0.99598 15.4402 2.09597 12.1642 3.99197C11.8842 4.15997 11.6722 4.41998 11.5882 4.73598C11.5162 5.05598 11.5522 5.38398 11.7242 5.66398C12.0402 6.22798 12.8242 6.43597 13.3882 6.10397C16.3282 4.40797 19.6682 3.41598 23.0162 3.24798C23.5162 3.21998 24.0322 3.20798 24.5562 3.20798C34.4562 3.25598 41.1642 7.81598 43.4522 16.068C43.9762 18.008 44.2482 20.052 44.2482 22.116C44.2482 22.372 44.2202 25.344 44.2082 25.588L44.2802 26.04L47.7042 35.204L47.7522 35.328C47.7642 35.34 47.7642 35.34 47.7642 35.352C47.7642 35.364 47.7522 35.376 47.7402 35.376H42.8402C42.4722 35.376 42.1082 35.548 41.8882 35.84C41.6562 36.148 41.5682 36.524 41.6562 36.892L42.9362 41.988L41.4602 45.204C41.3842 45.388 41.3362 45.584 41.3482 45.788L41.6162 50.068C41.6042 50.836 40.8362 51.412 40.0882 51.252L32.7122 50.744L26.0482 49.508C25.3842 49.388 24.7442 49.828 24.6202 50.492C24.5002 51.156 24.9362 51.792 25.6002 51.916L31.2602 52.96L30.7402 58.084C30.7042 58.404 30.8042 58.72 31.0082 58.976C31.2042 59.236 31.4962 59.392 31.8282 59.428C31.8642 59.428 31.9162 59.428 31.9522 59.428C32.5842 59.428 33.1002 58.952 33.1722 58.328L33.6842 53.256L39.6522 53.648C41.9482 54.1 44.0642 52.316 44.0642 50.032L43.8202 45.948L45.3362 42.624C45.4562 42.368 45.4802 42.084 45.4082 41.82L44.4042 37.82H47.7402C49.0962 37.808 50.2122 36.696 50.2122 35.352C50.2122 34.988 50.1362 34.62 49.9762 34.3ZM7.93622 8.75597C7.48422 8.25597 7.52022 7.48798 8.02022 7.03598C8.50022 6.59598 9.30422 6.63198 9.74422 7.10798C10.1962 7.60798 10.1602 8.39198 9.66022 8.84398C9.43622 9.03998 9.14421 9.15998 8.84021 9.15998C8.50021 9.15998 8.16822 9.01597 7.93622 8.75597Z" fill="#3889CD"/>
</svg>
