<svg width="64" height="60" viewBox="0 0 64 60" fill="none" xmlns="http://www.w3.org/2000/svg">
<path fill-rule="evenodd" clip-rule="evenodd" d="M46.3082 37.48C45.7082 37.784 45.4642 38.52 45.7562 39.12C45.9762 39.56 46.4042 39.804 46.8562 39.804C47.0402 39.804 47.2242 39.752 47.3922 39.668C48.0042 39.376 48.2482 38.628 47.9442 38.032C47.6402 37.432 46.9042 37.188 46.3082 37.48ZM45.7562 33.656C45.4642 33.056 44.7282 32.812 44.1162 33.116C43.5202 33.412 43.2722 34.144 43.5682 34.752C43.7882 35.18 44.2162 35.428 44.6682 35.428C44.8522 35.428 45.0362 35.392 45.2202 35.292C45.8162 35 46.0602 34.264 45.7562 33.656ZM49.8162 33.072C49.8162 33.076 49.8122 33.076 49.8122 33.076C48.8682 33.336 47.8442 33.208 47.0082 32.724C46.9122 32.668 46.8202 32.604 46.7322 32.54C46.0562 32.06 45.5802 31.36 45.3762 30.548C45.3362 30.38 45.3122 30.212 45.2922 30.048C45.2882 30.02 45.2842 29.992 45.2842 29.964C45.2682 29.804 45.2682 29.644 45.2762 29.488C45.2762 29.46 45.2802 29.432 45.2842 29.404C45.3082 29.064 45.3842 28.732 45.5082 28.416C45.0322 28.432 44.5082 28.464 43.9762 28.524C42.3362 28.712 41.0762 30.076 41.0922 31.64C41.0922 31.656 41.0882 31.672 41.0922 31.692C41.0922 31.7 41.0922 31.708 41.0922 31.72C41.3162 38.908 44.5242 42.288 47.4362 43.12C47.6322 43.176 47.8242 43.22 48.0122 43.256C49.4442 43.508 50.7162 43.108 51.0322 42.312C51.6402 40.776 51.5202 40.524 51.3682 40.208C51.1562 39.76 50.8322 39.088 50.9522 37.76C51.0962 36.152 52.1202 35.292 52.8722 34.664C53.7082 33.96 53.6882 33.912 53.5002 33.448C53.4642 33.36 53.4082 33.28 53.3282 33.212C53.3002 33.184 53.2642 33.156 53.2282 33.132C53.2202 33.124 53.2122 33.116 53.2042 33.112C52.5962 32.708 51.2602 32.672 49.8162 33.072ZM47.7282 29.844C47.7282 29.86 47.7282 29.876 47.7322 29.896C47.8402 30.312 48.0642 30.508 48.2402 30.608C48.5082 30.764 48.8442 30.804 49.1602 30.72C49.8962 30.512 50.7042 30.38 51.5042 30.356C51.5202 30.356 51.5402 30.356 51.5602 30.356C51.7042 30.352 51.8482 30.352 51.9882 30.36C52.0082 30.36 52.0282 30.36 52.0482 30.36C52.2002 30.364 52.3522 30.376 52.5002 30.392C52.5082 30.396 52.5162 30.396 52.5242 30.396C53.8642 30.544 55.0482 31.1 55.6482 32.296C55.6842 32.368 55.7242 32.436 55.7562 32.516C55.9802 33.056 56.0642 33.536 56.0442 33.96C56.0122 34.808 55.5842 35.44 55.1202 35.92C54.8882 36.16 54.6482 36.364 54.4402 36.536C53.8042 37.072 53.4362 37.404 53.3882 37.98C53.3242 38.64 53.4242 38.84 53.5722 39.152C54.0682 40.188 54.1562 41.06 53.3042 43.208C52.6682 44.824 50.9602 45.776 48.8682 45.776C48.4562 45.776 48.0282 45.74 47.5922 45.66C43.6402 44.972 38.9202 40.924 38.6482 31.796C38.4762 25.972 41.3802 22.064 46.8362 20.792C47.4922 20.64 48.1522 21.048 48.3042 21.704C48.4562 22.364 48.0482 23.02 47.3882 23.172C45.0602 23.716 43.3762 24.812 42.3362 26.428C42.7682 26.268 43.2242 26.152 43.7002 26.096C45.9682 25.836 47.2962 25.916 48.0842 26.12C53.4442 23.588 53.6242 17.98 53.2322 14.8C52.7402 10.784 51.3442 8.32001 46.0922 8.54001C39.4602 8.79201 34.8802 11.068 32.8562 15.116C30.5682 19.684 31.7362 26.264 35.8962 32.288C36.2802 32.844 36.1402 33.604 35.5842 33.988C35.0282 34.372 34.2682 34.232 33.8882 33.676C29.2162 26.92 27.9842 19.388 30.6722 14.024C32.3762 10.608 36.4242 6.46401 46.0002 6.09601C53.6642 5.80401 55.1962 10.752 55.6562 14.5C56.4882 21.236 53.8922 26.368 48.5482 28.588C48.5442 28.588 48.5402 28.592 48.5322 28.596C48.0442 28.812 47.6162 29.28 47.7282 29.844ZM25.1842 23.68C25.5162 23.668 25.8082 23.524 26.0282 23.292C26.2602 23.048 26.3722 22.74 26.3602 22.412C26.3242 21.74 25.7722 21.2 25.0882 21.24C24.7602 21.248 24.4522 21.396 24.2362 21.628C24.0122 21.872 23.9042 22.192 23.9162 22.508C23.9402 23.168 24.4762 23.68 25.1362 23.68C25.1522 23.68 25.1762 23.68 25.1842 23.68ZM58.5882 48.872C57.9522 48.66 57.2442 49.028 57.0482 49.668C56.1442 52.576 55.4722 54.568 54.5322 55.704C53.6602 56.744 52.5522 57.404 49.7042 57.424C45.1442 57.416 41.9282 56.364 39.8762 54.188C38.3842 52.624 37.5322 50.388 37.3362 47.564C37.0282 43.628 34.7802 40.02 32.3122 36.356C32.0802 36.024 31.8602 35.696 31.6282 35.364C29.5122 32.3 27.5082 29.392 26.9362 27.004C26.7762 26.372 26.1042 25.956 25.4562 26.128C25.1362 26.2 24.8682 26.396 24.7002 26.676C24.5402 26.956 24.4922 27.288 24.5642 27.604C25.3082 30.476 27.2162 33.252 29.2322 36.184C29.5842 36.7 29.9402 37.224 30.2962 37.736C32.5562 41.036 34.6842 44.544 34.8922 47.736C35.1362 51.132 36.2242 53.868 38.1042 55.876C40.5962 58.524 44.4842 59.872 49.6562 59.872H49.7042C49.7522 59.872 49.8002 59.872 49.8482 59.872C52.8802 59.872 55.0322 59.016 56.4362 57.244C57.7082 55.644 58.3562 53.612 59.1602 51.06L59.3842 50.4C59.4802 50.08 59.4442 49.752 59.2962 49.468C59.1522 49.176 58.8962 48.968 58.5882 48.872ZM61.7682 15.664C61.7042 15.348 61.6562 15.028 61.5962 14.712C61.0602 11.596 60.4962 8.36802 58.5402 5.77602C56.2042 2.69602 52.1482 1.20801 46.1602 1.20801H46.0482C45.9402 1.20801 45.8402 1.20801 45.7442 1.20801C28.1322 1.20801 24.7842 12.536 24.1602 17.412C24.0642 18.072 24.5282 18.696 25.1842 18.792C25.2482 18.792 25.3082 18.808 25.3722 18.808C25.9562 18.808 26.4682 18.364 26.5682 17.768C26.5682 17.768 26.5682 17.768 26.5802 17.752C27.5482 11.752 30.6242 3.77201 46.0482 3.65201C51.4282 3.66401 54.6762 4.78802 56.5962 7.26802C58.2122 9.34402 58.7242 12.364 59.3082 15.86L59.3562 16.08C59.4682 16.74 60.1162 17.192 60.7642 17.084C61.4242 16.96 61.8762 16.324 61.7682 15.664ZM11.6682 53.76H15.3362V46.428H11.6682C10.9962 46.428 10.4482 46.976 10.4482 47.648V52.536C10.4482 53.212 10.9962 53.76 11.6682 53.76ZM22.6722 43.516L17.7802 45.96V54.228L22.6722 56.668V43.516ZM25.1122 41.536V58.648C25.1122 59.072 24.8962 59.464 24.5322 59.688C24.3402 59.808 24.1162 59.872 23.8922 59.872C23.7042 59.872 23.5162 59.828 23.3442 59.744L16.2682 56.204H11.6682C9.64821 56.204 8.00421 54.56 8.00421 52.536V47.648C8.00421 45.628 9.64821 43.984 11.6682 43.984H16.2682L23.3442 40.444C23.7242 40.256 24.1762 40.276 24.5322 40.5C24.8962 40.72 25.1122 41.116 25.1122 41.536ZM23.8922 32.984C23.2162 32.984 22.6722 33.528 22.6722 34.204V36.648C22.6722 37.324 23.2162 37.872 23.8922 37.872C24.5682 37.872 25.1122 37.324 25.1122 36.648V34.204C25.1122 33.528 24.5682 32.984 23.8922 32.984ZM19.0042 39.092C19.6762 39.092 20.2242 38.548 20.2242 37.872V30.54C20.2242 29.864 19.6762 29.316 19.0042 29.316C18.3282 29.316 17.7802 29.864 17.7802 30.54V37.872C17.7802 38.548 18.3282 39.092 19.0042 39.092ZM14.1122 41.536C14.7882 41.536 15.3362 40.992 15.3362 40.316V26.872C15.3362 26.196 14.7882 25.652 14.1122 25.652C13.4402 25.652 12.8922 26.196 12.8922 26.872V40.316C12.8922 40.992 13.4402 41.536 14.1122 41.536ZM9.22421 41.536C9.90021 41.536 10.4482 40.992 10.4482 40.316V23.204C10.4482 22.532 9.90021 21.984 9.22421 21.984C8.55221 21.984 8.00421 22.532 8.00421 23.204V40.316C8.00421 40.992 8.55221 41.536 9.22421 41.536ZM5.56021 18.316V40.316C5.56021 40.992 5.01221 41.536 4.33621 41.536C3.66421 41.536 3.11621 40.992 3.11621 40.316V18.316C3.11621 17.644 3.66421 17.092 4.33621 17.092C5.01221 17.092 5.56021 17.644 5.56021 18.316Z" fill="#3889CD"/>
</svg>
