<svg width="64" height="60" viewBox="0 0 64 60" fill="none" xmlns="http://www.w3.org/2000/svg">
<path fill-rule="evenodd" clip-rule="evenodd" d="M31.3082 16.9C34.0242 17.336 36.3802 19.228 37.1682 21.596C37.6602 23.06 39.0962 27.384 34.9122 29.532C34.7162 29.632 34.5122 29.728 34.2962 29.82C34.2122 29.852 34.1642 29.912 34.1682 29.944C34.2322 30.036 34.2762 30.052 34.3402 30.036C34.7642 29.916 35.1762 29.848 35.5642 29.82C36.9962 29.712 38.1282 30.196 38.6402 31.168C38.6722 31.236 38.7082 31.3 38.7362 31.368C39.3962 32.96 38.3042 33.88 37.8362 34.268C37.5042 34.548 37.4242 34.636 37.4162 34.744C37.3962 34.976 37.4122 35.004 37.4762 35.14C37.6242 35.448 37.7162 35.752 37.7322 36.108C37.7522 36.56 37.6442 37.1 37.3362 37.88C36.9922 38.752 36.1882 39.38 35.1322 39.596C34.8602 39.652 34.5802 39.68 34.3002 39.68C32.9402 39.68 31.5082 39.052 30.4042 37.936C29.9282 37.456 29.9322 36.68 30.4122 36.204C30.8922 35.732 31.6682 35.736 32.1402 36.212C33.0522 37.136 34.0562 37.324 34.6442 37.2C34.9082 37.148 35.0402 37.04 35.0642 36.98C35.2922 36.4 35.2962 36.216 35.2962 36.208C35.1242 35.884 34.9682 35.5 34.9682 34.896C34.9682 34.78 34.9722 34.66 34.9842 34.524C35.0882 33.388 35.8242 32.768 36.2642 32.4C36.3002 32.368 36.3362 32.336 36.3762 32.304C36.1442 32.232 35.6402 32.212 34.9922 32.392C34.3122 32.576 33.5842 32.484 32.9842 32.14C32.3922 31.792 31.9762 31.24 31.8082 30.576C31.6042 29.776 31.8002 28.98 32.2762 28.376C32.5522 28.024 32.9202 27.74 33.3682 27.56C35.4562 26.7 35.8442 25.344 34.8522 22.372C34.3482 20.864 32.7322 19.604 30.9162 19.312C29.8242 19.132 27.7242 19.18 25.9882 21.496C25.5842 22.032 24.8242 22.148 24.2762 21.74C23.7402 21.332 23.6282 20.568 24.0362 20.028C25.8642 17.584 28.5202 16.444 31.3082 16.9ZM27.0402 12.648C27.1282 12.964 27.1002 13.292 26.9402 13.576C26.7842 13.856 26.5282 14.064 26.2082 14.16C20.8202 15.78 19.2722 19.456 19.0082 22.548C18.9802 22.844 18.9682 23.132 18.9602 23.416C18.9482 24.904 19.2682 26.444 19.8042 27.644C19.9122 27.888 20.0402 28.14 20.1802 28.404C20.6962 29.372 21.4162 30.452 22.1762 31.588C24.1682 34.596 26.4162 37.98 26.7362 41.612C26.8562 43.36 27.3842 44.728 28.2882 45.668C29.5482 46.988 31.5362 47.636 34.3842 47.648C35.8642 47.636 36.8402 47.268 37.5762 46.452C38.2122 45.732 38.6002 44.592 38.7122 43.152C38.7602 42.492 39.3482 41.98 40.0322 42.028C40.7042 42.088 41.2042 42.672 41.1442 43.348C40.9842 45.352 40.4242 46.892 39.4242 48.052C38.2842 49.372 36.5242 50.092 34.4322 50.092H34.3362C30.8402 50.092 28.2122 49.176 26.5002 47.356C25.2082 45.976 24.4602 44.104 24.3042 41.78C24.1562 39.104 22.1762 36.076 20.2562 33.144C19.2202 31.552 18.2402 30.048 17.5802 28.656C17.3482 28.14 17.1562 27.584 17.0002 27.004C16.6882 25.872 16.5162 24.644 16.5162 23.416C16.5082 22.796 16.5522 22.16 16.6442 21.512C17.2122 17.624 19.7482 13.46 25.5242 11.816C26.1602 11.632 26.8562 12.008 27.0402 12.648ZM30.6802 13.452C30.0202 13.452 29.4962 12.952 29.4602 12.292C29.4482 11.96 29.5602 11.656 29.7762 11.412C30.0002 11.168 30.3042 11.032 30.6202 11.008C31.3082 10.96 31.8682 11.508 31.9042 12.18C31.9162 12.5 31.8082 12.816 31.5842 13.06C31.3682 13.292 31.0762 13.44 30.7442 13.452C30.7202 13.452 30.7082 13.452 30.6802 13.452ZM35.2642 13.748C34.6162 13.588 34.2042 12.94 34.3482 12.28C34.4962 11.632 35.1562 11.204 35.8162 11.364C38.9442 12.036 40.4362 13.808 41.1442 15.176C41.9642 16.74 42.2682 18.464 42.5482 20.136C42.5882 20.344 42.6242 20.552 42.6602 20.76C42.7802 21.432 42.3322 22.068 41.6722 22.176C41.5962 22.192 41.5242 22.192 41.4642 22.192C40.8642 22.192 40.3482 21.776 40.2522 21.176L40.2402 21.092C39.9122 19.184 39.6402 17.536 38.9802 16.324C38.3362 15.152 37.4522 14.26 35.2642 13.748ZM52.4362 41.672C52.5482 42 52.5122 42.36 52.3402 42.664C47.8642 50.512 39.6802 54.996 31.1562 54.996C27.8562 54.996 24.5042 54.324 21.2962 52.916C9.80819 47.872 4.02018 35.064 7.83618 23.124C7.94418 22.792 8.18419 22.524 8.50019 22.38C8.81619 22.24 9.17619 22.236 9.49219 22.376L13.0802 23.952C13.7002 24.224 13.9802 24.944 13.7082 25.564C13.4362 26.18 12.7162 26.464 12.0962 26.188L9.79218 25.176C7.16418 35.532 12.3562 46.32 22.2802 50.676C32.2002 55.032 43.6602 51.56 49.5042 42.612L41.0202 38.888C40.4042 38.616 40.1242 37.896 40.3962 37.28C40.6682 36.66 41.3882 36.38 42.0042 36.652L51.7682 40.936C52.0842 41.08 52.3322 41.344 52.4362 41.672ZM54.4082 37.956C54.3042 38.284 54.0602 38.556 53.7482 38.696C53.5842 38.768 53.4162 38.804 53.2442 38.804C53.0762 38.804 52.9082 38.768 52.7522 38.7L42.4362 34.172C41.8202 33.9 41.5362 33.18 41.8082 32.564C42.0842 31.944 42.8042 31.664 43.4202 31.932L52.4562 35.9C55.0842 25.544 49.8882 14.756 39.9642 10.4C30.0442 6.04401 18.5842 9.51602 12.7402 18.464L13.6762 18.872C14.2922 19.144 14.5722 19.864 14.3002 20.484C14.0322 21.1 13.3122 21.384 12.6922 21.112L10.4762 20.14C10.1602 20 9.91618 19.732 9.80818 19.404C9.69618 19.076 9.73619 18.716 9.90819 18.416C16.1122 7.52401 29.4602 3.11602 40.9482 8.16402C52.4362 13.208 58.2242 26.016 54.4082 37.956ZM40.8842 55.584C34.1962 58.192 26.8922 58.04 20.3162 55.152C13.7402 52.264 8.68419 46.992 6.07619 40.3C3.46819 33.612 3.62018 26.308 6.50818 19.732C9.39618 13.156 14.6682 8.10002 21.3602 5.49202C24.5282 4.25602 27.8322 3.64401 31.1322 3.64401C34.8002 3.64401 38.4682 4.40401 41.9282 5.92401C48.5042 8.81201 53.5602 14.084 56.1682 20.776C58.7762 27.468 58.6242 34.772 55.7362 41.344C52.8482 47.92 47.5762 52.976 40.8842 55.584ZM58.4482 19.888C55.6002 12.588 50.0842 6.83602 42.9122 3.68802C35.7402 0.536017 27.7722 0.368017 20.4722 3.21602C13.1722 6.06002 7.42018 11.576 4.27218 18.748C1.12018 25.92 0.952184 33.892 3.80018 41.188C6.64418 48.488 12.1602 54.244 19.3322 57.392C23.1122 59.048 27.1082 59.88 31.1122 59.88C34.7122 59.88 38.3202 59.208 41.7722 57.864C49.0722 55.016 54.8242 49.5 57.9762 42.328C61.1242 35.156 61.2922 27.188 58.4482 19.888Z" fill="#3889CD"/>
</svg>
